G04 #@! TF.GenerationSoftware,KiCad,Pcbnew,5.99.0-unknown-128ec78~100~ubuntu18.04.1*
G04 #@! TF.CreationDate,2020-01-29T23:00:08+01:00*
G04 #@! TF.ProjectId,fab_v2,6661625f-7632-42e6-9b69-6361645f7063,rev?*
G04 #@! TF.SameCoordinates,PX251ced8PY3683460*
G04 #@! TF.FileFunction,Profile,NP*
%FSLAX46Y46*%
G04 Gerber Fmt 4.6, Leading zero omitted, Abs format (unit mm)*
G04 Created by KiCad (PCBNEW 5.99.0-unknown-128ec78~100~ubuntu18.04.1) date 2020-01-29 23:00:08*
%MOMM*%
%LPD*%
G04 APERTURE LIST*
%ADD10C,0.100000*%
G04 APERTURE END LIST*
D10*
X79298800Y-98420400D02*
X79298800Y-91450000D01*
X90298800Y-44050000D02*
X150298800Y-44050000D01*
X84498800Y-44050000D02*
X79298800Y-44050000D01*
X79298800Y-85650000D02*
X79298800Y-44050000D01*
X195298800Y-94050000D02*
X81298800Y-94050000D01*
X195298800Y-46050000D02*
X195298800Y-94050000D01*
X193800000Y-46050000D02*
X195298800Y-46050000D01*
X156098800Y-46050000D02*
X168000000Y-46050000D01*
X193800000Y-46050000D02*
G75*
G02*
X193800000Y-44050000I0J1000000D01*
G01*
X188000000Y-44050000D02*
G75*
G02*
X188000000Y-46050000I0J-1000000D01*
G01*
X173800000Y-46050000D02*
G75*
G02*
X173800000Y-44050000I0J1000000D01*
G01*
X168000000Y-44050000D02*
G75*
G02*
X168000000Y-46050000I0J-1000000D01*
G01*
X173800000Y-46050000D02*
X188000000Y-46050000D01*
X150298800Y-44050000D02*
G75*
G02*
X150298800Y-46050000I0J-1000000D01*
G01*
X156098800Y-46050000D02*
G75*
G02*
X156098800Y-44050000I0J1000000D01*
G01*
X81298800Y-94050000D02*
X81298800Y-91450000D01*
X81298800Y-85650000D02*
G75*
G02*
X79298800Y-85650000I-1000000J0D01*
G01*
X79298800Y-91450000D02*
G75*
G02*
X81298800Y-91450000I1000000J0D01*
G01*
X81298800Y-46050000D02*
X84498800Y-46050000D01*
X84498800Y-44050000D02*
G75*
G02*
X84498800Y-46050000I0J-1000000D01*
G01*
X90298800Y-46050000D02*
G75*
G02*
X90298800Y-44050000I0J1000000D01*
G01*
X81298800Y-85650000D02*
X81298800Y-46050000D01*
X90298800Y-46050000D02*
X150298800Y-46050000D01*
X165400000Y0D02*
X195298800Y0D01*
X195298800Y-44050000D02*
X195298800Y0D01*
X165400000Y0D02*
X165400000Y-2800000D01*
X163400000Y0D02*
X163400000Y-2800000D01*
X165400000Y-34200000D02*
X165400000Y-8600000D01*
X165400000Y-44050000D02*
X168000000Y-44050000D01*
X165400000Y-40000000D02*
X165400000Y-44050000D01*
X163400000Y-8600000D02*
G75*
G02*
X165400000Y-8600000I1000000J0D01*
G01*
X165400000Y-2800000D02*
G75*
G02*
X163400000Y-2800000I-1000000J0D01*
G01*
X165400000Y-34200000D02*
G75*
G02*
X163400000Y-34200000I-1000000J0D01*
G01*
X163400000Y-40000000D02*
G75*
G02*
X165400000Y-40000000I1000000J0D01*
G01*
X193800000Y-44050000D02*
X195298800Y-44050000D01*
X173800000Y-44050000D02*
X188000000Y-44050000D01*
X156098800Y-44050000D02*
X163400000Y-44050000D01*
X163400000Y-40000000D02*
X163400000Y-44050000D01*
X163400000Y-34200000D02*
X163400000Y-8600000D01*
X81611548Y-6449506D02*
G75*
G02*
X79780208Y-6447000I-915703J-22894D01*
G01*
X79780208Y0D02*
X27051000Y0D01*
X79780208Y0D02*
X79780208Y-6447000D01*
X81611800Y0D02*
X81611548Y-6449506D01*
X17907000Y0D02*
X17907000Y-2891000D01*
X0Y0D02*
X17907000Y0D01*
X17907000Y-19782000D02*
X17907000Y-2891000D01*
X27051000Y-19782000D02*
X17907000Y-19782000D01*
X27051000Y0D02*
X27051000Y-19782000D01*
X65300000Y-98420400D02*
X65300000Y-102750000D01*
X79298800Y-98420400D02*
X65300000Y-98420400D01*
X45008800Y-100223800D02*
X45000000Y-102750000D01*
X81611800Y0D02*
X163400000Y0D01*
X0Y-106650000D02*
X0Y0D01*
X15011400Y-106650000D02*
X0Y-106650000D01*
X15011400Y-98395000D02*
X15011400Y-106650000D01*
X33350200Y-98395000D02*
X15011400Y-98395000D01*
X33350200Y-106650000D02*
X33350200Y-98395000D01*
X41351200Y-106650000D02*
X33350200Y-106650000D01*
X41351200Y-100223800D02*
X41351200Y-106650000D01*
X43180000Y-98395000D02*
G75*
G03*
X41351200Y-100223800I0J-1828800D01*
G01*
X45008800Y-100223800D02*
G75*
G03*
X43180000Y-98395000I-1828800J0D01*
G01*
X56200000Y-103700000D02*
X56200000Y-110650000D01*
X58100000Y-103700000D02*
X58100000Y-110650000D01*
X45000000Y-102750000D02*
X45000000Y-110650000D01*
X45500000Y-111150000D02*
X55700000Y-111150000D01*
X65300000Y-102750000D02*
X65300000Y-110650000D01*
X58600000Y-111150000D02*
X64800000Y-111150000D01*
X45000000Y-110650000D02*
X45500000Y-111150000D01*
X56200000Y-110650000D02*
X55700000Y-111150000D01*
X58100000Y-110650000D02*
X58600000Y-111150000D01*
X65300000Y-110650000D02*
X64800000Y-111150000D01*
X56200000Y-103700000D02*
G75*
G02*
X58100000Y-103700000I950000J0D01*
G01*
M02*
