G04 #@! TF.GenerationSoftware,KiCad,Pcbnew,5.99.0-unknown-128ec78~100~ubuntu18.04.1*
G04 #@! TF.CreationDate,2020-01-29T23:00:07+01:00*
G04 #@! TF.ProjectId,fab_v2,6661625f-7632-42e6-9b69-6361645f7063,rev?*
G04 #@! TF.SameCoordinates,PX251ced8PY3683460*
G04 #@! TF.FileFunction,Paste,Bot*
G04 #@! TF.FilePolarity,Positive*
%FSLAX46Y46*%
G04 Gerber Fmt 4.6, Leading zero omitted, Abs format (unit mm)*
G04 Created by KiCad (PCBNEW 5.99.0-unknown-128ec78~100~ubuntu18.04.1) date 2020-01-29 23:00:07*
%MOMM*%
%LPD*%
G04 APERTURE LIST*
G04 APERTURE END LIST*
G36*
X178948770Y-47187321D02*
G01*
X179005544Y-47225256D01*
X179043479Y-47282030D01*
X179056800Y-47349000D01*
X179056800Y-50999000D01*
X179043479Y-51065970D01*
X179005544Y-51122744D01*
X178948770Y-51160679D01*
X178881800Y-51174000D01*
X178531800Y-51174000D01*
X178464830Y-51160679D01*
X178408056Y-51122744D01*
X178370121Y-51065970D01*
X178356800Y-50999000D01*
X178356800Y-47349000D01*
X178370121Y-47282030D01*
X178408056Y-47225256D01*
X178464830Y-47187321D01*
X178531800Y-47174000D01*
X178881800Y-47174000D01*
X178948770Y-47187321D01*
G37*
G36*
X177948770Y-47187321D02*
G01*
X178005544Y-47225256D01*
X178043479Y-47282030D01*
X178056800Y-47349000D01*
X178056800Y-50999000D01*
X178043479Y-51065970D01*
X178005544Y-51122744D01*
X177948770Y-51160679D01*
X177881800Y-51174000D01*
X177531800Y-51174000D01*
X177464830Y-51160679D01*
X177408056Y-51122744D01*
X177370121Y-51065970D01*
X177356800Y-50999000D01*
X177356800Y-47349000D01*
X177370121Y-47282030D01*
X177408056Y-47225256D01*
X177464830Y-47187321D01*
X177531800Y-47174000D01*
X177881800Y-47174000D01*
X177948770Y-47187321D01*
G37*
G36*
X176948770Y-47187321D02*
G01*
X177005544Y-47225256D01*
X177043479Y-47282030D01*
X177056800Y-47349000D01*
X177056800Y-50999000D01*
X177043479Y-51065970D01*
X177005544Y-51122744D01*
X176948770Y-51160679D01*
X176881800Y-51174000D01*
X176531800Y-51174000D01*
X176464830Y-51160679D01*
X176408056Y-51122744D01*
X176370121Y-51065970D01*
X176356800Y-50999000D01*
X176356800Y-47349000D01*
X176370121Y-47282030D01*
X176408056Y-47225256D01*
X176464830Y-47187321D01*
X176531800Y-47174000D01*
X176881800Y-47174000D01*
X176948770Y-47187321D01*
G37*
G36*
X175948770Y-47187321D02*
G01*
X176005544Y-47225256D01*
X176043479Y-47282030D01*
X176056800Y-47349000D01*
X176056800Y-50999000D01*
X176043479Y-51065970D01*
X176005544Y-51122744D01*
X175948770Y-51160679D01*
X175881800Y-51174000D01*
X175531800Y-51174000D01*
X175464830Y-51160679D01*
X175408056Y-51122744D01*
X175370121Y-51065970D01*
X175356800Y-50999000D01*
X175356800Y-47349000D01*
X175370121Y-47282030D01*
X175408056Y-47225256D01*
X175464830Y-47187321D01*
X175531800Y-47174000D01*
X175881800Y-47174000D01*
X175948770Y-47187321D01*
G37*
G36*
X174948770Y-47187321D02*
G01*
X175005544Y-47225256D01*
X175043479Y-47282030D01*
X175056800Y-47349000D01*
X175056800Y-50999000D01*
X175043479Y-51065970D01*
X175005544Y-51122744D01*
X174948770Y-51160679D01*
X174881800Y-51174000D01*
X174531800Y-51174000D01*
X174464830Y-51160679D01*
X174408056Y-51122744D01*
X174370121Y-51065970D01*
X174356800Y-50999000D01*
X174356800Y-47349000D01*
X174370121Y-47282030D01*
X174408056Y-47225256D01*
X174464830Y-47187321D01*
X174531800Y-47174000D01*
X174881800Y-47174000D01*
X174948770Y-47187321D01*
G37*
G36*
X173948770Y-47187321D02*
G01*
X174005544Y-47225256D01*
X174043479Y-47282030D01*
X174056800Y-47349000D01*
X174056800Y-50999000D01*
X174043479Y-51065970D01*
X174005544Y-51122744D01*
X173948770Y-51160679D01*
X173881800Y-51174000D01*
X173531800Y-51174000D01*
X173464830Y-51160679D01*
X173408056Y-51122744D01*
X173370121Y-51065970D01*
X173356800Y-50999000D01*
X173356800Y-47349000D01*
X173370121Y-47282030D01*
X173408056Y-47225256D01*
X173464830Y-47187321D01*
X173531800Y-47174000D01*
X173881800Y-47174000D01*
X173948770Y-47187321D01*
G37*
G36*
X172948770Y-47187321D02*
G01*
X173005544Y-47225256D01*
X173043479Y-47282030D01*
X173056800Y-47349000D01*
X173056800Y-50999000D01*
X173043479Y-51065970D01*
X173005544Y-51122744D01*
X172948770Y-51160679D01*
X172881800Y-51174000D01*
X172531800Y-51174000D01*
X172464830Y-51160679D01*
X172408056Y-51122744D01*
X172370121Y-51065970D01*
X172356800Y-50999000D01*
X172356800Y-47349000D01*
X172370121Y-47282030D01*
X172408056Y-47225256D01*
X172464830Y-47187321D01*
X172531800Y-47174000D01*
X172881800Y-47174000D01*
X172948770Y-47187321D01*
G37*
G36*
X171948770Y-47187321D02*
G01*
X172005544Y-47225256D01*
X172043479Y-47282030D01*
X172056800Y-47349000D01*
X172056800Y-50999000D01*
X172043479Y-51065970D01*
X172005544Y-51122744D01*
X171948770Y-51160679D01*
X171881800Y-51174000D01*
X171531800Y-51174000D01*
X171464830Y-51160679D01*
X171408056Y-51122744D01*
X171370121Y-51065970D01*
X171356800Y-50999000D01*
X171356800Y-47349000D01*
X171370121Y-47282030D01*
X171408056Y-47225256D01*
X171464830Y-47187321D01*
X171531800Y-47174000D01*
X171881800Y-47174000D01*
X171948770Y-47187321D01*
G37*
G36*
X170948770Y-47187321D02*
G01*
X171005544Y-47225256D01*
X171043479Y-47282030D01*
X171056800Y-47349000D01*
X171056800Y-50999000D01*
X171043479Y-51065970D01*
X171005544Y-51122744D01*
X170948770Y-51160679D01*
X170881800Y-51174000D01*
X170531800Y-51174000D01*
X170464830Y-51160679D01*
X170408056Y-51122744D01*
X170370121Y-51065970D01*
X170356800Y-50999000D01*
X170356800Y-47349000D01*
X170370121Y-47282030D01*
X170408056Y-47225256D01*
X170464830Y-47187321D01*
X170531800Y-47174000D01*
X170881800Y-47174000D01*
X170948770Y-47187321D01*
G37*
G36*
X169948770Y-47187321D02*
G01*
X170005544Y-47225256D01*
X170043479Y-47282030D01*
X170056800Y-47349000D01*
X170056800Y-50999000D01*
X170043479Y-51065970D01*
X170005544Y-51122744D01*
X169948770Y-51160679D01*
X169881800Y-51174000D01*
X169531800Y-51174000D01*
X169464830Y-51160679D01*
X169408056Y-51122744D01*
X169370121Y-51065970D01*
X169356800Y-50999000D01*
X169356800Y-47349000D01*
X169370121Y-47282030D01*
X169408056Y-47225256D01*
X169464830Y-47187321D01*
X169531800Y-47174000D01*
X169881800Y-47174000D01*
X169948770Y-47187321D01*
G37*
G36*
X168948770Y-47187321D02*
G01*
X169005544Y-47225256D01*
X169043479Y-47282030D01*
X169056800Y-47349000D01*
X169056800Y-50999000D01*
X169043479Y-51065970D01*
X169005544Y-51122744D01*
X168948770Y-51160679D01*
X168881800Y-51174000D01*
X168531800Y-51174000D01*
X168464830Y-51160679D01*
X168408056Y-51122744D01*
X168370121Y-51065970D01*
X168356800Y-50999000D01*
X168356800Y-47349000D01*
X168370121Y-47282030D01*
X168408056Y-47225256D01*
X168464830Y-47187321D01*
X168531800Y-47174000D01*
X168881800Y-47174000D01*
X168948770Y-47187321D01*
G37*
G36*
X167948770Y-47187321D02*
G01*
X168005544Y-47225256D01*
X168043479Y-47282030D01*
X168056800Y-47349000D01*
X168056800Y-50999000D01*
X168043479Y-51065970D01*
X168005544Y-51122744D01*
X167948770Y-51160679D01*
X167881800Y-51174000D01*
X167531800Y-51174000D01*
X167464830Y-51160679D01*
X167408056Y-51122744D01*
X167370121Y-51065970D01*
X167356800Y-50999000D01*
X167356800Y-47349000D01*
X167370121Y-47282030D01*
X167408056Y-47225256D01*
X167464830Y-47187321D01*
X167531800Y-47174000D01*
X167881800Y-47174000D01*
X167948770Y-47187321D01*
G37*
G36*
X166948770Y-47187321D02*
G01*
X167005544Y-47225256D01*
X167043479Y-47282030D01*
X167056800Y-47349000D01*
X167056800Y-50999000D01*
X167043479Y-51065970D01*
X167005544Y-51122744D01*
X166948770Y-51160679D01*
X166881800Y-51174000D01*
X166531800Y-51174000D01*
X166464830Y-51160679D01*
X166408056Y-51122744D01*
X166370121Y-51065970D01*
X166356800Y-50999000D01*
X166356800Y-47349000D01*
X166370121Y-47282030D01*
X166408056Y-47225256D01*
X166464830Y-47187321D01*
X166531800Y-47174000D01*
X166881800Y-47174000D01*
X166948770Y-47187321D01*
G37*
G36*
X165948770Y-47187321D02*
G01*
X166005544Y-47225256D01*
X166043479Y-47282030D01*
X166056800Y-47349000D01*
X166056800Y-50999000D01*
X166043479Y-51065970D01*
X166005544Y-51122744D01*
X165948770Y-51160679D01*
X165881800Y-51174000D01*
X165531800Y-51174000D01*
X165464830Y-51160679D01*
X165408056Y-51122744D01*
X165370121Y-51065970D01*
X165356800Y-50999000D01*
X165356800Y-47349000D01*
X165370121Y-47282030D01*
X165408056Y-47225256D01*
X165464830Y-47187321D01*
X165531800Y-47174000D01*
X165881800Y-47174000D01*
X165948770Y-47187321D01*
G37*
G36*
X164948770Y-47187321D02*
G01*
X165005544Y-47225256D01*
X165043479Y-47282030D01*
X165056800Y-47349000D01*
X165056800Y-50999000D01*
X165043479Y-51065970D01*
X165005544Y-51122744D01*
X164948770Y-51160679D01*
X164881800Y-51174000D01*
X164531800Y-51174000D01*
X164464830Y-51160679D01*
X164408056Y-51122744D01*
X164370121Y-51065970D01*
X164356800Y-50999000D01*
X164356800Y-47349000D01*
X164370121Y-47282030D01*
X164408056Y-47225256D01*
X164464830Y-47187321D01*
X164531800Y-47174000D01*
X164881800Y-47174000D01*
X164948770Y-47187321D01*
G37*
G36*
X163948770Y-47187321D02*
G01*
X164005544Y-47225256D01*
X164043479Y-47282030D01*
X164056800Y-47349000D01*
X164056800Y-50999000D01*
X164043479Y-51065970D01*
X164005544Y-51122744D01*
X163948770Y-51160679D01*
X163881800Y-51174000D01*
X163531800Y-51174000D01*
X163464830Y-51160679D01*
X163408056Y-51122744D01*
X163370121Y-51065970D01*
X163356800Y-50999000D01*
X163356800Y-47349000D01*
X163370121Y-47282030D01*
X163408056Y-47225256D01*
X163464830Y-47187321D01*
X163531800Y-47174000D01*
X163881800Y-47174000D01*
X163948770Y-47187321D01*
G37*
G36*
X162948770Y-47187321D02*
G01*
X163005544Y-47225256D01*
X163043479Y-47282030D01*
X163056800Y-47349000D01*
X163056800Y-50999000D01*
X163043479Y-51065970D01*
X163005544Y-51122744D01*
X162948770Y-51160679D01*
X162881800Y-51174000D01*
X162531800Y-51174000D01*
X162464830Y-51160679D01*
X162408056Y-51122744D01*
X162370121Y-51065970D01*
X162356800Y-50999000D01*
X162356800Y-47349000D01*
X162370121Y-47282030D01*
X162408056Y-47225256D01*
X162464830Y-47187321D01*
X162531800Y-47174000D01*
X162881800Y-47174000D01*
X162948770Y-47187321D01*
G37*
G36*
X161948770Y-47187321D02*
G01*
X162005544Y-47225256D01*
X162043479Y-47282030D01*
X162056800Y-47349000D01*
X162056800Y-50999000D01*
X162043479Y-51065970D01*
X162005544Y-51122744D01*
X161948770Y-51160679D01*
X161881800Y-51174000D01*
X161531800Y-51174000D01*
X161464830Y-51160679D01*
X161408056Y-51122744D01*
X161370121Y-51065970D01*
X161356800Y-50999000D01*
X161356800Y-47349000D01*
X161370121Y-47282030D01*
X161408056Y-47225256D01*
X161464830Y-47187321D01*
X161531800Y-47174000D01*
X161881800Y-47174000D01*
X161948770Y-47187321D01*
G37*
G36*
X160948770Y-47187321D02*
G01*
X161005544Y-47225256D01*
X161043479Y-47282030D01*
X161056800Y-47349000D01*
X161056800Y-50999000D01*
X161043479Y-51065970D01*
X161005544Y-51122744D01*
X160948770Y-51160679D01*
X160881800Y-51174000D01*
X160531800Y-51174000D01*
X160464830Y-51160679D01*
X160408056Y-51122744D01*
X160370121Y-51065970D01*
X160356800Y-50999000D01*
X160356800Y-47349000D01*
X160370121Y-47282030D01*
X160408056Y-47225256D01*
X160464830Y-47187321D01*
X160531800Y-47174000D01*
X160881800Y-47174000D01*
X160948770Y-47187321D01*
G37*
G36*
X159948770Y-47187321D02*
G01*
X160005544Y-47225256D01*
X160043479Y-47282030D01*
X160056800Y-47349000D01*
X160056800Y-50999000D01*
X160043479Y-51065970D01*
X160005544Y-51122744D01*
X159948770Y-51160679D01*
X159881800Y-51174000D01*
X159531800Y-51174000D01*
X159464830Y-51160679D01*
X159408056Y-51122744D01*
X159370121Y-51065970D01*
X159356800Y-50999000D01*
X159356800Y-47349000D01*
X159370121Y-47282030D01*
X159408056Y-47225256D01*
X159464830Y-47187321D01*
X159531800Y-47174000D01*
X159881800Y-47174000D01*
X159948770Y-47187321D01*
G37*
G36*
X158948770Y-47187321D02*
G01*
X159005544Y-47225256D01*
X159043479Y-47282030D01*
X159056800Y-47349000D01*
X159056800Y-50999000D01*
X159043479Y-51065970D01*
X159005544Y-51122744D01*
X158948770Y-51160679D01*
X158881800Y-51174000D01*
X158531800Y-51174000D01*
X158464830Y-51160679D01*
X158408056Y-51122744D01*
X158370121Y-51065970D01*
X158356800Y-50999000D01*
X158356800Y-47349000D01*
X158370121Y-47282030D01*
X158408056Y-47225256D01*
X158464830Y-47187321D01*
X158531800Y-47174000D01*
X158881800Y-47174000D01*
X158948770Y-47187321D01*
G37*
G36*
X157948770Y-47187321D02*
G01*
X158005544Y-47225256D01*
X158043479Y-47282030D01*
X158056800Y-47349000D01*
X158056800Y-50999000D01*
X158043479Y-51065970D01*
X158005544Y-51122744D01*
X157948770Y-51160679D01*
X157881800Y-51174000D01*
X157531800Y-51174000D01*
X157464830Y-51160679D01*
X157408056Y-51122744D01*
X157370121Y-51065970D01*
X157356800Y-50999000D01*
X157356800Y-47349000D01*
X157370121Y-47282030D01*
X157408056Y-47225256D01*
X157464830Y-47187321D01*
X157531800Y-47174000D01*
X157881800Y-47174000D01*
X157948770Y-47187321D01*
G37*
G36*
X156948770Y-47187321D02*
G01*
X157005544Y-47225256D01*
X157043479Y-47282030D01*
X157056800Y-47349000D01*
X157056800Y-50999000D01*
X157043479Y-51065970D01*
X157005544Y-51122744D01*
X156948770Y-51160679D01*
X156881800Y-51174000D01*
X156531800Y-51174000D01*
X156464830Y-51160679D01*
X156408056Y-51122744D01*
X156370121Y-51065970D01*
X156356800Y-50999000D01*
X156356800Y-47349000D01*
X156370121Y-47282030D01*
X156408056Y-47225256D01*
X156464830Y-47187321D01*
X156531800Y-47174000D01*
X156881800Y-47174000D01*
X156948770Y-47187321D01*
G37*
G36*
X155948770Y-47187321D02*
G01*
X156005544Y-47225256D01*
X156043479Y-47282030D01*
X156056800Y-47349000D01*
X156056800Y-50999000D01*
X156043479Y-51065970D01*
X156005544Y-51122744D01*
X155948770Y-51160679D01*
X155881800Y-51174000D01*
X155531800Y-51174000D01*
X155464830Y-51160679D01*
X155408056Y-51122744D01*
X155370121Y-51065970D01*
X155356800Y-50999000D01*
X155356800Y-47349000D01*
X155370121Y-47282030D01*
X155408056Y-47225256D01*
X155464830Y-47187321D01*
X155531800Y-47174000D01*
X155881800Y-47174000D01*
X155948770Y-47187321D01*
G37*
G36*
X154948770Y-47187321D02*
G01*
X155005544Y-47225256D01*
X155043479Y-47282030D01*
X155056800Y-47349000D01*
X155056800Y-50999000D01*
X155043479Y-51065970D01*
X155005544Y-51122744D01*
X154948770Y-51160679D01*
X154881800Y-51174000D01*
X154531800Y-51174000D01*
X154464830Y-51160679D01*
X154408056Y-51122744D01*
X154370121Y-51065970D01*
X154356800Y-50999000D01*
X154356800Y-47349000D01*
X154370121Y-47282030D01*
X154408056Y-47225256D01*
X154464830Y-47187321D01*
X154531800Y-47174000D01*
X154881800Y-47174000D01*
X154948770Y-47187321D01*
G37*
G36*
X153948770Y-47187321D02*
G01*
X154005544Y-47225256D01*
X154043479Y-47282030D01*
X154056800Y-47349000D01*
X154056800Y-50999000D01*
X154043479Y-51065970D01*
X154005544Y-51122744D01*
X153948770Y-51160679D01*
X153881800Y-51174000D01*
X153531800Y-51174000D01*
X153464830Y-51160679D01*
X153408056Y-51122744D01*
X153370121Y-51065970D01*
X153356800Y-50999000D01*
X153356800Y-47349000D01*
X153370121Y-47282030D01*
X153408056Y-47225256D01*
X153464830Y-47187321D01*
X153531800Y-47174000D01*
X153881800Y-47174000D01*
X153948770Y-47187321D01*
G37*
G36*
X152948770Y-47187321D02*
G01*
X153005544Y-47225256D01*
X153043479Y-47282030D01*
X153056800Y-47349000D01*
X153056800Y-50999000D01*
X153043479Y-51065970D01*
X153005544Y-51122744D01*
X152948770Y-51160679D01*
X152881800Y-51174000D01*
X152531800Y-51174000D01*
X152464830Y-51160679D01*
X152408056Y-51122744D01*
X152370121Y-51065970D01*
X152356800Y-50999000D01*
X152356800Y-47349000D01*
X152370121Y-47282030D01*
X152408056Y-47225256D01*
X152464830Y-47187321D01*
X152531800Y-47174000D01*
X152881800Y-47174000D01*
X152948770Y-47187321D01*
G37*
G36*
X151948770Y-47187321D02*
G01*
X152005544Y-47225256D01*
X152043479Y-47282030D01*
X152056800Y-47349000D01*
X152056800Y-50999000D01*
X152043479Y-51065970D01*
X152005544Y-51122744D01*
X151948770Y-51160679D01*
X151881800Y-51174000D01*
X151531800Y-51174000D01*
X151464830Y-51160679D01*
X151408056Y-51122744D01*
X151370121Y-51065970D01*
X151356800Y-50999000D01*
X151356800Y-47349000D01*
X151370121Y-47282030D01*
X151408056Y-47225256D01*
X151464830Y-47187321D01*
X151531800Y-47174000D01*
X151881800Y-47174000D01*
X151948770Y-47187321D01*
G37*
G36*
X150948770Y-47187321D02*
G01*
X151005544Y-47225256D01*
X151043479Y-47282030D01*
X151056800Y-47349000D01*
X151056800Y-50999000D01*
X151043479Y-51065970D01*
X151005544Y-51122744D01*
X150948770Y-51160679D01*
X150881800Y-51174000D01*
X150531800Y-51174000D01*
X150464830Y-51160679D01*
X150408056Y-51122744D01*
X150370121Y-51065970D01*
X150356800Y-50999000D01*
X150356800Y-47349000D01*
X150370121Y-47282030D01*
X150408056Y-47225256D01*
X150464830Y-47187321D01*
X150531800Y-47174000D01*
X150881800Y-47174000D01*
X150948770Y-47187321D01*
G37*
G36*
X149948770Y-47187321D02*
G01*
X150005544Y-47225256D01*
X150043479Y-47282030D01*
X150056800Y-47349000D01*
X150056800Y-50999000D01*
X150043479Y-51065970D01*
X150005544Y-51122744D01*
X149948770Y-51160679D01*
X149881800Y-51174000D01*
X149531800Y-51174000D01*
X149464830Y-51160679D01*
X149408056Y-51122744D01*
X149370121Y-51065970D01*
X149356800Y-50999000D01*
X149356800Y-47349000D01*
X149370121Y-47282030D01*
X149408056Y-47225256D01*
X149464830Y-47187321D01*
X149531800Y-47174000D01*
X149881800Y-47174000D01*
X149948770Y-47187321D01*
G37*
G36*
X148948770Y-47187321D02*
G01*
X149005544Y-47225256D01*
X149043479Y-47282030D01*
X149056800Y-47349000D01*
X149056800Y-50999000D01*
X149043479Y-51065970D01*
X149005544Y-51122744D01*
X148948770Y-51160679D01*
X148881800Y-51174000D01*
X148531800Y-51174000D01*
X148464830Y-51160679D01*
X148408056Y-51122744D01*
X148370121Y-51065970D01*
X148356800Y-50999000D01*
X148356800Y-47349000D01*
X148370121Y-47282030D01*
X148408056Y-47225256D01*
X148464830Y-47187321D01*
X148531800Y-47174000D01*
X148881800Y-47174000D01*
X148948770Y-47187321D01*
G37*
G36*
X147948770Y-47187321D02*
G01*
X148005544Y-47225256D01*
X148043479Y-47282030D01*
X148056800Y-47349000D01*
X148056800Y-50999000D01*
X148043479Y-51065970D01*
X148005544Y-51122744D01*
X147948770Y-51160679D01*
X147881800Y-51174000D01*
X147531800Y-51174000D01*
X147464830Y-51160679D01*
X147408056Y-51122744D01*
X147370121Y-51065970D01*
X147356800Y-50999000D01*
X147356800Y-47349000D01*
X147370121Y-47282030D01*
X147408056Y-47225256D01*
X147464830Y-47187321D01*
X147531800Y-47174000D01*
X147881800Y-47174000D01*
X147948770Y-47187321D01*
G37*
G36*
X146948770Y-47187321D02*
G01*
X147005544Y-47225256D01*
X147043479Y-47282030D01*
X147056800Y-47349000D01*
X147056800Y-50999000D01*
X147043479Y-51065970D01*
X147005544Y-51122744D01*
X146948770Y-51160679D01*
X146881800Y-51174000D01*
X146531800Y-51174000D01*
X146464830Y-51160679D01*
X146408056Y-51122744D01*
X146370121Y-51065970D01*
X146356800Y-50999000D01*
X146356800Y-47349000D01*
X146370121Y-47282030D01*
X146408056Y-47225256D01*
X146464830Y-47187321D01*
X146531800Y-47174000D01*
X146881800Y-47174000D01*
X146948770Y-47187321D01*
G37*
G36*
X145948770Y-47187321D02*
G01*
X146005544Y-47225256D01*
X146043479Y-47282030D01*
X146056800Y-47349000D01*
X146056800Y-50999000D01*
X146043479Y-51065970D01*
X146005544Y-51122744D01*
X145948770Y-51160679D01*
X145881800Y-51174000D01*
X145531800Y-51174000D01*
X145464830Y-51160679D01*
X145408056Y-51122744D01*
X145370121Y-51065970D01*
X145356800Y-50999000D01*
X145356800Y-47349000D01*
X145370121Y-47282030D01*
X145408056Y-47225256D01*
X145464830Y-47187321D01*
X145531800Y-47174000D01*
X145881800Y-47174000D01*
X145948770Y-47187321D01*
G37*
G36*
X144948770Y-47187321D02*
G01*
X145005544Y-47225256D01*
X145043479Y-47282030D01*
X145056800Y-47349000D01*
X145056800Y-50999000D01*
X145043479Y-51065970D01*
X145005544Y-51122744D01*
X144948770Y-51160679D01*
X144881800Y-51174000D01*
X144531800Y-51174000D01*
X144464830Y-51160679D01*
X144408056Y-51122744D01*
X144370121Y-51065970D01*
X144356800Y-50999000D01*
X144356800Y-47349000D01*
X144370121Y-47282030D01*
X144408056Y-47225256D01*
X144464830Y-47187321D01*
X144531800Y-47174000D01*
X144881800Y-47174000D01*
X144948770Y-47187321D01*
G37*
G36*
X143948770Y-47187321D02*
G01*
X144005544Y-47225256D01*
X144043479Y-47282030D01*
X144056800Y-47349000D01*
X144056800Y-50999000D01*
X144043479Y-51065970D01*
X144005544Y-51122744D01*
X143948770Y-51160679D01*
X143881800Y-51174000D01*
X143531800Y-51174000D01*
X143464830Y-51160679D01*
X143408056Y-51122744D01*
X143370121Y-51065970D01*
X143356800Y-50999000D01*
X143356800Y-47349000D01*
X143370121Y-47282030D01*
X143408056Y-47225256D01*
X143464830Y-47187321D01*
X143531800Y-47174000D01*
X143881800Y-47174000D01*
X143948770Y-47187321D01*
G37*
G36*
X142948770Y-47187321D02*
G01*
X143005544Y-47225256D01*
X143043479Y-47282030D01*
X143056800Y-47349000D01*
X143056800Y-50999000D01*
X143043479Y-51065970D01*
X143005544Y-51122744D01*
X142948770Y-51160679D01*
X142881800Y-51174000D01*
X142531800Y-51174000D01*
X142464830Y-51160679D01*
X142408056Y-51122744D01*
X142370121Y-51065970D01*
X142356800Y-50999000D01*
X142356800Y-47349000D01*
X142370121Y-47282030D01*
X142408056Y-47225256D01*
X142464830Y-47187321D01*
X142531800Y-47174000D01*
X142881800Y-47174000D01*
X142948770Y-47187321D01*
G37*
G36*
X141948770Y-47187321D02*
G01*
X142005544Y-47225256D01*
X142043479Y-47282030D01*
X142056800Y-47349000D01*
X142056800Y-50999000D01*
X142043479Y-51065970D01*
X142005544Y-51122744D01*
X141948770Y-51160679D01*
X141881800Y-51174000D01*
X141531800Y-51174000D01*
X141464830Y-51160679D01*
X141408056Y-51122744D01*
X141370121Y-51065970D01*
X141356800Y-50999000D01*
X141356800Y-47349000D01*
X141370121Y-47282030D01*
X141408056Y-47225256D01*
X141464830Y-47187321D01*
X141531800Y-47174000D01*
X141881800Y-47174000D01*
X141948770Y-47187321D01*
G37*
G36*
X140948770Y-47187321D02*
G01*
X141005544Y-47225256D01*
X141043479Y-47282030D01*
X141056800Y-47349000D01*
X141056800Y-50999000D01*
X141043479Y-51065970D01*
X141005544Y-51122744D01*
X140948770Y-51160679D01*
X140881800Y-51174000D01*
X140531800Y-51174000D01*
X140464830Y-51160679D01*
X140408056Y-51122744D01*
X140370121Y-51065970D01*
X140356800Y-50999000D01*
X140356800Y-47349000D01*
X140370121Y-47282030D01*
X140408056Y-47225256D01*
X140464830Y-47187321D01*
X140531800Y-47174000D01*
X140881800Y-47174000D01*
X140948770Y-47187321D01*
G37*
G36*
X139948770Y-47187321D02*
G01*
X140005544Y-47225256D01*
X140043479Y-47282030D01*
X140056800Y-47349000D01*
X140056800Y-50999000D01*
X140043479Y-51065970D01*
X140005544Y-51122744D01*
X139948770Y-51160679D01*
X139881800Y-51174000D01*
X139531800Y-51174000D01*
X139464830Y-51160679D01*
X139408056Y-51122744D01*
X139370121Y-51065970D01*
X139356800Y-50999000D01*
X139356800Y-47349000D01*
X139370121Y-47282030D01*
X139408056Y-47225256D01*
X139464830Y-47187321D01*
X139531800Y-47174000D01*
X139881800Y-47174000D01*
X139948770Y-47187321D01*
G37*
G36*
X138948770Y-47187321D02*
G01*
X139005544Y-47225256D01*
X139043479Y-47282030D01*
X139056800Y-47349000D01*
X139056800Y-50999000D01*
X139043479Y-51065970D01*
X139005544Y-51122744D01*
X138948770Y-51160679D01*
X138881800Y-51174000D01*
X138531800Y-51174000D01*
X138464830Y-51160679D01*
X138408056Y-51122744D01*
X138370121Y-51065970D01*
X138356800Y-50999000D01*
X138356800Y-47349000D01*
X138370121Y-47282030D01*
X138408056Y-47225256D01*
X138464830Y-47187321D01*
X138531800Y-47174000D01*
X138881800Y-47174000D01*
X138948770Y-47187321D01*
G37*
G36*
X137948770Y-47187321D02*
G01*
X138005544Y-47225256D01*
X138043479Y-47282030D01*
X138056800Y-47349000D01*
X138056800Y-50999000D01*
X138043479Y-51065970D01*
X138005544Y-51122744D01*
X137948770Y-51160679D01*
X137881800Y-51174000D01*
X137531800Y-51174000D01*
X137464830Y-51160679D01*
X137408056Y-51122744D01*
X137370121Y-51065970D01*
X137356800Y-50999000D01*
X137356800Y-47349000D01*
X137370121Y-47282030D01*
X137408056Y-47225256D01*
X137464830Y-47187321D01*
X137531800Y-47174000D01*
X137881800Y-47174000D01*
X137948770Y-47187321D01*
G37*
G36*
X136948770Y-47187321D02*
G01*
X137005544Y-47225256D01*
X137043479Y-47282030D01*
X137056800Y-47349000D01*
X137056800Y-50999000D01*
X137043479Y-51065970D01*
X137005544Y-51122744D01*
X136948770Y-51160679D01*
X136881800Y-51174000D01*
X136531800Y-51174000D01*
X136464830Y-51160679D01*
X136408056Y-51122744D01*
X136370121Y-51065970D01*
X136356800Y-50999000D01*
X136356800Y-47349000D01*
X136370121Y-47282030D01*
X136408056Y-47225256D01*
X136464830Y-47187321D01*
X136531800Y-47174000D01*
X136881800Y-47174000D01*
X136948770Y-47187321D01*
G37*
G36*
X135948770Y-47187321D02*
G01*
X136005544Y-47225256D01*
X136043479Y-47282030D01*
X136056800Y-47349000D01*
X136056800Y-50999000D01*
X136043479Y-51065970D01*
X136005544Y-51122744D01*
X135948770Y-51160679D01*
X135881800Y-51174000D01*
X135531800Y-51174000D01*
X135464830Y-51160679D01*
X135408056Y-51122744D01*
X135370121Y-51065970D01*
X135356800Y-50999000D01*
X135356800Y-47349000D01*
X135370121Y-47282030D01*
X135408056Y-47225256D01*
X135464830Y-47187321D01*
X135531800Y-47174000D01*
X135881800Y-47174000D01*
X135948770Y-47187321D01*
G37*
G36*
X134948770Y-47187321D02*
G01*
X135005544Y-47225256D01*
X135043479Y-47282030D01*
X135056800Y-47349000D01*
X135056800Y-50999000D01*
X135043479Y-51065970D01*
X135005544Y-51122744D01*
X134948770Y-51160679D01*
X134881800Y-51174000D01*
X134531800Y-51174000D01*
X134464830Y-51160679D01*
X134408056Y-51122744D01*
X134370121Y-51065970D01*
X134356800Y-50999000D01*
X134356800Y-47349000D01*
X134370121Y-47282030D01*
X134408056Y-47225256D01*
X134464830Y-47187321D01*
X134531800Y-47174000D01*
X134881800Y-47174000D01*
X134948770Y-47187321D01*
G37*
G36*
X133948770Y-47187321D02*
G01*
X134005544Y-47225256D01*
X134043479Y-47282030D01*
X134056800Y-47349000D01*
X134056800Y-50999000D01*
X134043479Y-51065970D01*
X134005544Y-51122744D01*
X133948770Y-51160679D01*
X133881800Y-51174000D01*
X133531800Y-51174000D01*
X133464830Y-51160679D01*
X133408056Y-51122744D01*
X133370121Y-51065970D01*
X133356800Y-50999000D01*
X133356800Y-47349000D01*
X133370121Y-47282030D01*
X133408056Y-47225256D01*
X133464830Y-47187321D01*
X133531800Y-47174000D01*
X133881800Y-47174000D01*
X133948770Y-47187321D01*
G37*
G36*
X132948770Y-47187321D02*
G01*
X133005544Y-47225256D01*
X133043479Y-47282030D01*
X133056800Y-47349000D01*
X133056800Y-50999000D01*
X133043479Y-51065970D01*
X133005544Y-51122744D01*
X132948770Y-51160679D01*
X132881800Y-51174000D01*
X132531800Y-51174000D01*
X132464830Y-51160679D01*
X132408056Y-51122744D01*
X132370121Y-51065970D01*
X132356800Y-50999000D01*
X132356800Y-47349000D01*
X132370121Y-47282030D01*
X132408056Y-47225256D01*
X132464830Y-47187321D01*
X132531800Y-47174000D01*
X132881800Y-47174000D01*
X132948770Y-47187321D01*
G37*
G36*
X131948770Y-47187321D02*
G01*
X132005544Y-47225256D01*
X132043479Y-47282030D01*
X132056800Y-47349000D01*
X132056800Y-50999000D01*
X132043479Y-51065970D01*
X132005544Y-51122744D01*
X131948770Y-51160679D01*
X131881800Y-51174000D01*
X131531800Y-51174000D01*
X131464830Y-51160679D01*
X131408056Y-51122744D01*
X131370121Y-51065970D01*
X131356800Y-50999000D01*
X131356800Y-47349000D01*
X131370121Y-47282030D01*
X131408056Y-47225256D01*
X131464830Y-47187321D01*
X131531800Y-47174000D01*
X131881800Y-47174000D01*
X131948770Y-47187321D01*
G37*
G36*
X130948770Y-47187321D02*
G01*
X131005544Y-47225256D01*
X131043479Y-47282030D01*
X131056800Y-47349000D01*
X131056800Y-50999000D01*
X131043479Y-51065970D01*
X131005544Y-51122744D01*
X130948770Y-51160679D01*
X130881800Y-51174000D01*
X130531800Y-51174000D01*
X130464830Y-51160679D01*
X130408056Y-51122744D01*
X130370121Y-51065970D01*
X130356800Y-50999000D01*
X130356800Y-47349000D01*
X130370121Y-47282030D01*
X130408056Y-47225256D01*
X130464830Y-47187321D01*
X130531800Y-47174000D01*
X130881800Y-47174000D01*
X130948770Y-47187321D01*
G37*
G36*
X129948770Y-47187321D02*
G01*
X130005544Y-47225256D01*
X130043479Y-47282030D01*
X130056800Y-47349000D01*
X130056800Y-50999000D01*
X130043479Y-51065970D01*
X130005544Y-51122744D01*
X129948770Y-51160679D01*
X129881800Y-51174000D01*
X129531800Y-51174000D01*
X129464830Y-51160679D01*
X129408056Y-51122744D01*
X129370121Y-51065970D01*
X129356800Y-50999000D01*
X129356800Y-47349000D01*
X129370121Y-47282030D01*
X129408056Y-47225256D01*
X129464830Y-47187321D01*
X129531800Y-47174000D01*
X129881800Y-47174000D01*
X129948770Y-47187321D01*
G37*
G36*
X128948770Y-47187321D02*
G01*
X129005544Y-47225256D01*
X129043479Y-47282030D01*
X129056800Y-47349000D01*
X129056800Y-50999000D01*
X129043479Y-51065970D01*
X129005544Y-51122744D01*
X128948770Y-51160679D01*
X128881800Y-51174000D01*
X128531800Y-51174000D01*
X128464830Y-51160679D01*
X128408056Y-51122744D01*
X128370121Y-51065970D01*
X128356800Y-50999000D01*
X128356800Y-47349000D01*
X128370121Y-47282030D01*
X128408056Y-47225256D01*
X128464830Y-47187321D01*
X128531800Y-47174000D01*
X128881800Y-47174000D01*
X128948770Y-47187321D01*
G37*
G36*
X127948770Y-47187321D02*
G01*
X128005544Y-47225256D01*
X128043479Y-47282030D01*
X128056800Y-47349000D01*
X128056800Y-50999000D01*
X128043479Y-51065970D01*
X128005544Y-51122744D01*
X127948770Y-51160679D01*
X127881800Y-51174000D01*
X127531800Y-51174000D01*
X127464830Y-51160679D01*
X127408056Y-51122744D01*
X127370121Y-51065970D01*
X127356800Y-50999000D01*
X127356800Y-47349000D01*
X127370121Y-47282030D01*
X127408056Y-47225256D01*
X127464830Y-47187321D01*
X127531800Y-47174000D01*
X127881800Y-47174000D01*
X127948770Y-47187321D01*
G37*
G36*
X126948770Y-47187321D02*
G01*
X127005544Y-47225256D01*
X127043479Y-47282030D01*
X127056800Y-47349000D01*
X127056800Y-50999000D01*
X127043479Y-51065970D01*
X127005544Y-51122744D01*
X126948770Y-51160679D01*
X126881800Y-51174000D01*
X126531800Y-51174000D01*
X126464830Y-51160679D01*
X126408056Y-51122744D01*
X126370121Y-51065970D01*
X126356800Y-50999000D01*
X126356800Y-47349000D01*
X126370121Y-47282030D01*
X126408056Y-47225256D01*
X126464830Y-47187321D01*
X126531800Y-47174000D01*
X126881800Y-47174000D01*
X126948770Y-47187321D01*
G37*
G36*
X125948770Y-47187321D02*
G01*
X126005544Y-47225256D01*
X126043479Y-47282030D01*
X126056800Y-47349000D01*
X126056800Y-50999000D01*
X126043479Y-51065970D01*
X126005544Y-51122744D01*
X125948770Y-51160679D01*
X125881800Y-51174000D01*
X125531800Y-51174000D01*
X125464830Y-51160679D01*
X125408056Y-51122744D01*
X125370121Y-51065970D01*
X125356800Y-50999000D01*
X125356800Y-47349000D01*
X125370121Y-47282030D01*
X125408056Y-47225256D01*
X125464830Y-47187321D01*
X125531800Y-47174000D01*
X125881800Y-47174000D01*
X125948770Y-47187321D01*
G37*
G36*
X124948770Y-47187321D02*
G01*
X125005544Y-47225256D01*
X125043479Y-47282030D01*
X125056800Y-47349000D01*
X125056800Y-50999000D01*
X125043479Y-51065970D01*
X125005544Y-51122744D01*
X124948770Y-51160679D01*
X124881800Y-51174000D01*
X124531800Y-51174000D01*
X124464830Y-51160679D01*
X124408056Y-51122744D01*
X124370121Y-51065970D01*
X124356800Y-50999000D01*
X124356800Y-47349000D01*
X124370121Y-47282030D01*
X124408056Y-47225256D01*
X124464830Y-47187321D01*
X124531800Y-47174000D01*
X124881800Y-47174000D01*
X124948770Y-47187321D01*
G37*
G36*
X123948770Y-47187321D02*
G01*
X124005544Y-47225256D01*
X124043479Y-47282030D01*
X124056800Y-47349000D01*
X124056800Y-50999000D01*
X124043479Y-51065970D01*
X124005544Y-51122744D01*
X123948770Y-51160679D01*
X123881800Y-51174000D01*
X123531800Y-51174000D01*
X123464830Y-51160679D01*
X123408056Y-51122744D01*
X123370121Y-51065970D01*
X123356800Y-50999000D01*
X123356800Y-47349000D01*
X123370121Y-47282030D01*
X123408056Y-47225256D01*
X123464830Y-47187321D01*
X123531800Y-47174000D01*
X123881800Y-47174000D01*
X123948770Y-47187321D01*
G37*
G36*
X122948770Y-47187321D02*
G01*
X123005544Y-47225256D01*
X123043479Y-47282030D01*
X123056800Y-47349000D01*
X123056800Y-50999000D01*
X123043479Y-51065970D01*
X123005544Y-51122744D01*
X122948770Y-51160679D01*
X122881800Y-51174000D01*
X122531800Y-51174000D01*
X122464830Y-51160679D01*
X122408056Y-51122744D01*
X122370121Y-51065970D01*
X122356800Y-50999000D01*
X122356800Y-47349000D01*
X122370121Y-47282030D01*
X122408056Y-47225256D01*
X122464830Y-47187321D01*
X122531800Y-47174000D01*
X122881800Y-47174000D01*
X122948770Y-47187321D01*
G37*
G36*
X121948770Y-47187321D02*
G01*
X122005544Y-47225256D01*
X122043479Y-47282030D01*
X122056800Y-47349000D01*
X122056800Y-50999000D01*
X122043479Y-51065970D01*
X122005544Y-51122744D01*
X121948770Y-51160679D01*
X121881800Y-51174000D01*
X121531800Y-51174000D01*
X121464830Y-51160679D01*
X121408056Y-51122744D01*
X121370121Y-51065970D01*
X121356800Y-50999000D01*
X121356800Y-47349000D01*
X121370121Y-47282030D01*
X121408056Y-47225256D01*
X121464830Y-47187321D01*
X121531800Y-47174000D01*
X121881800Y-47174000D01*
X121948770Y-47187321D01*
G37*
G36*
X120948770Y-47187321D02*
G01*
X121005544Y-47225256D01*
X121043479Y-47282030D01*
X121056800Y-47349000D01*
X121056800Y-50999000D01*
X121043479Y-51065970D01*
X121005544Y-51122744D01*
X120948770Y-51160679D01*
X120881800Y-51174000D01*
X120531800Y-51174000D01*
X120464830Y-51160679D01*
X120408056Y-51122744D01*
X120370121Y-51065970D01*
X120356800Y-50999000D01*
X120356800Y-47349000D01*
X120370121Y-47282030D01*
X120408056Y-47225256D01*
X120464830Y-47187321D01*
X120531800Y-47174000D01*
X120881800Y-47174000D01*
X120948770Y-47187321D01*
G37*
G36*
X119948770Y-47187321D02*
G01*
X120005544Y-47225256D01*
X120043479Y-47282030D01*
X120056800Y-47349000D01*
X120056800Y-50999000D01*
X120043479Y-51065970D01*
X120005544Y-51122744D01*
X119948770Y-51160679D01*
X119881800Y-51174000D01*
X119531800Y-51174000D01*
X119464830Y-51160679D01*
X119408056Y-51122744D01*
X119370121Y-51065970D01*
X119356800Y-50999000D01*
X119356800Y-47349000D01*
X119370121Y-47282030D01*
X119408056Y-47225256D01*
X119464830Y-47187321D01*
X119531800Y-47174000D01*
X119881800Y-47174000D01*
X119948770Y-47187321D01*
G37*
G36*
X118948770Y-47187321D02*
G01*
X119005544Y-47225256D01*
X119043479Y-47282030D01*
X119056800Y-47349000D01*
X119056800Y-50999000D01*
X119043479Y-51065970D01*
X119005544Y-51122744D01*
X118948770Y-51160679D01*
X118881800Y-51174000D01*
X118531800Y-51174000D01*
X118464830Y-51160679D01*
X118408056Y-51122744D01*
X118370121Y-51065970D01*
X118356800Y-50999000D01*
X118356800Y-47349000D01*
X118370121Y-47282030D01*
X118408056Y-47225256D01*
X118464830Y-47187321D01*
X118531800Y-47174000D01*
X118881800Y-47174000D01*
X118948770Y-47187321D01*
G37*
G36*
X117948770Y-47187321D02*
G01*
X118005544Y-47225256D01*
X118043479Y-47282030D01*
X118056800Y-47349000D01*
X118056800Y-50999000D01*
X118043479Y-51065970D01*
X118005544Y-51122744D01*
X117948770Y-51160679D01*
X117881800Y-51174000D01*
X117531800Y-51174000D01*
X117464830Y-51160679D01*
X117408056Y-51122744D01*
X117370121Y-51065970D01*
X117356800Y-50999000D01*
X117356800Y-47349000D01*
X117370121Y-47282030D01*
X117408056Y-47225256D01*
X117464830Y-47187321D01*
X117531800Y-47174000D01*
X117881800Y-47174000D01*
X117948770Y-47187321D01*
G37*
G36*
X116948770Y-47187321D02*
G01*
X117005544Y-47225256D01*
X117043479Y-47282030D01*
X117056800Y-47349000D01*
X117056800Y-50999000D01*
X117043479Y-51065970D01*
X117005544Y-51122744D01*
X116948770Y-51160679D01*
X116881800Y-51174000D01*
X116531800Y-51174000D01*
X116464830Y-51160679D01*
X116408056Y-51122744D01*
X116370121Y-51065970D01*
X116356800Y-50999000D01*
X116356800Y-47349000D01*
X116370121Y-47282030D01*
X116408056Y-47225256D01*
X116464830Y-47187321D01*
X116531800Y-47174000D01*
X116881800Y-47174000D01*
X116948770Y-47187321D01*
G37*
G36*
X115948770Y-47187321D02*
G01*
X116005544Y-47225256D01*
X116043479Y-47282030D01*
X116056800Y-47349000D01*
X116056800Y-50999000D01*
X116043479Y-51065970D01*
X116005544Y-51122744D01*
X115948770Y-51160679D01*
X115881800Y-51174000D01*
X115531800Y-51174000D01*
X115464830Y-51160679D01*
X115408056Y-51122744D01*
X115370121Y-51065970D01*
X115356800Y-50999000D01*
X115356800Y-47349000D01*
X115370121Y-47282030D01*
X115408056Y-47225256D01*
X115464830Y-47187321D01*
X115531800Y-47174000D01*
X115881800Y-47174000D01*
X115948770Y-47187321D01*
G37*
G36*
X114948770Y-47187321D02*
G01*
X115005544Y-47225256D01*
X115043479Y-47282030D01*
X115056800Y-47349000D01*
X115056800Y-50999000D01*
X115043479Y-51065970D01*
X115005544Y-51122744D01*
X114948770Y-51160679D01*
X114881800Y-51174000D01*
X114531800Y-51174000D01*
X114464830Y-51160679D01*
X114408056Y-51122744D01*
X114370121Y-51065970D01*
X114356800Y-50999000D01*
X114356800Y-47349000D01*
X114370121Y-47282030D01*
X114408056Y-47225256D01*
X114464830Y-47187321D01*
X114531800Y-47174000D01*
X114881800Y-47174000D01*
X114948770Y-47187321D01*
G37*
G36*
X113948770Y-47187321D02*
G01*
X114005544Y-47225256D01*
X114043479Y-47282030D01*
X114056800Y-47349000D01*
X114056800Y-50999000D01*
X114043479Y-51065970D01*
X114005544Y-51122744D01*
X113948770Y-51160679D01*
X113881800Y-51174000D01*
X113531800Y-51174000D01*
X113464830Y-51160679D01*
X113408056Y-51122744D01*
X113370121Y-51065970D01*
X113356800Y-50999000D01*
X113356800Y-47349000D01*
X113370121Y-47282030D01*
X113408056Y-47225256D01*
X113464830Y-47187321D01*
X113531800Y-47174000D01*
X113881800Y-47174000D01*
X113948770Y-47187321D01*
G37*
G36*
X112948770Y-47187321D02*
G01*
X113005544Y-47225256D01*
X113043479Y-47282030D01*
X113056800Y-47349000D01*
X113056800Y-50999000D01*
X113043479Y-51065970D01*
X113005544Y-51122744D01*
X112948770Y-51160679D01*
X112881800Y-51174000D01*
X112531800Y-51174000D01*
X112464830Y-51160679D01*
X112408056Y-51122744D01*
X112370121Y-51065970D01*
X112356800Y-50999000D01*
X112356800Y-47349000D01*
X112370121Y-47282030D01*
X112408056Y-47225256D01*
X112464830Y-47187321D01*
X112531800Y-47174000D01*
X112881800Y-47174000D01*
X112948770Y-47187321D01*
G37*
G36*
X111948770Y-47187321D02*
G01*
X112005544Y-47225256D01*
X112043479Y-47282030D01*
X112056800Y-47349000D01*
X112056800Y-50999000D01*
X112043479Y-51065970D01*
X112005544Y-51122744D01*
X111948770Y-51160679D01*
X111881800Y-51174000D01*
X111531800Y-51174000D01*
X111464830Y-51160679D01*
X111408056Y-51122744D01*
X111370121Y-51065970D01*
X111356800Y-50999000D01*
X111356800Y-47349000D01*
X111370121Y-47282030D01*
X111408056Y-47225256D01*
X111464830Y-47187321D01*
X111531800Y-47174000D01*
X111881800Y-47174000D01*
X111948770Y-47187321D01*
G37*
G36*
X110948770Y-47187321D02*
G01*
X111005544Y-47225256D01*
X111043479Y-47282030D01*
X111056800Y-47349000D01*
X111056800Y-50999000D01*
X111043479Y-51065970D01*
X111005544Y-51122744D01*
X110948770Y-51160679D01*
X110881800Y-51174000D01*
X110531800Y-51174000D01*
X110464830Y-51160679D01*
X110408056Y-51122744D01*
X110370121Y-51065970D01*
X110356800Y-50999000D01*
X110356800Y-47349000D01*
X110370121Y-47282030D01*
X110408056Y-47225256D01*
X110464830Y-47187321D01*
X110531800Y-47174000D01*
X110881800Y-47174000D01*
X110948770Y-47187321D01*
G37*
G36*
X109948770Y-47187321D02*
G01*
X110005544Y-47225256D01*
X110043479Y-47282030D01*
X110056800Y-47349000D01*
X110056800Y-50999000D01*
X110043479Y-51065970D01*
X110005544Y-51122744D01*
X109948770Y-51160679D01*
X109881800Y-51174000D01*
X109531800Y-51174000D01*
X109464830Y-51160679D01*
X109408056Y-51122744D01*
X109370121Y-51065970D01*
X109356800Y-50999000D01*
X109356800Y-47349000D01*
X109370121Y-47282030D01*
X109408056Y-47225256D01*
X109464830Y-47187321D01*
X109531800Y-47174000D01*
X109881800Y-47174000D01*
X109948770Y-47187321D01*
G37*
G36*
X108948770Y-47187321D02*
G01*
X109005544Y-47225256D01*
X109043479Y-47282030D01*
X109056800Y-47349000D01*
X109056800Y-50999000D01*
X109043479Y-51065970D01*
X109005544Y-51122744D01*
X108948770Y-51160679D01*
X108881800Y-51174000D01*
X108531800Y-51174000D01*
X108464830Y-51160679D01*
X108408056Y-51122744D01*
X108370121Y-51065970D01*
X108356800Y-50999000D01*
X108356800Y-47349000D01*
X108370121Y-47282030D01*
X108408056Y-47225256D01*
X108464830Y-47187321D01*
X108531800Y-47174000D01*
X108881800Y-47174000D01*
X108948770Y-47187321D01*
G37*
G36*
X105948770Y-47187321D02*
G01*
X106005544Y-47225256D01*
X106043479Y-47282030D01*
X106056800Y-47349000D01*
X106056800Y-50999000D01*
X106043479Y-51065970D01*
X106005544Y-51122744D01*
X105948770Y-51160679D01*
X105881800Y-51174000D01*
X105531800Y-51174000D01*
X105464830Y-51160679D01*
X105408056Y-51122744D01*
X105370121Y-51065970D01*
X105356800Y-50999000D01*
X105356800Y-47349000D01*
X105370121Y-47282030D01*
X105408056Y-47225256D01*
X105464830Y-47187321D01*
X105531800Y-47174000D01*
X105881800Y-47174000D01*
X105948770Y-47187321D01*
G37*
G36*
X104948770Y-47187321D02*
G01*
X105005544Y-47225256D01*
X105043479Y-47282030D01*
X105056800Y-47349000D01*
X105056800Y-50999000D01*
X105043479Y-51065970D01*
X105005544Y-51122744D01*
X104948770Y-51160679D01*
X104881800Y-51174000D01*
X104531800Y-51174000D01*
X104464830Y-51160679D01*
X104408056Y-51122744D01*
X104370121Y-51065970D01*
X104356800Y-50999000D01*
X104356800Y-47349000D01*
X104370121Y-47282030D01*
X104408056Y-47225256D01*
X104464830Y-47187321D01*
X104531800Y-47174000D01*
X104881800Y-47174000D01*
X104948770Y-47187321D01*
G37*
G36*
X103948770Y-47187321D02*
G01*
X104005544Y-47225256D01*
X104043479Y-47282030D01*
X104056800Y-47349000D01*
X104056800Y-50999000D01*
X104043479Y-51065970D01*
X104005544Y-51122744D01*
X103948770Y-51160679D01*
X103881800Y-51174000D01*
X103531800Y-51174000D01*
X103464830Y-51160679D01*
X103408056Y-51122744D01*
X103370121Y-51065970D01*
X103356800Y-50999000D01*
X103356800Y-47349000D01*
X103370121Y-47282030D01*
X103408056Y-47225256D01*
X103464830Y-47187321D01*
X103531800Y-47174000D01*
X103881800Y-47174000D01*
X103948770Y-47187321D01*
G37*
G36*
X102948770Y-47187321D02*
G01*
X103005544Y-47225256D01*
X103043479Y-47282030D01*
X103056800Y-47349000D01*
X103056800Y-50999000D01*
X103043479Y-51065970D01*
X103005544Y-51122744D01*
X102948770Y-51160679D01*
X102881800Y-51174000D01*
X102531800Y-51174000D01*
X102464830Y-51160679D01*
X102408056Y-51122744D01*
X102370121Y-51065970D01*
X102356800Y-50999000D01*
X102356800Y-47349000D01*
X102370121Y-47282030D01*
X102408056Y-47225256D01*
X102464830Y-47187321D01*
X102531800Y-47174000D01*
X102881800Y-47174000D01*
X102948770Y-47187321D01*
G37*
G36*
X101948770Y-47187321D02*
G01*
X102005544Y-47225256D01*
X102043479Y-47282030D01*
X102056800Y-47349000D01*
X102056800Y-50999000D01*
X102043479Y-51065970D01*
X102005544Y-51122744D01*
X101948770Y-51160679D01*
X101881800Y-51174000D01*
X101531800Y-51174000D01*
X101464830Y-51160679D01*
X101408056Y-51122744D01*
X101370121Y-51065970D01*
X101356800Y-50999000D01*
X101356800Y-47349000D01*
X101370121Y-47282030D01*
X101408056Y-47225256D01*
X101464830Y-47187321D01*
X101531800Y-47174000D01*
X101881800Y-47174000D01*
X101948770Y-47187321D01*
G37*
G36*
X100948770Y-47187321D02*
G01*
X101005544Y-47225256D01*
X101043479Y-47282030D01*
X101056800Y-47349000D01*
X101056800Y-50999000D01*
X101043479Y-51065970D01*
X101005544Y-51122744D01*
X100948770Y-51160679D01*
X100881800Y-51174000D01*
X100531800Y-51174000D01*
X100464830Y-51160679D01*
X100408056Y-51122744D01*
X100370121Y-51065970D01*
X100356800Y-50999000D01*
X100356800Y-47349000D01*
X100370121Y-47282030D01*
X100408056Y-47225256D01*
X100464830Y-47187321D01*
X100531800Y-47174000D01*
X100881800Y-47174000D01*
X100948770Y-47187321D01*
G37*
G36*
X99948770Y-47187321D02*
G01*
X100005544Y-47225256D01*
X100043479Y-47282030D01*
X100056800Y-47349000D01*
X100056800Y-50999000D01*
X100043479Y-51065970D01*
X100005544Y-51122744D01*
X99948770Y-51160679D01*
X99881800Y-51174000D01*
X99531800Y-51174000D01*
X99464830Y-51160679D01*
X99408056Y-51122744D01*
X99370121Y-51065970D01*
X99356800Y-50999000D01*
X99356800Y-47349000D01*
X99370121Y-47282030D01*
X99408056Y-47225256D01*
X99464830Y-47187321D01*
X99531800Y-47174000D01*
X99881800Y-47174000D01*
X99948770Y-47187321D01*
G37*
G36*
X98948770Y-47187321D02*
G01*
X99005544Y-47225256D01*
X99043479Y-47282030D01*
X99056800Y-47349000D01*
X99056800Y-50999000D01*
X99043479Y-51065970D01*
X99005544Y-51122744D01*
X98948770Y-51160679D01*
X98881800Y-51174000D01*
X98531800Y-51174000D01*
X98464830Y-51160679D01*
X98408056Y-51122744D01*
X98370121Y-51065970D01*
X98356800Y-50999000D01*
X98356800Y-47349000D01*
X98370121Y-47282030D01*
X98408056Y-47225256D01*
X98464830Y-47187321D01*
X98531800Y-47174000D01*
X98881800Y-47174000D01*
X98948770Y-47187321D01*
G37*
G36*
X97948770Y-47187321D02*
G01*
X98005544Y-47225256D01*
X98043479Y-47282030D01*
X98056800Y-47349000D01*
X98056800Y-50999000D01*
X98043479Y-51065970D01*
X98005544Y-51122744D01*
X97948770Y-51160679D01*
X97881800Y-51174000D01*
X97531800Y-51174000D01*
X97464830Y-51160679D01*
X97408056Y-51122744D01*
X97370121Y-51065970D01*
X97356800Y-50999000D01*
X97356800Y-47349000D01*
X97370121Y-47282030D01*
X97408056Y-47225256D01*
X97464830Y-47187321D01*
X97531800Y-47174000D01*
X97881800Y-47174000D01*
X97948770Y-47187321D01*
G37*
G36*
X96948770Y-47187321D02*
G01*
X97005544Y-47225256D01*
X97043479Y-47282030D01*
X97056800Y-47349000D01*
X97056800Y-50999000D01*
X97043479Y-51065970D01*
X97005544Y-51122744D01*
X96948770Y-51160679D01*
X96881800Y-51174000D01*
X96531800Y-51174000D01*
X96464830Y-51160679D01*
X96408056Y-51122744D01*
X96370121Y-51065970D01*
X96356800Y-50999000D01*
X96356800Y-47349000D01*
X96370121Y-47282030D01*
X96408056Y-47225256D01*
X96464830Y-47187321D01*
X96531800Y-47174000D01*
X96881800Y-47174000D01*
X96948770Y-47187321D01*
G37*
G36*
X95948770Y-47187321D02*
G01*
X96005544Y-47225256D01*
X96043479Y-47282030D01*
X96056800Y-47349000D01*
X96056800Y-50999000D01*
X96043479Y-51065970D01*
X96005544Y-51122744D01*
X95948770Y-51160679D01*
X95881800Y-51174000D01*
X95531800Y-51174000D01*
X95464830Y-51160679D01*
X95408056Y-51122744D01*
X95370121Y-51065970D01*
X95356800Y-50999000D01*
X95356800Y-47349000D01*
X95370121Y-47282030D01*
X95408056Y-47225256D01*
X95464830Y-47187321D01*
X95531800Y-47174000D01*
X95881800Y-47174000D01*
X95948770Y-47187321D01*
G37*
G36*
X37042962Y-33839151D02*
G01*
X37113930Y-33886570D01*
X37161349Y-33957538D01*
X37178000Y-34041250D01*
X37178000Y-34478750D01*
X37161349Y-34562462D01*
X37113930Y-34633430D01*
X37042962Y-34680849D01*
X36959250Y-34697500D01*
X36446750Y-34697500D01*
X36363038Y-34680849D01*
X36292070Y-34633430D01*
X36244651Y-34562462D01*
X36228000Y-34478750D01*
X36228000Y-34041250D01*
X36244651Y-33957538D01*
X36292070Y-33886570D01*
X36363038Y-33839151D01*
X36446750Y-33822500D01*
X36959250Y-33822500D01*
X37042962Y-33839151D01*
G37*
G36*
X37042962Y-35414151D02*
G01*
X37113930Y-35461570D01*
X37161349Y-35532538D01*
X37178000Y-35616250D01*
X37178000Y-36053750D01*
X37161349Y-36137462D01*
X37113930Y-36208430D01*
X37042962Y-36255849D01*
X36959250Y-36272500D01*
X36446750Y-36272500D01*
X36363038Y-36255849D01*
X36292070Y-36208430D01*
X36244651Y-36137462D01*
X36228000Y-36053750D01*
X36228000Y-35616250D01*
X36244651Y-35532538D01*
X36292070Y-35461570D01*
X36363038Y-35414151D01*
X36446750Y-35397500D01*
X36959250Y-35397500D01*
X37042962Y-35414151D01*
G37*
G36*
X35518962Y-32823151D02*
G01*
X35589930Y-32870570D01*
X35637349Y-32941538D01*
X35654000Y-33025250D01*
X35654000Y-33462750D01*
X35637349Y-33546462D01*
X35589930Y-33617430D01*
X35518962Y-33664849D01*
X35435250Y-33681500D01*
X34922750Y-33681500D01*
X34839038Y-33664849D01*
X34768070Y-33617430D01*
X34720651Y-33546462D01*
X34704000Y-33462750D01*
X34704000Y-33025250D01*
X34720651Y-32941538D01*
X34768070Y-32870570D01*
X34839038Y-32823151D01*
X34922750Y-32806500D01*
X35435250Y-32806500D01*
X35518962Y-32823151D01*
G37*
G36*
X35518962Y-34398151D02*
G01*
X35589930Y-34445570D01*
X35637349Y-34516538D01*
X35654000Y-34600250D01*
X35654000Y-35037750D01*
X35637349Y-35121462D01*
X35589930Y-35192430D01*
X35518962Y-35239849D01*
X35435250Y-35256500D01*
X34922750Y-35256500D01*
X34839038Y-35239849D01*
X34768070Y-35192430D01*
X34720651Y-35121462D01*
X34704000Y-35037750D01*
X34704000Y-34600250D01*
X34720651Y-34516538D01*
X34768070Y-34445570D01*
X34839038Y-34398151D01*
X34922750Y-34381500D01*
X35435250Y-34381500D01*
X35518962Y-34398151D01*
G37*
G36*
X70050862Y-61487651D02*
G01*
X70121830Y-61535070D01*
X70169249Y-61606038D01*
X70185900Y-61689750D01*
X70185900Y-62202250D01*
X70169249Y-62285962D01*
X70121830Y-62356930D01*
X70050862Y-62404349D01*
X69967150Y-62421000D01*
X69529650Y-62421000D01*
X69445938Y-62404349D01*
X69374970Y-62356930D01*
X69327551Y-62285962D01*
X69310900Y-62202250D01*
X69310900Y-61689750D01*
X69327551Y-61606038D01*
X69374970Y-61535070D01*
X69445938Y-61487651D01*
X69529650Y-61471000D01*
X69967150Y-61471000D01*
X70050862Y-61487651D01*
G37*
G36*
X68475862Y-61487651D02*
G01*
X68546830Y-61535070D01*
X68594249Y-61606038D01*
X68610900Y-61689750D01*
X68610900Y-62202250D01*
X68594249Y-62285962D01*
X68546830Y-62356930D01*
X68475862Y-62404349D01*
X68392150Y-62421000D01*
X67954650Y-62421000D01*
X67870938Y-62404349D01*
X67799970Y-62356930D01*
X67752551Y-62285962D01*
X67735900Y-62202250D01*
X67735900Y-61689750D01*
X67752551Y-61606038D01*
X67799970Y-61535070D01*
X67870938Y-61487651D01*
X67954650Y-61471000D01*
X68392150Y-61471000D01*
X68475862Y-61487651D01*
G37*
G36*
X68984262Y-59938251D02*
G01*
X69055230Y-59985670D01*
X69102649Y-60056638D01*
X69119300Y-60140350D01*
X69119300Y-60652850D01*
X69102649Y-60736562D01*
X69055230Y-60807530D01*
X68984262Y-60854949D01*
X68900550Y-60871600D01*
X68463050Y-60871600D01*
X68379338Y-60854949D01*
X68308370Y-60807530D01*
X68260951Y-60736562D01*
X68244300Y-60652850D01*
X68244300Y-60140350D01*
X68260951Y-60056638D01*
X68308370Y-59985670D01*
X68379338Y-59938251D01*
X68463050Y-59921600D01*
X68900550Y-59921600D01*
X68984262Y-59938251D01*
G37*
G36*
X67409262Y-59938251D02*
G01*
X67480230Y-59985670D01*
X67527649Y-60056638D01*
X67544300Y-60140350D01*
X67544300Y-60652850D01*
X67527649Y-60736562D01*
X67480230Y-60807530D01*
X67409262Y-60854949D01*
X67325550Y-60871600D01*
X66888050Y-60871600D01*
X66804338Y-60854949D01*
X66733370Y-60807530D01*
X66685951Y-60736562D01*
X66669300Y-60652850D01*
X66669300Y-60140350D01*
X66685951Y-60056638D01*
X66733370Y-59985670D01*
X66804338Y-59938251D01*
X66888050Y-59921600D01*
X67325550Y-59921600D01*
X67409262Y-59938251D01*
G37*
G36*
X32597671Y-51033530D02*
G01*
X32678777Y-51087723D01*
X32732970Y-51168829D01*
X32752000Y-51264500D01*
X32752000Y-52014500D01*
X32732970Y-52110171D01*
X32678777Y-52191277D01*
X32597671Y-52245470D01*
X32502000Y-52264500D01*
X31252000Y-52264500D01*
X31156329Y-52245470D01*
X31075223Y-52191277D01*
X31021030Y-52110171D01*
X31002000Y-52014500D01*
X31002000Y-51264500D01*
X31021030Y-51168829D01*
X31075223Y-51087723D01*
X31156329Y-51033530D01*
X31252000Y-51014500D01*
X32502000Y-51014500D01*
X32597671Y-51033530D01*
G37*
G36*
X32597671Y-48233530D02*
G01*
X32678777Y-48287723D01*
X32732970Y-48368829D01*
X32752000Y-48464500D01*
X32752000Y-49214500D01*
X32732970Y-49310171D01*
X32678777Y-49391277D01*
X32597671Y-49445470D01*
X32502000Y-49464500D01*
X31252000Y-49464500D01*
X31156329Y-49445470D01*
X31075223Y-49391277D01*
X31021030Y-49310171D01*
X31002000Y-49214500D01*
X31002000Y-48464500D01*
X31021030Y-48368829D01*
X31075223Y-48287723D01*
X31156329Y-48233530D01*
X31252000Y-48214500D01*
X32502000Y-48214500D01*
X32597671Y-48233530D01*
G37*
G36*
X51140671Y-56264030D02*
G01*
X51221777Y-56318223D01*
X51275970Y-56399329D01*
X51295000Y-56495000D01*
X51295000Y-57745000D01*
X51275970Y-57840671D01*
X51221777Y-57921777D01*
X51140671Y-57975970D01*
X51045000Y-57995000D01*
X50295000Y-57995000D01*
X50199329Y-57975970D01*
X50118223Y-57921777D01*
X50064030Y-57840671D01*
X50045000Y-57745000D01*
X50045000Y-56495000D01*
X50064030Y-56399329D01*
X50118223Y-56318223D01*
X50199329Y-56264030D01*
X50295000Y-56245000D01*
X51045000Y-56245000D01*
X51140671Y-56264030D01*
G37*
G36*
X53940671Y-56264030D02*
G01*
X54021777Y-56318223D01*
X54075970Y-56399329D01*
X54095000Y-56495000D01*
X54095000Y-57745000D01*
X54075970Y-57840671D01*
X54021777Y-57921777D01*
X53940671Y-57975970D01*
X53845000Y-57995000D01*
X53095000Y-57995000D01*
X52999329Y-57975970D01*
X52918223Y-57921777D01*
X52864030Y-57840671D01*
X52845000Y-57745000D01*
X52845000Y-56495000D01*
X52864030Y-56399329D01*
X52918223Y-56318223D01*
X52999329Y-56264030D01*
X53095000Y-56245000D01*
X53845000Y-56245000D01*
X53940671Y-56264030D01*
G37*
G36*
X35026946Y-49574228D02*
G01*
X35074798Y-49606202D01*
X35106772Y-49654054D01*
X35118000Y-49710500D01*
X35118000Y-50005500D01*
X35106772Y-50061946D01*
X35074798Y-50109798D01*
X35026946Y-50141772D01*
X34970500Y-50153000D01*
X34625500Y-50153000D01*
X34569054Y-50141772D01*
X34521202Y-50109798D01*
X34489228Y-50061946D01*
X34478000Y-50005500D01*
X34478000Y-49710500D01*
X34489228Y-49654054D01*
X34521202Y-49606202D01*
X34569054Y-49574228D01*
X34625500Y-49563000D01*
X34970500Y-49563000D01*
X35026946Y-49574228D01*
G37*
G36*
X35026946Y-48604228D02*
G01*
X35074798Y-48636202D01*
X35106772Y-48684054D01*
X35118000Y-48740500D01*
X35118000Y-49035500D01*
X35106772Y-49091946D01*
X35074798Y-49139798D01*
X35026946Y-49171772D01*
X34970500Y-49183000D01*
X34625500Y-49183000D01*
X34569054Y-49171772D01*
X34521202Y-49139798D01*
X34489228Y-49091946D01*
X34478000Y-49035500D01*
X34478000Y-48740500D01*
X34489228Y-48684054D01*
X34521202Y-48636202D01*
X34569054Y-48604228D01*
X34625500Y-48593000D01*
X34970500Y-48593000D01*
X35026946Y-48604228D01*
G37*
G36*
X15468946Y-72434228D02*
G01*
X15516798Y-72466202D01*
X15548772Y-72514054D01*
X15560000Y-72570500D01*
X15560000Y-72865500D01*
X15548772Y-72921946D01*
X15516798Y-72969798D01*
X15468946Y-73001772D01*
X15412500Y-73013000D01*
X15067500Y-73013000D01*
X15011054Y-73001772D01*
X14963202Y-72969798D01*
X14931228Y-72921946D01*
X14920000Y-72865500D01*
X14920000Y-72570500D01*
X14931228Y-72514054D01*
X14963202Y-72466202D01*
X15011054Y-72434228D01*
X15067500Y-72423000D01*
X15412500Y-72423000D01*
X15468946Y-72434228D01*
G37*
G36*
X15468946Y-71464228D02*
G01*
X15516798Y-71496202D01*
X15548772Y-71544054D01*
X15560000Y-71600500D01*
X15560000Y-71895500D01*
X15548772Y-71951946D01*
X15516798Y-71999798D01*
X15468946Y-72031772D01*
X15412500Y-72043000D01*
X15067500Y-72043000D01*
X15011054Y-72031772D01*
X14963202Y-71999798D01*
X14931228Y-71951946D01*
X14920000Y-71895500D01*
X14920000Y-71600500D01*
X14931228Y-71544054D01*
X14963202Y-71496202D01*
X15011054Y-71464228D01*
X15067500Y-71453000D01*
X15412500Y-71453000D01*
X15468946Y-71464228D01*
G37*
G36*
X62331946Y-63267228D02*
G01*
X62379798Y-63299202D01*
X62411772Y-63347054D01*
X62423000Y-63403500D01*
X62423000Y-63698500D01*
X62411772Y-63754946D01*
X62379798Y-63802798D01*
X62331946Y-63834772D01*
X62275500Y-63846000D01*
X61930500Y-63846000D01*
X61874054Y-63834772D01*
X61826202Y-63802798D01*
X61794228Y-63754946D01*
X61783000Y-63698500D01*
X61783000Y-63403500D01*
X61794228Y-63347054D01*
X61826202Y-63299202D01*
X61874054Y-63267228D01*
X61930500Y-63256000D01*
X62275500Y-63256000D01*
X62331946Y-63267228D01*
G37*
G36*
X62331946Y-62297228D02*
G01*
X62379798Y-62329202D01*
X62411772Y-62377054D01*
X62423000Y-62433500D01*
X62423000Y-62728500D01*
X62411772Y-62784946D01*
X62379798Y-62832798D01*
X62331946Y-62864772D01*
X62275500Y-62876000D01*
X61930500Y-62876000D01*
X61874054Y-62864772D01*
X61826202Y-62832798D01*
X61794228Y-62784946D01*
X61783000Y-62728500D01*
X61783000Y-62433500D01*
X61794228Y-62377054D01*
X61826202Y-62329202D01*
X61874054Y-62297228D01*
X61930500Y-62286000D01*
X62275500Y-62286000D01*
X62331946Y-62297228D01*
G37*
G36*
X34493946Y-40529728D02*
G01*
X34541798Y-40561702D01*
X34573772Y-40609554D01*
X34585000Y-40666000D01*
X34585000Y-41011000D01*
X34573772Y-41067446D01*
X34541798Y-41115298D01*
X34493946Y-41147272D01*
X34437500Y-41158500D01*
X34142500Y-41158500D01*
X34086054Y-41147272D01*
X34038202Y-41115298D01*
X34006228Y-41067446D01*
X33995000Y-41011000D01*
X33995000Y-40666000D01*
X34006228Y-40609554D01*
X34038202Y-40561702D01*
X34086054Y-40529728D01*
X34142500Y-40518500D01*
X34437500Y-40518500D01*
X34493946Y-40529728D01*
G37*
G36*
X33523946Y-40529728D02*
G01*
X33571798Y-40561702D01*
X33603772Y-40609554D01*
X33615000Y-40666000D01*
X33615000Y-41011000D01*
X33603772Y-41067446D01*
X33571798Y-41115298D01*
X33523946Y-41147272D01*
X33467500Y-41158500D01*
X33172500Y-41158500D01*
X33116054Y-41147272D01*
X33068202Y-41115298D01*
X33036228Y-41067446D01*
X33025000Y-41011000D01*
X33025000Y-40666000D01*
X33036228Y-40609554D01*
X33068202Y-40561702D01*
X33116054Y-40529728D01*
X33172500Y-40518500D01*
X33467500Y-40518500D01*
X33523946Y-40529728D01*
G37*
G36*
X38455946Y-42078728D02*
G01*
X38503798Y-42110702D01*
X38535772Y-42158554D01*
X38547000Y-42215000D01*
X38547000Y-42510000D01*
X38535772Y-42566446D01*
X38503798Y-42614298D01*
X38455946Y-42646272D01*
X38399500Y-42657500D01*
X38054500Y-42657500D01*
X37998054Y-42646272D01*
X37950202Y-42614298D01*
X37918228Y-42566446D01*
X37907000Y-42510000D01*
X37907000Y-42215000D01*
X37918228Y-42158554D01*
X37950202Y-42110702D01*
X37998054Y-42078728D01*
X38054500Y-42067500D01*
X38399500Y-42067500D01*
X38455946Y-42078728D01*
G37*
G36*
X38455946Y-43048728D02*
G01*
X38503798Y-43080702D01*
X38535772Y-43128554D01*
X38547000Y-43185000D01*
X38547000Y-43480000D01*
X38535772Y-43536446D01*
X38503798Y-43584298D01*
X38455946Y-43616272D01*
X38399500Y-43627500D01*
X38054500Y-43627500D01*
X37998054Y-43616272D01*
X37950202Y-43584298D01*
X37918228Y-43536446D01*
X37907000Y-43480000D01*
X37907000Y-43185000D01*
X37918228Y-43128554D01*
X37950202Y-43080702D01*
X37998054Y-43048728D01*
X38054500Y-43037500D01*
X38399500Y-43037500D01*
X38455946Y-43048728D01*
G37*
G36*
X60404446Y-63161228D02*
G01*
X60452298Y-63193202D01*
X60484272Y-63241054D01*
X60495500Y-63297500D01*
X60495500Y-63642500D01*
X60484272Y-63698946D01*
X60452298Y-63746798D01*
X60404446Y-63778772D01*
X60348000Y-63790000D01*
X60053000Y-63790000D01*
X59996554Y-63778772D01*
X59948702Y-63746798D01*
X59916728Y-63698946D01*
X59905500Y-63642500D01*
X59905500Y-63297500D01*
X59916728Y-63241054D01*
X59948702Y-63193202D01*
X59996554Y-63161228D01*
X60053000Y-63150000D01*
X60348000Y-63150000D01*
X60404446Y-63161228D01*
G37*
G36*
X59434446Y-63161228D02*
G01*
X59482298Y-63193202D01*
X59514272Y-63241054D01*
X59525500Y-63297500D01*
X59525500Y-63642500D01*
X59514272Y-63698946D01*
X59482298Y-63746798D01*
X59434446Y-63778772D01*
X59378000Y-63790000D01*
X59083000Y-63790000D01*
X59026554Y-63778772D01*
X58978702Y-63746798D01*
X58946728Y-63698946D01*
X58935500Y-63642500D01*
X58935500Y-63297500D01*
X58946728Y-63241054D01*
X58978702Y-63193202D01*
X59026554Y-63161228D01*
X59083000Y-63150000D01*
X59378000Y-63150000D01*
X59434446Y-63161228D01*
G37*
G36*
X30810946Y-83862228D02*
G01*
X30858798Y-83894202D01*
X30890772Y-83942054D01*
X30902000Y-83998500D01*
X30902000Y-84343500D01*
X30890772Y-84399946D01*
X30858798Y-84447798D01*
X30810946Y-84479772D01*
X30754500Y-84491000D01*
X30459500Y-84491000D01*
X30403054Y-84479772D01*
X30355202Y-84447798D01*
X30323228Y-84399946D01*
X30312000Y-84343500D01*
X30312000Y-83998500D01*
X30323228Y-83942054D01*
X30355202Y-83894202D01*
X30403054Y-83862228D01*
X30459500Y-83851000D01*
X30754500Y-83851000D01*
X30810946Y-83862228D01*
G37*
G36*
X29840946Y-83862228D02*
G01*
X29888798Y-83894202D01*
X29920772Y-83942054D01*
X29932000Y-83998500D01*
X29932000Y-84343500D01*
X29920772Y-84399946D01*
X29888798Y-84447798D01*
X29840946Y-84479772D01*
X29784500Y-84491000D01*
X29489500Y-84491000D01*
X29433054Y-84479772D01*
X29385202Y-84447798D01*
X29353228Y-84399946D01*
X29342000Y-84343500D01*
X29342000Y-83998500D01*
X29353228Y-83942054D01*
X29385202Y-83894202D01*
X29433054Y-83862228D01*
X29489500Y-83851000D01*
X29784500Y-83851000D01*
X29840946Y-83862228D01*
G37*
G36*
X38455946Y-47008728D02*
G01*
X38503798Y-47040702D01*
X38535772Y-47088554D01*
X38547000Y-47145000D01*
X38547000Y-47440000D01*
X38535772Y-47496446D01*
X38503798Y-47544298D01*
X38455946Y-47576272D01*
X38399500Y-47587500D01*
X38054500Y-47587500D01*
X37998054Y-47576272D01*
X37950202Y-47544298D01*
X37918228Y-47496446D01*
X37907000Y-47440000D01*
X37907000Y-47145000D01*
X37918228Y-47088554D01*
X37950202Y-47040702D01*
X37998054Y-47008728D01*
X38054500Y-46997500D01*
X38399500Y-46997500D01*
X38455946Y-47008728D01*
G37*
G36*
X38455946Y-46038728D02*
G01*
X38503798Y-46070702D01*
X38535772Y-46118554D01*
X38547000Y-46175000D01*
X38547000Y-46470000D01*
X38535772Y-46526446D01*
X38503798Y-46574298D01*
X38455946Y-46606272D01*
X38399500Y-46617500D01*
X38054500Y-46617500D01*
X37998054Y-46606272D01*
X37950202Y-46574298D01*
X37918228Y-46526446D01*
X37907000Y-46470000D01*
X37907000Y-46175000D01*
X37918228Y-46118554D01*
X37950202Y-46070702D01*
X37998054Y-46038728D01*
X38054500Y-46027500D01*
X38399500Y-46027500D01*
X38455946Y-46038728D01*
G37*
G36*
X55774446Y-63161228D02*
G01*
X55822298Y-63193202D01*
X55854272Y-63241054D01*
X55865500Y-63297500D01*
X55865500Y-63642500D01*
X55854272Y-63698946D01*
X55822298Y-63746798D01*
X55774446Y-63778772D01*
X55718000Y-63790000D01*
X55423000Y-63790000D01*
X55366554Y-63778772D01*
X55318702Y-63746798D01*
X55286728Y-63698946D01*
X55275500Y-63642500D01*
X55275500Y-63297500D01*
X55286728Y-63241054D01*
X55318702Y-63193202D01*
X55366554Y-63161228D01*
X55423000Y-63150000D01*
X55718000Y-63150000D01*
X55774446Y-63161228D01*
G37*
G36*
X56744446Y-63161228D02*
G01*
X56792298Y-63193202D01*
X56824272Y-63241054D01*
X56835500Y-63297500D01*
X56835500Y-63642500D01*
X56824272Y-63698946D01*
X56792298Y-63746798D01*
X56744446Y-63778772D01*
X56688000Y-63790000D01*
X56393000Y-63790000D01*
X56336554Y-63778772D01*
X56288702Y-63746798D01*
X56256728Y-63698946D01*
X56245500Y-63642500D01*
X56245500Y-63297500D01*
X56256728Y-63241054D01*
X56288702Y-63193202D01*
X56336554Y-63161228D01*
X56393000Y-63150000D01*
X56688000Y-63150000D01*
X56744446Y-63161228D01*
G37*
G36*
X53312946Y-60875228D02*
G01*
X53360798Y-60907202D01*
X53392772Y-60955054D01*
X53404000Y-61011500D01*
X53404000Y-61356500D01*
X53392772Y-61412946D01*
X53360798Y-61460798D01*
X53312946Y-61492772D01*
X53256500Y-61504000D01*
X52961500Y-61504000D01*
X52905054Y-61492772D01*
X52857202Y-61460798D01*
X52825228Y-61412946D01*
X52814000Y-61356500D01*
X52814000Y-61011500D01*
X52825228Y-60955054D01*
X52857202Y-60907202D01*
X52905054Y-60875228D01*
X52961500Y-60864000D01*
X53256500Y-60864000D01*
X53312946Y-60875228D01*
G37*
G36*
X54282946Y-60875228D02*
G01*
X54330798Y-60907202D01*
X54362772Y-60955054D01*
X54374000Y-61011500D01*
X54374000Y-61356500D01*
X54362772Y-61412946D01*
X54330798Y-61460798D01*
X54282946Y-61492772D01*
X54226500Y-61504000D01*
X53931500Y-61504000D01*
X53875054Y-61492772D01*
X53827202Y-61460798D01*
X53795228Y-61412946D01*
X53784000Y-61356500D01*
X53784000Y-61011500D01*
X53795228Y-60955054D01*
X53827202Y-60907202D01*
X53875054Y-60875228D01*
X53931500Y-60864000D01*
X54226500Y-60864000D01*
X54282946Y-60875228D01*
G37*
G36*
X53312946Y-59859228D02*
G01*
X53360798Y-59891202D01*
X53392772Y-59939054D01*
X53404000Y-59995500D01*
X53404000Y-60340500D01*
X53392772Y-60396946D01*
X53360798Y-60444798D01*
X53312946Y-60476772D01*
X53256500Y-60488000D01*
X52961500Y-60488000D01*
X52905054Y-60476772D01*
X52857202Y-60444798D01*
X52825228Y-60396946D01*
X52814000Y-60340500D01*
X52814000Y-59995500D01*
X52825228Y-59939054D01*
X52857202Y-59891202D01*
X52905054Y-59859228D01*
X52961500Y-59848000D01*
X53256500Y-59848000D01*
X53312946Y-59859228D01*
G37*
G36*
X54282946Y-59859228D02*
G01*
X54330798Y-59891202D01*
X54362772Y-59939054D01*
X54374000Y-59995500D01*
X54374000Y-60340500D01*
X54362772Y-60396946D01*
X54330798Y-60444798D01*
X54282946Y-60476772D01*
X54226500Y-60488000D01*
X53931500Y-60488000D01*
X53875054Y-60476772D01*
X53827202Y-60444798D01*
X53795228Y-60396946D01*
X53784000Y-60340500D01*
X53784000Y-59995500D01*
X53795228Y-59939054D01*
X53827202Y-59891202D01*
X53875054Y-59859228D01*
X53931500Y-59848000D01*
X54226500Y-59848000D01*
X54282946Y-59859228D01*
G37*
G36*
X32232946Y-43752728D02*
G01*
X32280798Y-43784702D01*
X32312772Y-43832554D01*
X32324000Y-43889000D01*
X32324000Y-44184000D01*
X32312772Y-44240446D01*
X32280798Y-44288298D01*
X32232946Y-44320272D01*
X32176500Y-44331500D01*
X31831500Y-44331500D01*
X31775054Y-44320272D01*
X31727202Y-44288298D01*
X31695228Y-44240446D01*
X31684000Y-44184000D01*
X31684000Y-43889000D01*
X31695228Y-43832554D01*
X31727202Y-43784702D01*
X31775054Y-43752728D01*
X31831500Y-43741500D01*
X32176500Y-43741500D01*
X32232946Y-43752728D01*
G37*
G36*
X32232946Y-44722728D02*
G01*
X32280798Y-44754702D01*
X32312772Y-44802554D01*
X32324000Y-44859000D01*
X32324000Y-45154000D01*
X32312772Y-45210446D01*
X32280798Y-45258298D01*
X32232946Y-45290272D01*
X32176500Y-45301500D01*
X31831500Y-45301500D01*
X31775054Y-45290272D01*
X31727202Y-45258298D01*
X31695228Y-45210446D01*
X31684000Y-45154000D01*
X31684000Y-44859000D01*
X31695228Y-44802554D01*
X31727202Y-44754702D01*
X31775054Y-44722728D01*
X31831500Y-44711500D01*
X32176500Y-44711500D01*
X32232946Y-44722728D01*
G37*
G36*
X58626446Y-56938228D02*
G01*
X58674298Y-56970202D01*
X58706272Y-57018054D01*
X58717500Y-57074500D01*
X58717500Y-57419500D01*
X58706272Y-57475946D01*
X58674298Y-57523798D01*
X58626446Y-57555772D01*
X58570000Y-57567000D01*
X58275000Y-57567000D01*
X58218554Y-57555772D01*
X58170702Y-57523798D01*
X58138728Y-57475946D01*
X58127500Y-57419500D01*
X58127500Y-57074500D01*
X58138728Y-57018054D01*
X58170702Y-56970202D01*
X58218554Y-56938228D01*
X58275000Y-56927000D01*
X58570000Y-56927000D01*
X58626446Y-56938228D01*
G37*
G36*
X57656446Y-56938228D02*
G01*
X57704298Y-56970202D01*
X57736272Y-57018054D01*
X57747500Y-57074500D01*
X57747500Y-57419500D01*
X57736272Y-57475946D01*
X57704298Y-57523798D01*
X57656446Y-57555772D01*
X57600000Y-57567000D01*
X57305000Y-57567000D01*
X57248554Y-57555772D01*
X57200702Y-57523798D01*
X57168728Y-57475946D01*
X57157500Y-57419500D01*
X57157500Y-57074500D01*
X57168728Y-57018054D01*
X57200702Y-56970202D01*
X57248554Y-56938228D01*
X57305000Y-56927000D01*
X57600000Y-56927000D01*
X57656446Y-56938228D01*
G37*
G36*
X32946946Y-41799728D02*
G01*
X32994798Y-41831702D01*
X33026772Y-41879554D01*
X33038000Y-41936000D01*
X33038000Y-42281000D01*
X33026772Y-42337446D01*
X32994798Y-42385298D01*
X32946946Y-42417272D01*
X32890500Y-42428500D01*
X32595500Y-42428500D01*
X32539054Y-42417272D01*
X32491202Y-42385298D01*
X32459228Y-42337446D01*
X32448000Y-42281000D01*
X32448000Y-41936000D01*
X32459228Y-41879554D01*
X32491202Y-41831702D01*
X32539054Y-41799728D01*
X32595500Y-41788500D01*
X32890500Y-41788500D01*
X32946946Y-41799728D01*
G37*
G36*
X31976946Y-41799728D02*
G01*
X32024798Y-41831702D01*
X32056772Y-41879554D01*
X32068000Y-41936000D01*
X32068000Y-42281000D01*
X32056772Y-42337446D01*
X32024798Y-42385298D01*
X31976946Y-42417272D01*
X31920500Y-42428500D01*
X31625500Y-42428500D01*
X31569054Y-42417272D01*
X31521202Y-42385298D01*
X31489228Y-42337446D01*
X31478000Y-42281000D01*
X31478000Y-41936000D01*
X31489228Y-41879554D01*
X31521202Y-41831702D01*
X31569054Y-41799728D01*
X31625500Y-41788500D01*
X31920500Y-41788500D01*
X31976946Y-41799728D01*
G37*
G36*
X60706446Y-57702228D02*
G01*
X60754298Y-57734202D01*
X60786272Y-57782054D01*
X60797500Y-57838500D01*
X60797500Y-58133500D01*
X60786272Y-58189946D01*
X60754298Y-58237798D01*
X60706446Y-58269772D01*
X60650000Y-58281000D01*
X60305000Y-58281000D01*
X60248554Y-58269772D01*
X60200702Y-58237798D01*
X60168728Y-58189946D01*
X60157500Y-58133500D01*
X60157500Y-57838500D01*
X60168728Y-57782054D01*
X60200702Y-57734202D01*
X60248554Y-57702228D01*
X60305000Y-57691000D01*
X60650000Y-57691000D01*
X60706446Y-57702228D01*
G37*
G36*
X60706446Y-56732228D02*
G01*
X60754298Y-56764202D01*
X60786272Y-56812054D01*
X60797500Y-56868500D01*
X60797500Y-57163500D01*
X60786272Y-57219946D01*
X60754298Y-57267798D01*
X60706446Y-57299772D01*
X60650000Y-57311000D01*
X60305000Y-57311000D01*
X60248554Y-57299772D01*
X60200702Y-57267798D01*
X60168728Y-57219946D01*
X60157500Y-57163500D01*
X60157500Y-56868500D01*
X60168728Y-56812054D01*
X60200702Y-56764202D01*
X60248554Y-56732228D01*
X60305000Y-56721000D01*
X60650000Y-56721000D01*
X60706446Y-56732228D01*
G37*
G36*
X36550946Y-38395728D02*
G01*
X36598798Y-38427702D01*
X36630772Y-38475554D01*
X36642000Y-38532000D01*
X36642000Y-38827000D01*
X36630772Y-38883446D01*
X36598798Y-38931298D01*
X36550946Y-38963272D01*
X36494500Y-38974500D01*
X36149500Y-38974500D01*
X36093054Y-38963272D01*
X36045202Y-38931298D01*
X36013228Y-38883446D01*
X36002000Y-38827000D01*
X36002000Y-38532000D01*
X36013228Y-38475554D01*
X36045202Y-38427702D01*
X36093054Y-38395728D01*
X36149500Y-38384500D01*
X36494500Y-38384500D01*
X36550946Y-38395728D01*
G37*
G36*
X36550946Y-37425728D02*
G01*
X36598798Y-37457702D01*
X36630772Y-37505554D01*
X36642000Y-37562000D01*
X36642000Y-37857000D01*
X36630772Y-37913446D01*
X36598798Y-37961298D01*
X36550946Y-37993272D01*
X36494500Y-38004500D01*
X36149500Y-38004500D01*
X36093054Y-37993272D01*
X36045202Y-37961298D01*
X36013228Y-37913446D01*
X36002000Y-37857000D01*
X36002000Y-37562000D01*
X36013228Y-37505554D01*
X36045202Y-37457702D01*
X36093054Y-37425728D01*
X36149500Y-37414500D01*
X36494500Y-37414500D01*
X36550946Y-37425728D01*
G37*
G36*
X35534946Y-38395728D02*
G01*
X35582798Y-38427702D01*
X35614772Y-38475554D01*
X35626000Y-38532000D01*
X35626000Y-38827000D01*
X35614772Y-38883446D01*
X35582798Y-38931298D01*
X35534946Y-38963272D01*
X35478500Y-38974500D01*
X35133500Y-38974500D01*
X35077054Y-38963272D01*
X35029202Y-38931298D01*
X34997228Y-38883446D01*
X34986000Y-38827000D01*
X34986000Y-38532000D01*
X34997228Y-38475554D01*
X35029202Y-38427702D01*
X35077054Y-38395728D01*
X35133500Y-38384500D01*
X35478500Y-38384500D01*
X35534946Y-38395728D01*
G37*
G36*
X35534946Y-37425728D02*
G01*
X35582798Y-37457702D01*
X35614772Y-37505554D01*
X35626000Y-37562000D01*
X35626000Y-37857000D01*
X35614772Y-37913446D01*
X35582798Y-37961298D01*
X35534946Y-37993272D01*
X35478500Y-38004500D01*
X35133500Y-38004500D01*
X35077054Y-37993272D01*
X35029202Y-37961298D01*
X34997228Y-37913446D01*
X34986000Y-37857000D01*
X34986000Y-37562000D01*
X34997228Y-37505554D01*
X35029202Y-37457702D01*
X35077054Y-37425728D01*
X35133500Y-37414500D01*
X35478500Y-37414500D01*
X35534946Y-37425728D01*
G37*
G36*
X63983446Y-61256228D02*
G01*
X64031298Y-61288202D01*
X64063272Y-61336054D01*
X64074500Y-61392500D01*
X64074500Y-61737500D01*
X64063272Y-61793946D01*
X64031298Y-61841798D01*
X63983446Y-61873772D01*
X63927000Y-61885000D01*
X63632000Y-61885000D01*
X63575554Y-61873772D01*
X63527702Y-61841798D01*
X63495728Y-61793946D01*
X63484500Y-61737500D01*
X63484500Y-61392500D01*
X63495728Y-61336054D01*
X63527702Y-61288202D01*
X63575554Y-61256228D01*
X63632000Y-61245000D01*
X63927000Y-61245000D01*
X63983446Y-61256228D01*
G37*
G36*
X64953446Y-61256228D02*
G01*
X65001298Y-61288202D01*
X65033272Y-61336054D01*
X65044500Y-61392500D01*
X65044500Y-61737500D01*
X65033272Y-61793946D01*
X65001298Y-61841798D01*
X64953446Y-61873772D01*
X64897000Y-61885000D01*
X64602000Y-61885000D01*
X64545554Y-61873772D01*
X64497702Y-61841798D01*
X64465728Y-61793946D01*
X64454500Y-61737500D01*
X64454500Y-61392500D01*
X64465728Y-61336054D01*
X64497702Y-61288202D01*
X64545554Y-61256228D01*
X64602000Y-61245000D01*
X64897000Y-61245000D01*
X64953446Y-61256228D01*
G37*
G36*
X63980946Y-60240228D02*
G01*
X64028798Y-60272202D01*
X64060772Y-60320054D01*
X64072000Y-60376500D01*
X64072000Y-60721500D01*
X64060772Y-60777946D01*
X64028798Y-60825798D01*
X63980946Y-60857772D01*
X63924500Y-60869000D01*
X63629500Y-60869000D01*
X63573054Y-60857772D01*
X63525202Y-60825798D01*
X63493228Y-60777946D01*
X63482000Y-60721500D01*
X63482000Y-60376500D01*
X63493228Y-60320054D01*
X63525202Y-60272202D01*
X63573054Y-60240228D01*
X63629500Y-60229000D01*
X63924500Y-60229000D01*
X63980946Y-60240228D01*
G37*
G36*
X64950946Y-60240228D02*
G01*
X64998798Y-60272202D01*
X65030772Y-60320054D01*
X65042000Y-60376500D01*
X65042000Y-60721500D01*
X65030772Y-60777946D01*
X64998798Y-60825798D01*
X64950946Y-60857772D01*
X64894500Y-60869000D01*
X64599500Y-60869000D01*
X64543054Y-60857772D01*
X64495202Y-60825798D01*
X64463228Y-60777946D01*
X64452000Y-60721500D01*
X64452000Y-60376500D01*
X64463228Y-60320054D01*
X64495202Y-60272202D01*
X64543054Y-60240228D01*
X64599500Y-60229000D01*
X64894500Y-60229000D01*
X64950946Y-60240228D01*
G37*
G36*
X30787946Y-82846228D02*
G01*
X30835798Y-82878202D01*
X30867772Y-82926054D01*
X30879000Y-82982500D01*
X30879000Y-83327500D01*
X30867772Y-83383946D01*
X30835798Y-83431798D01*
X30787946Y-83463772D01*
X30731500Y-83475000D01*
X30436500Y-83475000D01*
X30380054Y-83463772D01*
X30332202Y-83431798D01*
X30300228Y-83383946D01*
X30289000Y-83327500D01*
X30289000Y-82982500D01*
X30300228Y-82926054D01*
X30332202Y-82878202D01*
X30380054Y-82846228D01*
X30436500Y-82835000D01*
X30731500Y-82835000D01*
X30787946Y-82846228D01*
G37*
G36*
X29817946Y-82846228D02*
G01*
X29865798Y-82878202D01*
X29897772Y-82926054D01*
X29909000Y-82982500D01*
X29909000Y-83327500D01*
X29897772Y-83383946D01*
X29865798Y-83431798D01*
X29817946Y-83463772D01*
X29761500Y-83475000D01*
X29466500Y-83475000D01*
X29410054Y-83463772D01*
X29362202Y-83431798D01*
X29330228Y-83383946D01*
X29319000Y-83327500D01*
X29319000Y-82982500D01*
X29330228Y-82926054D01*
X29362202Y-82878202D01*
X29410054Y-82846228D01*
X29466500Y-82835000D01*
X29761500Y-82835000D01*
X29817946Y-82846228D01*
G37*
G36*
X29817946Y-81830228D02*
G01*
X29865798Y-81862202D01*
X29897772Y-81910054D01*
X29909000Y-81966500D01*
X29909000Y-82311500D01*
X29897772Y-82367946D01*
X29865798Y-82415798D01*
X29817946Y-82447772D01*
X29761500Y-82459000D01*
X29466500Y-82459000D01*
X29410054Y-82447772D01*
X29362202Y-82415798D01*
X29330228Y-82367946D01*
X29319000Y-82311500D01*
X29319000Y-81966500D01*
X29330228Y-81910054D01*
X29362202Y-81862202D01*
X29410054Y-81830228D01*
X29466500Y-81819000D01*
X29761500Y-81819000D01*
X29817946Y-81830228D01*
G37*
G36*
X30787946Y-81830228D02*
G01*
X30835798Y-81862202D01*
X30867772Y-81910054D01*
X30879000Y-81966500D01*
X30879000Y-82311500D01*
X30867772Y-82367946D01*
X30835798Y-82415798D01*
X30787946Y-82447772D01*
X30731500Y-82459000D01*
X30436500Y-82459000D01*
X30380054Y-82447772D01*
X30332202Y-82415798D01*
X30300228Y-82367946D01*
X30289000Y-82311500D01*
X30289000Y-81966500D01*
X30300228Y-81910054D01*
X30332202Y-81862202D01*
X30380054Y-81830228D01*
X30436500Y-81819000D01*
X30731500Y-81819000D01*
X30787946Y-81830228D01*
G37*
G36*
X35026946Y-68693228D02*
G01*
X35074798Y-68725202D01*
X35106772Y-68773054D01*
X35118000Y-68829500D01*
X35118000Y-69124500D01*
X35106772Y-69180946D01*
X35074798Y-69228798D01*
X35026946Y-69260772D01*
X34970500Y-69272000D01*
X34625500Y-69272000D01*
X34569054Y-69260772D01*
X34521202Y-69228798D01*
X34489228Y-69180946D01*
X34478000Y-69124500D01*
X34478000Y-68829500D01*
X34489228Y-68773054D01*
X34521202Y-68725202D01*
X34569054Y-68693228D01*
X34625500Y-68682000D01*
X34970500Y-68682000D01*
X35026946Y-68693228D01*
G37*
G36*
X35026946Y-69663228D02*
G01*
X35074798Y-69695202D01*
X35106772Y-69743054D01*
X35118000Y-69799500D01*
X35118000Y-70094500D01*
X35106772Y-70150946D01*
X35074798Y-70198798D01*
X35026946Y-70230772D01*
X34970500Y-70242000D01*
X34625500Y-70242000D01*
X34569054Y-70230772D01*
X34521202Y-70198798D01*
X34489228Y-70150946D01*
X34478000Y-70094500D01*
X34478000Y-69799500D01*
X34489228Y-69743054D01*
X34521202Y-69695202D01*
X34569054Y-69663228D01*
X34625500Y-69652000D01*
X34970500Y-69652000D01*
X35026946Y-69663228D01*
G37*
G36*
X33835946Y-69638228D02*
G01*
X33883798Y-69670202D01*
X33915772Y-69718054D01*
X33927000Y-69774500D01*
X33927000Y-70119500D01*
X33915772Y-70175946D01*
X33883798Y-70223798D01*
X33835946Y-70255772D01*
X33779500Y-70267000D01*
X33484500Y-70267000D01*
X33428054Y-70255772D01*
X33380202Y-70223798D01*
X33348228Y-70175946D01*
X33337000Y-70119500D01*
X33337000Y-69774500D01*
X33348228Y-69718054D01*
X33380202Y-69670202D01*
X33428054Y-69638228D01*
X33484500Y-69627000D01*
X33779500Y-69627000D01*
X33835946Y-69638228D01*
G37*
G36*
X32865946Y-69638228D02*
G01*
X32913798Y-69670202D01*
X32945772Y-69718054D01*
X32957000Y-69774500D01*
X32957000Y-70119500D01*
X32945772Y-70175946D01*
X32913798Y-70223798D01*
X32865946Y-70255772D01*
X32809500Y-70267000D01*
X32514500Y-70267000D01*
X32458054Y-70255772D01*
X32410202Y-70223798D01*
X32378228Y-70175946D01*
X32367000Y-70119500D01*
X32367000Y-69774500D01*
X32378228Y-69718054D01*
X32410202Y-69670202D01*
X32458054Y-69638228D01*
X32514500Y-69627000D01*
X32809500Y-69627000D01*
X32865946Y-69638228D01*
G37*
G36*
X36042946Y-73046228D02*
G01*
X36090798Y-73078202D01*
X36122772Y-73126054D01*
X36134000Y-73182500D01*
X36134000Y-73477500D01*
X36122772Y-73533946D01*
X36090798Y-73581798D01*
X36042946Y-73613772D01*
X35986500Y-73625000D01*
X35641500Y-73625000D01*
X35585054Y-73613772D01*
X35537202Y-73581798D01*
X35505228Y-73533946D01*
X35494000Y-73477500D01*
X35494000Y-73182500D01*
X35505228Y-73126054D01*
X35537202Y-73078202D01*
X35585054Y-73046228D01*
X35641500Y-73035000D01*
X35986500Y-73035000D01*
X36042946Y-73046228D01*
G37*
G36*
X36042946Y-72076228D02*
G01*
X36090798Y-72108202D01*
X36122772Y-72156054D01*
X36134000Y-72212500D01*
X36134000Y-72507500D01*
X36122772Y-72563946D01*
X36090798Y-72611798D01*
X36042946Y-72643772D01*
X35986500Y-72655000D01*
X35641500Y-72655000D01*
X35585054Y-72643772D01*
X35537202Y-72611798D01*
X35505228Y-72563946D01*
X35494000Y-72507500D01*
X35494000Y-72212500D01*
X35505228Y-72156054D01*
X35537202Y-72108202D01*
X35585054Y-72076228D01*
X35641500Y-72065000D01*
X35986500Y-72065000D01*
X36042946Y-72076228D01*
G37*
G36*
X37058946Y-72099228D02*
G01*
X37106798Y-72131202D01*
X37138772Y-72179054D01*
X37150000Y-72235500D01*
X37150000Y-72530500D01*
X37138772Y-72586946D01*
X37106798Y-72634798D01*
X37058946Y-72666772D01*
X37002500Y-72678000D01*
X36657500Y-72678000D01*
X36601054Y-72666772D01*
X36553202Y-72634798D01*
X36521228Y-72586946D01*
X36510000Y-72530500D01*
X36510000Y-72235500D01*
X36521228Y-72179054D01*
X36553202Y-72131202D01*
X36601054Y-72099228D01*
X36657500Y-72088000D01*
X37002500Y-72088000D01*
X37058946Y-72099228D01*
G37*
G36*
X37058946Y-73069228D02*
G01*
X37106798Y-73101202D01*
X37138772Y-73149054D01*
X37150000Y-73205500D01*
X37150000Y-73500500D01*
X37138772Y-73556946D01*
X37106798Y-73604798D01*
X37058946Y-73636772D01*
X37002500Y-73648000D01*
X36657500Y-73648000D01*
X36601054Y-73636772D01*
X36553202Y-73604798D01*
X36521228Y-73556946D01*
X36510000Y-73500500D01*
X36510000Y-73205500D01*
X36521228Y-73149054D01*
X36553202Y-73101202D01*
X36601054Y-73069228D01*
X36657500Y-73058000D01*
X37002500Y-73058000D01*
X37058946Y-73069228D01*
G37*
G36*
X35026946Y-73046228D02*
G01*
X35074798Y-73078202D01*
X35106772Y-73126054D01*
X35118000Y-73182500D01*
X35118000Y-73477500D01*
X35106772Y-73533946D01*
X35074798Y-73581798D01*
X35026946Y-73613772D01*
X34970500Y-73625000D01*
X34625500Y-73625000D01*
X34569054Y-73613772D01*
X34521202Y-73581798D01*
X34489228Y-73533946D01*
X34478000Y-73477500D01*
X34478000Y-73182500D01*
X34489228Y-73126054D01*
X34521202Y-73078202D01*
X34569054Y-73046228D01*
X34625500Y-73035000D01*
X34970500Y-73035000D01*
X35026946Y-73046228D01*
G37*
G36*
X35026946Y-72076228D02*
G01*
X35074798Y-72108202D01*
X35106772Y-72156054D01*
X35118000Y-72212500D01*
X35118000Y-72507500D01*
X35106772Y-72563946D01*
X35074798Y-72611798D01*
X35026946Y-72643772D01*
X34970500Y-72655000D01*
X34625500Y-72655000D01*
X34569054Y-72643772D01*
X34521202Y-72611798D01*
X34489228Y-72563946D01*
X34478000Y-72507500D01*
X34478000Y-72212500D01*
X34489228Y-72156054D01*
X34521202Y-72108202D01*
X34569054Y-72076228D01*
X34625500Y-72065000D01*
X34970500Y-72065000D01*
X35026946Y-72076228D01*
G37*
G36*
X33835946Y-72051228D02*
G01*
X33883798Y-72083202D01*
X33915772Y-72131054D01*
X33927000Y-72187500D01*
X33927000Y-72532500D01*
X33915772Y-72588946D01*
X33883798Y-72636798D01*
X33835946Y-72668772D01*
X33779500Y-72680000D01*
X33484500Y-72680000D01*
X33428054Y-72668772D01*
X33380202Y-72636798D01*
X33348228Y-72588946D01*
X33337000Y-72532500D01*
X33337000Y-72187500D01*
X33348228Y-72131054D01*
X33380202Y-72083202D01*
X33428054Y-72051228D01*
X33484500Y-72040000D01*
X33779500Y-72040000D01*
X33835946Y-72051228D01*
G37*
G36*
X32865946Y-72051228D02*
G01*
X32913798Y-72083202D01*
X32945772Y-72131054D01*
X32957000Y-72187500D01*
X32957000Y-72532500D01*
X32945772Y-72588946D01*
X32913798Y-72636798D01*
X32865946Y-72668772D01*
X32809500Y-72680000D01*
X32514500Y-72680000D01*
X32458054Y-72668772D01*
X32410202Y-72636798D01*
X32378228Y-72588946D01*
X32367000Y-72532500D01*
X32367000Y-72187500D01*
X32378228Y-72131054D01*
X32410202Y-72083202D01*
X32458054Y-72051228D01*
X32514500Y-72040000D01*
X32809500Y-72040000D01*
X32865946Y-72051228D01*
G37*
G36*
X38557946Y-40529728D02*
G01*
X38605798Y-40561702D01*
X38637772Y-40609554D01*
X38649000Y-40666000D01*
X38649000Y-41011000D01*
X38637772Y-41067446D01*
X38605798Y-41115298D01*
X38557946Y-41147272D01*
X38501500Y-41158500D01*
X38206500Y-41158500D01*
X38150054Y-41147272D01*
X38102202Y-41115298D01*
X38070228Y-41067446D01*
X38059000Y-41011000D01*
X38059000Y-40666000D01*
X38070228Y-40609554D01*
X38102202Y-40561702D01*
X38150054Y-40529728D01*
X38206500Y-40518500D01*
X38501500Y-40518500D01*
X38557946Y-40529728D01*
G37*
G36*
X37587946Y-40529728D02*
G01*
X37635798Y-40561702D01*
X37667772Y-40609554D01*
X37679000Y-40666000D01*
X37679000Y-41011000D01*
X37667772Y-41067446D01*
X37635798Y-41115298D01*
X37587946Y-41147272D01*
X37531500Y-41158500D01*
X37236500Y-41158500D01*
X37180054Y-41147272D01*
X37132202Y-41115298D01*
X37100228Y-41067446D01*
X37089000Y-41011000D01*
X37089000Y-40666000D01*
X37100228Y-40609554D01*
X37132202Y-40561702D01*
X37180054Y-40529728D01*
X37236500Y-40518500D01*
X37531500Y-40518500D01*
X37587946Y-40529728D01*
G37*
G36*
X36525946Y-40529728D02*
G01*
X36573798Y-40561702D01*
X36605772Y-40609554D01*
X36617000Y-40666000D01*
X36617000Y-41011000D01*
X36605772Y-41067446D01*
X36573798Y-41115298D01*
X36525946Y-41147272D01*
X36469500Y-41158500D01*
X36174500Y-41158500D01*
X36118054Y-41147272D01*
X36070202Y-41115298D01*
X36038228Y-41067446D01*
X36027000Y-41011000D01*
X36027000Y-40666000D01*
X36038228Y-40609554D01*
X36070202Y-40561702D01*
X36118054Y-40529728D01*
X36174500Y-40518500D01*
X36469500Y-40518500D01*
X36525946Y-40529728D01*
G37*
G36*
X35555946Y-40529728D02*
G01*
X35603798Y-40561702D01*
X35635772Y-40609554D01*
X35647000Y-40666000D01*
X35647000Y-41011000D01*
X35635772Y-41067446D01*
X35603798Y-41115298D01*
X35555946Y-41147272D01*
X35499500Y-41158500D01*
X35204500Y-41158500D01*
X35148054Y-41147272D01*
X35100202Y-41115298D01*
X35068228Y-41067446D01*
X35057000Y-41011000D01*
X35057000Y-40666000D01*
X35068228Y-40609554D01*
X35100202Y-40561702D01*
X35148054Y-40529728D01*
X35204500Y-40518500D01*
X35499500Y-40518500D01*
X35555946Y-40529728D01*
G37*
G36*
X62357446Y-61258228D02*
G01*
X62405298Y-61290202D01*
X62437272Y-61338054D01*
X62448500Y-61394500D01*
X62448500Y-61689500D01*
X62437272Y-61745946D01*
X62405298Y-61793798D01*
X62357446Y-61825772D01*
X62301000Y-61837000D01*
X61956000Y-61837000D01*
X61899554Y-61825772D01*
X61851702Y-61793798D01*
X61819728Y-61745946D01*
X61808500Y-61689500D01*
X61808500Y-61394500D01*
X61819728Y-61338054D01*
X61851702Y-61290202D01*
X61899554Y-61258228D01*
X61956000Y-61247000D01*
X62301000Y-61247000D01*
X62357446Y-61258228D01*
G37*
G36*
X62357446Y-60288228D02*
G01*
X62405298Y-60320202D01*
X62437272Y-60368054D01*
X62448500Y-60424500D01*
X62448500Y-60719500D01*
X62437272Y-60775946D01*
X62405298Y-60823798D01*
X62357446Y-60855772D01*
X62301000Y-60867000D01*
X61956000Y-60867000D01*
X61899554Y-60855772D01*
X61851702Y-60823798D01*
X61819728Y-60775946D01*
X61808500Y-60719500D01*
X61808500Y-60424500D01*
X61819728Y-60368054D01*
X61851702Y-60320202D01*
X61899554Y-60288228D01*
X61956000Y-60277000D01*
X62301000Y-60277000D01*
X62357446Y-60288228D01*
G37*
G36*
X62357446Y-59203228D02*
G01*
X62405298Y-59235202D01*
X62437272Y-59283054D01*
X62448500Y-59339500D01*
X62448500Y-59634500D01*
X62437272Y-59690946D01*
X62405298Y-59738798D01*
X62357446Y-59770772D01*
X62301000Y-59782000D01*
X61956000Y-59782000D01*
X61899554Y-59770772D01*
X61851702Y-59738798D01*
X61819728Y-59690946D01*
X61808500Y-59634500D01*
X61808500Y-59339500D01*
X61819728Y-59283054D01*
X61851702Y-59235202D01*
X61899554Y-59203228D01*
X61956000Y-59192000D01*
X62301000Y-59192000D01*
X62357446Y-59203228D01*
G37*
G36*
X62357446Y-58233228D02*
G01*
X62405298Y-58265202D01*
X62437272Y-58313054D01*
X62448500Y-58369500D01*
X62448500Y-58664500D01*
X62437272Y-58720946D01*
X62405298Y-58768798D01*
X62357446Y-58800772D01*
X62301000Y-58812000D01*
X61956000Y-58812000D01*
X61899554Y-58800772D01*
X61851702Y-58768798D01*
X61819728Y-58720946D01*
X61808500Y-58664500D01*
X61808500Y-58369500D01*
X61819728Y-58313054D01*
X61851702Y-58265202D01*
X61899554Y-58233228D01*
X61956000Y-58222000D01*
X62301000Y-58222000D01*
X62357446Y-58233228D01*
G37*
G36*
X34217418Y-45532258D02*
G01*
X34237694Y-45545806D01*
X34251242Y-45566082D01*
X34256000Y-45590000D01*
X34256000Y-45715000D01*
X34251242Y-45738918D01*
X34237694Y-45759194D01*
X34217418Y-45772742D01*
X34193500Y-45777500D01*
X33493500Y-45777500D01*
X33469582Y-45772742D01*
X33449306Y-45759194D01*
X33435758Y-45738918D01*
X33431000Y-45715000D01*
X33431000Y-45590000D01*
X33435758Y-45566082D01*
X33449306Y-45545806D01*
X33469582Y-45532258D01*
X33493500Y-45527500D01*
X34193500Y-45527500D01*
X34217418Y-45532258D01*
G37*
G36*
X34217418Y-45032258D02*
G01*
X34237694Y-45045806D01*
X34251242Y-45066082D01*
X34256000Y-45090000D01*
X34256000Y-45215000D01*
X34251242Y-45238918D01*
X34237694Y-45259194D01*
X34217418Y-45272742D01*
X34193500Y-45277500D01*
X33493500Y-45277500D01*
X33469582Y-45272742D01*
X33449306Y-45259194D01*
X33435758Y-45238918D01*
X33431000Y-45215000D01*
X33431000Y-45090000D01*
X33435758Y-45066082D01*
X33449306Y-45045806D01*
X33469582Y-45032258D01*
X33493500Y-45027500D01*
X34193500Y-45027500D01*
X34217418Y-45032258D01*
G37*
G36*
X34217418Y-44532258D02*
G01*
X34237694Y-44545806D01*
X34251242Y-44566082D01*
X34256000Y-44590000D01*
X34256000Y-44715000D01*
X34251242Y-44738918D01*
X34237694Y-44759194D01*
X34217418Y-44772742D01*
X34193500Y-44777500D01*
X33493500Y-44777500D01*
X33469582Y-44772742D01*
X33449306Y-44759194D01*
X33435758Y-44738918D01*
X33431000Y-44715000D01*
X33431000Y-44590000D01*
X33435758Y-44566082D01*
X33449306Y-44545806D01*
X33469582Y-44532258D01*
X33493500Y-44527500D01*
X34193500Y-44527500D01*
X34217418Y-44532258D01*
G37*
G36*
X34217418Y-44032258D02*
G01*
X34237694Y-44045806D01*
X34251242Y-44066082D01*
X34256000Y-44090000D01*
X34256000Y-44215000D01*
X34251242Y-44238918D01*
X34237694Y-44259194D01*
X34217418Y-44272742D01*
X34193500Y-44277500D01*
X33493500Y-44277500D01*
X33469582Y-44272742D01*
X33449306Y-44259194D01*
X33435758Y-44238918D01*
X33431000Y-44215000D01*
X33431000Y-44090000D01*
X33435758Y-44066082D01*
X33449306Y-44045806D01*
X33469582Y-44032258D01*
X33493500Y-44027500D01*
X34193500Y-44027500D01*
X34217418Y-44032258D01*
G37*
G36*
X34642418Y-43032258D02*
G01*
X34662694Y-43045806D01*
X34676242Y-43066082D01*
X34681000Y-43090000D01*
X34681000Y-43790000D01*
X34676242Y-43813918D01*
X34662694Y-43834194D01*
X34642418Y-43847742D01*
X34618500Y-43852500D01*
X34493500Y-43852500D01*
X34469582Y-43847742D01*
X34449306Y-43834194D01*
X34435758Y-43813918D01*
X34431000Y-43790000D01*
X34431000Y-43090000D01*
X34435758Y-43066082D01*
X34449306Y-43045806D01*
X34469582Y-43032258D01*
X34493500Y-43027500D01*
X34618500Y-43027500D01*
X34642418Y-43032258D01*
G37*
G36*
X35142418Y-43032258D02*
G01*
X35162694Y-43045806D01*
X35176242Y-43066082D01*
X35181000Y-43090000D01*
X35181000Y-43790000D01*
X35176242Y-43813918D01*
X35162694Y-43834194D01*
X35142418Y-43847742D01*
X35118500Y-43852500D01*
X34993500Y-43852500D01*
X34969582Y-43847742D01*
X34949306Y-43834194D01*
X34935758Y-43813918D01*
X34931000Y-43790000D01*
X34931000Y-43090000D01*
X34935758Y-43066082D01*
X34949306Y-43045806D01*
X34969582Y-43032258D01*
X34993500Y-43027500D01*
X35118500Y-43027500D01*
X35142418Y-43032258D01*
G37*
G36*
X35642418Y-43032258D02*
G01*
X35662694Y-43045806D01*
X35676242Y-43066082D01*
X35681000Y-43090000D01*
X35681000Y-43790000D01*
X35676242Y-43813918D01*
X35662694Y-43834194D01*
X35642418Y-43847742D01*
X35618500Y-43852500D01*
X35493500Y-43852500D01*
X35469582Y-43847742D01*
X35449306Y-43834194D01*
X35435758Y-43813918D01*
X35431000Y-43790000D01*
X35431000Y-43090000D01*
X35435758Y-43066082D01*
X35449306Y-43045806D01*
X35469582Y-43032258D01*
X35493500Y-43027500D01*
X35618500Y-43027500D01*
X35642418Y-43032258D01*
G37*
G36*
X36142418Y-43032258D02*
G01*
X36162694Y-43045806D01*
X36176242Y-43066082D01*
X36181000Y-43090000D01*
X36181000Y-43790000D01*
X36176242Y-43813918D01*
X36162694Y-43834194D01*
X36142418Y-43847742D01*
X36118500Y-43852500D01*
X35993500Y-43852500D01*
X35969582Y-43847742D01*
X35949306Y-43834194D01*
X35935758Y-43813918D01*
X35931000Y-43790000D01*
X35931000Y-43090000D01*
X35935758Y-43066082D01*
X35949306Y-43045806D01*
X35969582Y-43032258D01*
X35993500Y-43027500D01*
X36118500Y-43027500D01*
X36142418Y-43032258D01*
G37*
G36*
X37142418Y-44032258D02*
G01*
X37162694Y-44045806D01*
X37176242Y-44066082D01*
X37181000Y-44090000D01*
X37181000Y-44215000D01*
X37176242Y-44238918D01*
X37162694Y-44259194D01*
X37142418Y-44272742D01*
X37118500Y-44277500D01*
X36418500Y-44277500D01*
X36394582Y-44272742D01*
X36374306Y-44259194D01*
X36360758Y-44238918D01*
X36356000Y-44215000D01*
X36356000Y-44090000D01*
X36360758Y-44066082D01*
X36374306Y-44045806D01*
X36394582Y-44032258D01*
X36418500Y-44027500D01*
X37118500Y-44027500D01*
X37142418Y-44032258D01*
G37*
G36*
X37142418Y-44532258D02*
G01*
X37162694Y-44545806D01*
X37176242Y-44566082D01*
X37181000Y-44590000D01*
X37181000Y-44715000D01*
X37176242Y-44738918D01*
X37162694Y-44759194D01*
X37142418Y-44772742D01*
X37118500Y-44777500D01*
X36418500Y-44777500D01*
X36394582Y-44772742D01*
X36374306Y-44759194D01*
X36360758Y-44738918D01*
X36356000Y-44715000D01*
X36356000Y-44590000D01*
X36360758Y-44566082D01*
X36374306Y-44545806D01*
X36394582Y-44532258D01*
X36418500Y-44527500D01*
X37118500Y-44527500D01*
X37142418Y-44532258D01*
G37*
G36*
X37142418Y-45032258D02*
G01*
X37162694Y-45045806D01*
X37176242Y-45066082D01*
X37181000Y-45090000D01*
X37181000Y-45215000D01*
X37176242Y-45238918D01*
X37162694Y-45259194D01*
X37142418Y-45272742D01*
X37118500Y-45277500D01*
X36418500Y-45277500D01*
X36394582Y-45272742D01*
X36374306Y-45259194D01*
X36360758Y-45238918D01*
X36356000Y-45215000D01*
X36356000Y-45090000D01*
X36360758Y-45066082D01*
X36374306Y-45045806D01*
X36394582Y-45032258D01*
X36418500Y-45027500D01*
X37118500Y-45027500D01*
X37142418Y-45032258D01*
G37*
G36*
X37142418Y-45532258D02*
G01*
X37162694Y-45545806D01*
X37176242Y-45566082D01*
X37181000Y-45590000D01*
X37181000Y-45715000D01*
X37176242Y-45738918D01*
X37162694Y-45759194D01*
X37142418Y-45772742D01*
X37118500Y-45777500D01*
X36418500Y-45777500D01*
X36394582Y-45772742D01*
X36374306Y-45759194D01*
X36360758Y-45738918D01*
X36356000Y-45715000D01*
X36356000Y-45590000D01*
X36360758Y-45566082D01*
X36374306Y-45545806D01*
X36394582Y-45532258D01*
X36418500Y-45527500D01*
X37118500Y-45527500D01*
X37142418Y-45532258D01*
G37*
G36*
X36142418Y-45957258D02*
G01*
X36162694Y-45970806D01*
X36176242Y-45991082D01*
X36181000Y-46015000D01*
X36181000Y-46715000D01*
X36176242Y-46738918D01*
X36162694Y-46759194D01*
X36142418Y-46772742D01*
X36118500Y-46777500D01*
X35993500Y-46777500D01*
X35969582Y-46772742D01*
X35949306Y-46759194D01*
X35935758Y-46738918D01*
X35931000Y-46715000D01*
X35931000Y-46015000D01*
X35935758Y-45991082D01*
X35949306Y-45970806D01*
X35969582Y-45957258D01*
X35993500Y-45952500D01*
X36118500Y-45952500D01*
X36142418Y-45957258D01*
G37*
G36*
X35642418Y-45957258D02*
G01*
X35662694Y-45970806D01*
X35676242Y-45991082D01*
X35681000Y-46015000D01*
X35681000Y-46715000D01*
X35676242Y-46738918D01*
X35662694Y-46759194D01*
X35642418Y-46772742D01*
X35618500Y-46777500D01*
X35493500Y-46777500D01*
X35469582Y-46772742D01*
X35449306Y-46759194D01*
X35435758Y-46738918D01*
X35431000Y-46715000D01*
X35431000Y-46015000D01*
X35435758Y-45991082D01*
X35449306Y-45970806D01*
X35469582Y-45957258D01*
X35493500Y-45952500D01*
X35618500Y-45952500D01*
X35642418Y-45957258D01*
G37*
G36*
X35142418Y-45957258D02*
G01*
X35162694Y-45970806D01*
X35176242Y-45991082D01*
X35181000Y-46015000D01*
X35181000Y-46715000D01*
X35176242Y-46738918D01*
X35162694Y-46759194D01*
X35142418Y-46772742D01*
X35118500Y-46777500D01*
X34993500Y-46777500D01*
X34969582Y-46772742D01*
X34949306Y-46759194D01*
X34935758Y-46738918D01*
X34931000Y-46715000D01*
X34931000Y-46015000D01*
X34935758Y-45991082D01*
X34949306Y-45970806D01*
X34969582Y-45957258D01*
X34993500Y-45952500D01*
X35118500Y-45952500D01*
X35142418Y-45957258D01*
G37*
G36*
X34642418Y-45957258D02*
G01*
X34662694Y-45970806D01*
X34676242Y-45991082D01*
X34681000Y-46015000D01*
X34681000Y-46715000D01*
X34676242Y-46738918D01*
X34662694Y-46759194D01*
X34642418Y-46772742D01*
X34618500Y-46777500D01*
X34493500Y-46777500D01*
X34469582Y-46772742D01*
X34449306Y-46759194D01*
X34435758Y-46738918D01*
X34431000Y-46715000D01*
X34431000Y-46015000D01*
X34435758Y-45991082D01*
X34449306Y-45970806D01*
X34469582Y-45957258D01*
X34493500Y-45952500D01*
X34618500Y-45952500D01*
X34642418Y-45957258D01*
G37*
G36*
X35119513Y-44995631D02*
G01*
X35175476Y-45033024D01*
X35212869Y-45088987D01*
X35226000Y-45155000D01*
X35226000Y-45500000D01*
X35212869Y-45566013D01*
X35175476Y-45621976D01*
X35119513Y-45659369D01*
X35053500Y-45672500D01*
X34708500Y-45672500D01*
X34642487Y-45659369D01*
X34586524Y-45621976D01*
X34549131Y-45566013D01*
X34536000Y-45500000D01*
X34536000Y-45155000D01*
X34549131Y-45088987D01*
X34586524Y-45033024D01*
X34642487Y-44995631D01*
X34708500Y-44982500D01*
X35053500Y-44982500D01*
X35119513Y-44995631D01*
G37*
G36*
X35119513Y-44145631D02*
G01*
X35175476Y-44183024D01*
X35212869Y-44238987D01*
X35226000Y-44305000D01*
X35226000Y-44650000D01*
X35212869Y-44716013D01*
X35175476Y-44771976D01*
X35119513Y-44809369D01*
X35053500Y-44822500D01*
X34708500Y-44822500D01*
X34642487Y-44809369D01*
X34586524Y-44771976D01*
X34549131Y-44716013D01*
X34536000Y-44650000D01*
X34536000Y-44305000D01*
X34549131Y-44238987D01*
X34586524Y-44183024D01*
X34642487Y-44145631D01*
X34708500Y-44132500D01*
X35053500Y-44132500D01*
X35119513Y-44145631D01*
G37*
G36*
X35969513Y-44995631D02*
G01*
X36025476Y-45033024D01*
X36062869Y-45088987D01*
X36076000Y-45155000D01*
X36076000Y-45500000D01*
X36062869Y-45566013D01*
X36025476Y-45621976D01*
X35969513Y-45659369D01*
X35903500Y-45672500D01*
X35558500Y-45672500D01*
X35492487Y-45659369D01*
X35436524Y-45621976D01*
X35399131Y-45566013D01*
X35386000Y-45500000D01*
X35386000Y-45155000D01*
X35399131Y-45088987D01*
X35436524Y-45033024D01*
X35492487Y-44995631D01*
X35558500Y-44982500D01*
X35903500Y-44982500D01*
X35969513Y-44995631D01*
G37*
G36*
X35969513Y-44145631D02*
G01*
X36025476Y-44183024D01*
X36062869Y-44238987D01*
X36076000Y-44305000D01*
X36076000Y-44650000D01*
X36062869Y-44716013D01*
X36025476Y-44771976D01*
X35969513Y-44809369D01*
X35903500Y-44822500D01*
X35558500Y-44822500D01*
X35492487Y-44809369D01*
X35436524Y-44771976D01*
X35399131Y-44716013D01*
X35386000Y-44650000D01*
X35386000Y-44305000D01*
X35399131Y-44238987D01*
X35436524Y-44183024D01*
X35492487Y-44145631D01*
X35558500Y-44132500D01*
X35903500Y-44132500D01*
X35969513Y-44145631D01*
G37*
G36*
X57019918Y-58678758D02*
G01*
X57040194Y-58692306D01*
X57053742Y-58712582D01*
X57058500Y-58736500D01*
X57058500Y-59436500D01*
X57053742Y-59460418D01*
X57040194Y-59480694D01*
X57019918Y-59494242D01*
X56996000Y-59499000D01*
X56871000Y-59499000D01*
X56847082Y-59494242D01*
X56826806Y-59480694D01*
X56813258Y-59460418D01*
X56808500Y-59436500D01*
X56808500Y-58736500D01*
X56813258Y-58712582D01*
X56826806Y-58692306D01*
X56847082Y-58678758D01*
X56871000Y-58674000D01*
X56996000Y-58674000D01*
X57019918Y-58678758D01*
G37*
G36*
X57519918Y-58678758D02*
G01*
X57540194Y-58692306D01*
X57553742Y-58712582D01*
X57558500Y-58736500D01*
X57558500Y-59436500D01*
X57553742Y-59460418D01*
X57540194Y-59480694D01*
X57519918Y-59494242D01*
X57496000Y-59499000D01*
X57371000Y-59499000D01*
X57347082Y-59494242D01*
X57326806Y-59480694D01*
X57313258Y-59460418D01*
X57308500Y-59436500D01*
X57308500Y-58736500D01*
X57313258Y-58712582D01*
X57326806Y-58692306D01*
X57347082Y-58678758D01*
X57371000Y-58674000D01*
X57496000Y-58674000D01*
X57519918Y-58678758D01*
G37*
G36*
X58019918Y-58678758D02*
G01*
X58040194Y-58692306D01*
X58053742Y-58712582D01*
X58058500Y-58736500D01*
X58058500Y-59436500D01*
X58053742Y-59460418D01*
X58040194Y-59480694D01*
X58019918Y-59494242D01*
X57996000Y-59499000D01*
X57871000Y-59499000D01*
X57847082Y-59494242D01*
X57826806Y-59480694D01*
X57813258Y-59460418D01*
X57808500Y-59436500D01*
X57808500Y-58736500D01*
X57813258Y-58712582D01*
X57826806Y-58692306D01*
X57847082Y-58678758D01*
X57871000Y-58674000D01*
X57996000Y-58674000D01*
X58019918Y-58678758D01*
G37*
G36*
X58519918Y-58678758D02*
G01*
X58540194Y-58692306D01*
X58553742Y-58712582D01*
X58558500Y-58736500D01*
X58558500Y-59436500D01*
X58553742Y-59460418D01*
X58540194Y-59480694D01*
X58519918Y-59494242D01*
X58496000Y-59499000D01*
X58371000Y-59499000D01*
X58347082Y-59494242D01*
X58326806Y-59480694D01*
X58313258Y-59460418D01*
X58308500Y-59436500D01*
X58308500Y-58736500D01*
X58313258Y-58712582D01*
X58326806Y-58692306D01*
X58347082Y-58678758D01*
X58371000Y-58674000D01*
X58496000Y-58674000D01*
X58519918Y-58678758D01*
G37*
G36*
X59519918Y-59678758D02*
G01*
X59540194Y-59692306D01*
X59553742Y-59712582D01*
X59558500Y-59736500D01*
X59558500Y-59861500D01*
X59553742Y-59885418D01*
X59540194Y-59905694D01*
X59519918Y-59919242D01*
X59496000Y-59924000D01*
X58796000Y-59924000D01*
X58772082Y-59919242D01*
X58751806Y-59905694D01*
X58738258Y-59885418D01*
X58733500Y-59861500D01*
X58733500Y-59736500D01*
X58738258Y-59712582D01*
X58751806Y-59692306D01*
X58772082Y-59678758D01*
X58796000Y-59674000D01*
X59496000Y-59674000D01*
X59519918Y-59678758D01*
G37*
G36*
X59519918Y-60178758D02*
G01*
X59540194Y-60192306D01*
X59553742Y-60212582D01*
X59558500Y-60236500D01*
X59558500Y-60361500D01*
X59553742Y-60385418D01*
X59540194Y-60405694D01*
X59519918Y-60419242D01*
X59496000Y-60424000D01*
X58796000Y-60424000D01*
X58772082Y-60419242D01*
X58751806Y-60405694D01*
X58738258Y-60385418D01*
X58733500Y-60361500D01*
X58733500Y-60236500D01*
X58738258Y-60212582D01*
X58751806Y-60192306D01*
X58772082Y-60178758D01*
X58796000Y-60174000D01*
X59496000Y-60174000D01*
X59519918Y-60178758D01*
G37*
G36*
X59519918Y-60678758D02*
G01*
X59540194Y-60692306D01*
X59553742Y-60712582D01*
X59558500Y-60736500D01*
X59558500Y-60861500D01*
X59553742Y-60885418D01*
X59540194Y-60905694D01*
X59519918Y-60919242D01*
X59496000Y-60924000D01*
X58796000Y-60924000D01*
X58772082Y-60919242D01*
X58751806Y-60905694D01*
X58738258Y-60885418D01*
X58733500Y-60861500D01*
X58733500Y-60736500D01*
X58738258Y-60712582D01*
X58751806Y-60692306D01*
X58772082Y-60678758D01*
X58796000Y-60674000D01*
X59496000Y-60674000D01*
X59519918Y-60678758D01*
G37*
G36*
X59519918Y-61178758D02*
G01*
X59540194Y-61192306D01*
X59553742Y-61212582D01*
X59558500Y-61236500D01*
X59558500Y-61361500D01*
X59553742Y-61385418D01*
X59540194Y-61405694D01*
X59519918Y-61419242D01*
X59496000Y-61424000D01*
X58796000Y-61424000D01*
X58772082Y-61419242D01*
X58751806Y-61405694D01*
X58738258Y-61385418D01*
X58733500Y-61361500D01*
X58733500Y-61236500D01*
X58738258Y-61212582D01*
X58751806Y-61192306D01*
X58772082Y-61178758D01*
X58796000Y-61174000D01*
X59496000Y-61174000D01*
X59519918Y-61178758D01*
G37*
G36*
X58519918Y-61603758D02*
G01*
X58540194Y-61617306D01*
X58553742Y-61637582D01*
X58558500Y-61661500D01*
X58558500Y-62361500D01*
X58553742Y-62385418D01*
X58540194Y-62405694D01*
X58519918Y-62419242D01*
X58496000Y-62424000D01*
X58371000Y-62424000D01*
X58347082Y-62419242D01*
X58326806Y-62405694D01*
X58313258Y-62385418D01*
X58308500Y-62361500D01*
X58308500Y-61661500D01*
X58313258Y-61637582D01*
X58326806Y-61617306D01*
X58347082Y-61603758D01*
X58371000Y-61599000D01*
X58496000Y-61599000D01*
X58519918Y-61603758D01*
G37*
G36*
X58019918Y-61603758D02*
G01*
X58040194Y-61617306D01*
X58053742Y-61637582D01*
X58058500Y-61661500D01*
X58058500Y-62361500D01*
X58053742Y-62385418D01*
X58040194Y-62405694D01*
X58019918Y-62419242D01*
X57996000Y-62424000D01*
X57871000Y-62424000D01*
X57847082Y-62419242D01*
X57826806Y-62405694D01*
X57813258Y-62385418D01*
X57808500Y-62361500D01*
X57808500Y-61661500D01*
X57813258Y-61637582D01*
X57826806Y-61617306D01*
X57847082Y-61603758D01*
X57871000Y-61599000D01*
X57996000Y-61599000D01*
X58019918Y-61603758D01*
G37*
G36*
X57519918Y-61603758D02*
G01*
X57540194Y-61617306D01*
X57553742Y-61637582D01*
X57558500Y-61661500D01*
X57558500Y-62361500D01*
X57553742Y-62385418D01*
X57540194Y-62405694D01*
X57519918Y-62419242D01*
X57496000Y-62424000D01*
X57371000Y-62424000D01*
X57347082Y-62419242D01*
X57326806Y-62405694D01*
X57313258Y-62385418D01*
X57308500Y-62361500D01*
X57308500Y-61661500D01*
X57313258Y-61637582D01*
X57326806Y-61617306D01*
X57347082Y-61603758D01*
X57371000Y-61599000D01*
X57496000Y-61599000D01*
X57519918Y-61603758D01*
G37*
G36*
X57019918Y-61603758D02*
G01*
X57040194Y-61617306D01*
X57053742Y-61637582D01*
X57058500Y-61661500D01*
X57058500Y-62361500D01*
X57053742Y-62385418D01*
X57040194Y-62405694D01*
X57019918Y-62419242D01*
X56996000Y-62424000D01*
X56871000Y-62424000D01*
X56847082Y-62419242D01*
X56826806Y-62405694D01*
X56813258Y-62385418D01*
X56808500Y-62361500D01*
X56808500Y-61661500D01*
X56813258Y-61637582D01*
X56826806Y-61617306D01*
X56847082Y-61603758D01*
X56871000Y-61599000D01*
X56996000Y-61599000D01*
X57019918Y-61603758D01*
G37*
G36*
X56594918Y-61178758D02*
G01*
X56615194Y-61192306D01*
X56628742Y-61212582D01*
X56633500Y-61236500D01*
X56633500Y-61361500D01*
X56628742Y-61385418D01*
X56615194Y-61405694D01*
X56594918Y-61419242D01*
X56571000Y-61424000D01*
X55871000Y-61424000D01*
X55847082Y-61419242D01*
X55826806Y-61405694D01*
X55813258Y-61385418D01*
X55808500Y-61361500D01*
X55808500Y-61236500D01*
X55813258Y-61212582D01*
X55826806Y-61192306D01*
X55847082Y-61178758D01*
X55871000Y-61174000D01*
X56571000Y-61174000D01*
X56594918Y-61178758D01*
G37*
G36*
X56594918Y-60678758D02*
G01*
X56615194Y-60692306D01*
X56628742Y-60712582D01*
X56633500Y-60736500D01*
X56633500Y-60861500D01*
X56628742Y-60885418D01*
X56615194Y-60905694D01*
X56594918Y-60919242D01*
X56571000Y-60924000D01*
X55871000Y-60924000D01*
X55847082Y-60919242D01*
X55826806Y-60905694D01*
X55813258Y-60885418D01*
X55808500Y-60861500D01*
X55808500Y-60736500D01*
X55813258Y-60712582D01*
X55826806Y-60692306D01*
X55847082Y-60678758D01*
X55871000Y-60674000D01*
X56571000Y-60674000D01*
X56594918Y-60678758D01*
G37*
G36*
X56594918Y-60178758D02*
G01*
X56615194Y-60192306D01*
X56628742Y-60212582D01*
X56633500Y-60236500D01*
X56633500Y-60361500D01*
X56628742Y-60385418D01*
X56615194Y-60405694D01*
X56594918Y-60419242D01*
X56571000Y-60424000D01*
X55871000Y-60424000D01*
X55847082Y-60419242D01*
X55826806Y-60405694D01*
X55813258Y-60385418D01*
X55808500Y-60361500D01*
X55808500Y-60236500D01*
X55813258Y-60212582D01*
X55826806Y-60192306D01*
X55847082Y-60178758D01*
X55871000Y-60174000D01*
X56571000Y-60174000D01*
X56594918Y-60178758D01*
G37*
G36*
X56594918Y-59678758D02*
G01*
X56615194Y-59692306D01*
X56628742Y-59712582D01*
X56633500Y-59736500D01*
X56633500Y-59861500D01*
X56628742Y-59885418D01*
X56615194Y-59905694D01*
X56594918Y-59919242D01*
X56571000Y-59924000D01*
X55871000Y-59924000D01*
X55847082Y-59919242D01*
X55826806Y-59905694D01*
X55813258Y-59885418D01*
X55808500Y-59861500D01*
X55808500Y-59736500D01*
X55813258Y-59712582D01*
X55826806Y-59692306D01*
X55847082Y-59678758D01*
X55871000Y-59674000D01*
X56571000Y-59674000D01*
X56594918Y-59678758D01*
G37*
G36*
X57497013Y-59792131D02*
G01*
X57552976Y-59829524D01*
X57590369Y-59885487D01*
X57603500Y-59951500D01*
X57603500Y-60296500D01*
X57590369Y-60362513D01*
X57552976Y-60418476D01*
X57497013Y-60455869D01*
X57431000Y-60469000D01*
X57086000Y-60469000D01*
X57019987Y-60455869D01*
X56964024Y-60418476D01*
X56926631Y-60362513D01*
X56913500Y-60296500D01*
X56913500Y-59951500D01*
X56926631Y-59885487D01*
X56964024Y-59829524D01*
X57019987Y-59792131D01*
X57086000Y-59779000D01*
X57431000Y-59779000D01*
X57497013Y-59792131D01*
G37*
G36*
X58347013Y-59792131D02*
G01*
X58402976Y-59829524D01*
X58440369Y-59885487D01*
X58453500Y-59951500D01*
X58453500Y-60296500D01*
X58440369Y-60362513D01*
X58402976Y-60418476D01*
X58347013Y-60455869D01*
X58281000Y-60469000D01*
X57936000Y-60469000D01*
X57869987Y-60455869D01*
X57814024Y-60418476D01*
X57776631Y-60362513D01*
X57763500Y-60296500D01*
X57763500Y-59951500D01*
X57776631Y-59885487D01*
X57814024Y-59829524D01*
X57869987Y-59792131D01*
X57936000Y-59779000D01*
X58281000Y-59779000D01*
X58347013Y-59792131D01*
G37*
G36*
X57497013Y-60642131D02*
G01*
X57552976Y-60679524D01*
X57590369Y-60735487D01*
X57603500Y-60801500D01*
X57603500Y-61146500D01*
X57590369Y-61212513D01*
X57552976Y-61268476D01*
X57497013Y-61305869D01*
X57431000Y-61319000D01*
X57086000Y-61319000D01*
X57019987Y-61305869D01*
X56964024Y-61268476D01*
X56926631Y-61212513D01*
X56913500Y-61146500D01*
X56913500Y-60801500D01*
X56926631Y-60735487D01*
X56964024Y-60679524D01*
X57019987Y-60642131D01*
X57086000Y-60629000D01*
X57431000Y-60629000D01*
X57497013Y-60642131D01*
G37*
G36*
X58347013Y-60642131D02*
G01*
X58402976Y-60679524D01*
X58440369Y-60735487D01*
X58453500Y-60801500D01*
X58453500Y-61146500D01*
X58440369Y-61212513D01*
X58402976Y-61268476D01*
X58347013Y-61305869D01*
X58281000Y-61319000D01*
X57936000Y-61319000D01*
X57869987Y-61305869D01*
X57814024Y-61268476D01*
X57776631Y-61212513D01*
X57763500Y-61146500D01*
X57763500Y-60801500D01*
X57776631Y-60735487D01*
X57814024Y-60679524D01*
X57869987Y-60642131D01*
X57936000Y-60629000D01*
X58281000Y-60629000D01*
X58347013Y-60642131D01*
G37*
G36*
X36042946Y-49548728D02*
G01*
X36090798Y-49580702D01*
X36122772Y-49628554D01*
X36134000Y-49685000D01*
X36134000Y-49980000D01*
X36122772Y-50036446D01*
X36090798Y-50084298D01*
X36042946Y-50116272D01*
X35986500Y-50127500D01*
X35641500Y-50127500D01*
X35585054Y-50116272D01*
X35537202Y-50084298D01*
X35505228Y-50036446D01*
X35494000Y-49980000D01*
X35494000Y-49685000D01*
X35505228Y-49628554D01*
X35537202Y-49580702D01*
X35585054Y-49548728D01*
X35641500Y-49537500D01*
X35986500Y-49537500D01*
X36042946Y-49548728D01*
G37*
G36*
X36042946Y-48578728D02*
G01*
X36090798Y-48610702D01*
X36122772Y-48658554D01*
X36134000Y-48715000D01*
X36134000Y-49010000D01*
X36122772Y-49066446D01*
X36090798Y-49114298D01*
X36042946Y-49146272D01*
X35986500Y-49157500D01*
X35641500Y-49157500D01*
X35585054Y-49146272D01*
X35537202Y-49114298D01*
X35505228Y-49066446D01*
X35494000Y-49010000D01*
X35494000Y-48715000D01*
X35505228Y-48658554D01*
X35537202Y-48610702D01*
X35585054Y-48578728D01*
X35641500Y-48567500D01*
X35986500Y-48567500D01*
X36042946Y-48578728D01*
G37*
G36*
X69441970Y-1463321D02*
G01*
X69498744Y-1501256D01*
X69536679Y-1558030D01*
X69550000Y-1625000D01*
X69550000Y-5275000D01*
X69536679Y-5341970D01*
X69498744Y-5398744D01*
X69441970Y-5436679D01*
X69375000Y-5450000D01*
X69025000Y-5450000D01*
X68958030Y-5436679D01*
X68901256Y-5398744D01*
X68863321Y-5341970D01*
X68850000Y-5275000D01*
X68850000Y-1625000D01*
X68863321Y-1558030D01*
X68901256Y-1501256D01*
X68958030Y-1463321D01*
X69025000Y-1450000D01*
X69375000Y-1450000D01*
X69441970Y-1463321D01*
G37*
G36*
X70441970Y-1463321D02*
G01*
X70498744Y-1501256D01*
X70536679Y-1558030D01*
X70550000Y-1625000D01*
X70550000Y-5275000D01*
X70536679Y-5341970D01*
X70498744Y-5398744D01*
X70441970Y-5436679D01*
X70375000Y-5450000D01*
X70025000Y-5450000D01*
X69958030Y-5436679D01*
X69901256Y-5398744D01*
X69863321Y-5341970D01*
X69850000Y-5275000D01*
X69850000Y-1625000D01*
X69863321Y-1558030D01*
X69901256Y-1501256D01*
X69958030Y-1463321D01*
X70025000Y-1450000D01*
X70375000Y-1450000D01*
X70441970Y-1463321D01*
G37*
G36*
X71441970Y-1463321D02*
G01*
X71498744Y-1501256D01*
X71536679Y-1558030D01*
X71550000Y-1625000D01*
X71550000Y-5275000D01*
X71536679Y-5341970D01*
X71498744Y-5398744D01*
X71441970Y-5436679D01*
X71375000Y-5450000D01*
X71025000Y-5450000D01*
X70958030Y-5436679D01*
X70901256Y-5398744D01*
X70863321Y-5341970D01*
X70850000Y-5275000D01*
X70850000Y-1625000D01*
X70863321Y-1558030D01*
X70901256Y-1501256D01*
X70958030Y-1463321D01*
X71025000Y-1450000D01*
X71375000Y-1450000D01*
X71441970Y-1463321D01*
G37*
G36*
X72441970Y-1463321D02*
G01*
X72498744Y-1501256D01*
X72536679Y-1558030D01*
X72550000Y-1625000D01*
X72550000Y-5275000D01*
X72536679Y-5341970D01*
X72498744Y-5398744D01*
X72441970Y-5436679D01*
X72375000Y-5450000D01*
X72025000Y-5450000D01*
X71958030Y-5436679D01*
X71901256Y-5398744D01*
X71863321Y-5341970D01*
X71850000Y-5275000D01*
X71850000Y-1625000D01*
X71863321Y-1558030D01*
X71901256Y-1501256D01*
X71958030Y-1463321D01*
X72025000Y-1450000D01*
X72375000Y-1450000D01*
X72441970Y-1463321D01*
G37*
G36*
X73441970Y-1463321D02*
G01*
X73498744Y-1501256D01*
X73536679Y-1558030D01*
X73550000Y-1625000D01*
X73550000Y-5275000D01*
X73536679Y-5341970D01*
X73498744Y-5398744D01*
X73441970Y-5436679D01*
X73375000Y-5450000D01*
X73025000Y-5450000D01*
X72958030Y-5436679D01*
X72901256Y-5398744D01*
X72863321Y-5341970D01*
X72850000Y-5275000D01*
X72850000Y-1625000D01*
X72863321Y-1558030D01*
X72901256Y-1501256D01*
X72958030Y-1463321D01*
X73025000Y-1450000D01*
X73375000Y-1450000D01*
X73441970Y-1463321D01*
G37*
G36*
X74441970Y-1463321D02*
G01*
X74498744Y-1501256D01*
X74536679Y-1558030D01*
X74550000Y-1625000D01*
X74550000Y-5275000D01*
X74536679Y-5341970D01*
X74498744Y-5398744D01*
X74441970Y-5436679D01*
X74375000Y-5450000D01*
X74025000Y-5450000D01*
X73958030Y-5436679D01*
X73901256Y-5398744D01*
X73863321Y-5341970D01*
X73850000Y-5275000D01*
X73850000Y-1625000D01*
X73863321Y-1558030D01*
X73901256Y-1501256D01*
X73958030Y-1463321D01*
X74025000Y-1450000D01*
X74375000Y-1450000D01*
X74441970Y-1463321D01*
G37*
G36*
X75441970Y-1463321D02*
G01*
X75498744Y-1501256D01*
X75536679Y-1558030D01*
X75550000Y-1625000D01*
X75550000Y-5275000D01*
X75536679Y-5341970D01*
X75498744Y-5398744D01*
X75441970Y-5436679D01*
X75375000Y-5450000D01*
X75025000Y-5450000D01*
X74958030Y-5436679D01*
X74901256Y-5398744D01*
X74863321Y-5341970D01*
X74850000Y-5275000D01*
X74850000Y-1625000D01*
X74863321Y-1558030D01*
X74901256Y-1501256D01*
X74958030Y-1463321D01*
X75025000Y-1450000D01*
X75375000Y-1450000D01*
X75441970Y-1463321D01*
G37*
G36*
X76441970Y-1463321D02*
G01*
X76498744Y-1501256D01*
X76536679Y-1558030D01*
X76550000Y-1625000D01*
X76550000Y-5275000D01*
X76536679Y-5341970D01*
X76498744Y-5398744D01*
X76441970Y-5436679D01*
X76375000Y-5450000D01*
X76025000Y-5450000D01*
X75958030Y-5436679D01*
X75901256Y-5398744D01*
X75863321Y-5341970D01*
X75850000Y-5275000D01*
X75850000Y-1625000D01*
X75863321Y-1558030D01*
X75901256Y-1501256D01*
X75958030Y-1463321D01*
X76025000Y-1450000D01*
X76375000Y-1450000D01*
X76441970Y-1463321D01*
G37*
G36*
X77441970Y-1463321D02*
G01*
X77498744Y-1501256D01*
X77536679Y-1558030D01*
X77550000Y-1625000D01*
X77550000Y-5275000D01*
X77536679Y-5341970D01*
X77498744Y-5398744D01*
X77441970Y-5436679D01*
X77375000Y-5450000D01*
X77025000Y-5450000D01*
X76958030Y-5436679D01*
X76901256Y-5398744D01*
X76863321Y-5341970D01*
X76850000Y-5275000D01*
X76850000Y-1625000D01*
X76863321Y-1558030D01*
X76901256Y-1501256D01*
X76958030Y-1463321D01*
X77025000Y-1450000D01*
X77375000Y-1450000D01*
X77441970Y-1463321D01*
G37*
G36*
X78441970Y-1463321D02*
G01*
X78498744Y-1501256D01*
X78536679Y-1558030D01*
X78550000Y-1625000D01*
X78550000Y-5275000D01*
X78536679Y-5341970D01*
X78498744Y-5398744D01*
X78441970Y-5436679D01*
X78375000Y-5450000D01*
X78025000Y-5450000D01*
X77958030Y-5436679D01*
X77901256Y-5398744D01*
X77863321Y-5341970D01*
X77850000Y-5275000D01*
X77850000Y-1625000D01*
X77863321Y-1558030D01*
X77901256Y-1501256D01*
X77958030Y-1463321D01*
X78025000Y-1450000D01*
X78375000Y-1450000D01*
X78441970Y-1463321D01*
G37*
G36*
X79441970Y-1463321D02*
G01*
X79498744Y-1501256D01*
X79536679Y-1558030D01*
X79550000Y-1625000D01*
X79550000Y-5275000D01*
X79536679Y-5341970D01*
X79498744Y-5398744D01*
X79441970Y-5436679D01*
X79375000Y-5450000D01*
X79025000Y-5450000D01*
X78958030Y-5436679D01*
X78901256Y-5398744D01*
X78863321Y-5341970D01*
X78850000Y-5275000D01*
X78850000Y-1625000D01*
X78863321Y-1558030D01*
X78901256Y-1501256D01*
X78958030Y-1463321D01*
X79025000Y-1450000D01*
X79375000Y-1450000D01*
X79441970Y-1463321D01*
G37*
G36*
X82441970Y-1463321D02*
G01*
X82498744Y-1501256D01*
X82536679Y-1558030D01*
X82550000Y-1625000D01*
X82550000Y-5275000D01*
X82536679Y-5341970D01*
X82498744Y-5398744D01*
X82441970Y-5436679D01*
X82375000Y-5450000D01*
X82025000Y-5450000D01*
X81958030Y-5436679D01*
X81901256Y-5398744D01*
X81863321Y-5341970D01*
X81850000Y-5275000D01*
X81850000Y-1625000D01*
X81863321Y-1558030D01*
X81901256Y-1501256D01*
X81958030Y-1463321D01*
X82025000Y-1450000D01*
X82375000Y-1450000D01*
X82441970Y-1463321D01*
G37*
G36*
X83441970Y-1463321D02*
G01*
X83498744Y-1501256D01*
X83536679Y-1558030D01*
X83550000Y-1625000D01*
X83550000Y-5275000D01*
X83536679Y-5341970D01*
X83498744Y-5398744D01*
X83441970Y-5436679D01*
X83375000Y-5450000D01*
X83025000Y-5450000D01*
X82958030Y-5436679D01*
X82901256Y-5398744D01*
X82863321Y-5341970D01*
X82850000Y-5275000D01*
X82850000Y-1625000D01*
X82863321Y-1558030D01*
X82901256Y-1501256D01*
X82958030Y-1463321D01*
X83025000Y-1450000D01*
X83375000Y-1450000D01*
X83441970Y-1463321D01*
G37*
G36*
X84441970Y-1463321D02*
G01*
X84498744Y-1501256D01*
X84536679Y-1558030D01*
X84550000Y-1625000D01*
X84550000Y-5275000D01*
X84536679Y-5341970D01*
X84498744Y-5398744D01*
X84441970Y-5436679D01*
X84375000Y-5450000D01*
X84025000Y-5450000D01*
X83958030Y-5436679D01*
X83901256Y-5398744D01*
X83863321Y-5341970D01*
X83850000Y-5275000D01*
X83850000Y-1625000D01*
X83863321Y-1558030D01*
X83901256Y-1501256D01*
X83958030Y-1463321D01*
X84025000Y-1450000D01*
X84375000Y-1450000D01*
X84441970Y-1463321D01*
G37*
G36*
X85441970Y-1463321D02*
G01*
X85498744Y-1501256D01*
X85536679Y-1558030D01*
X85550000Y-1625000D01*
X85550000Y-5275000D01*
X85536679Y-5341970D01*
X85498744Y-5398744D01*
X85441970Y-5436679D01*
X85375000Y-5450000D01*
X85025000Y-5450000D01*
X84958030Y-5436679D01*
X84901256Y-5398744D01*
X84863321Y-5341970D01*
X84850000Y-5275000D01*
X84850000Y-1625000D01*
X84863321Y-1558030D01*
X84901256Y-1501256D01*
X84958030Y-1463321D01*
X85025000Y-1450000D01*
X85375000Y-1450000D01*
X85441970Y-1463321D01*
G37*
G36*
X86441970Y-1463321D02*
G01*
X86498744Y-1501256D01*
X86536679Y-1558030D01*
X86550000Y-1625000D01*
X86550000Y-5275000D01*
X86536679Y-5341970D01*
X86498744Y-5398744D01*
X86441970Y-5436679D01*
X86375000Y-5450000D01*
X86025000Y-5450000D01*
X85958030Y-5436679D01*
X85901256Y-5398744D01*
X85863321Y-5341970D01*
X85850000Y-5275000D01*
X85850000Y-1625000D01*
X85863321Y-1558030D01*
X85901256Y-1501256D01*
X85958030Y-1463321D01*
X86025000Y-1450000D01*
X86375000Y-1450000D01*
X86441970Y-1463321D01*
G37*
G36*
X87441970Y-1463321D02*
G01*
X87498744Y-1501256D01*
X87536679Y-1558030D01*
X87550000Y-1625000D01*
X87550000Y-5275000D01*
X87536679Y-5341970D01*
X87498744Y-5398744D01*
X87441970Y-5436679D01*
X87375000Y-5450000D01*
X87025000Y-5450000D01*
X86958030Y-5436679D01*
X86901256Y-5398744D01*
X86863321Y-5341970D01*
X86850000Y-5275000D01*
X86850000Y-1625000D01*
X86863321Y-1558030D01*
X86901256Y-1501256D01*
X86958030Y-1463321D01*
X87025000Y-1450000D01*
X87375000Y-1450000D01*
X87441970Y-1463321D01*
G37*
G36*
X88441970Y-1463321D02*
G01*
X88498744Y-1501256D01*
X88536679Y-1558030D01*
X88550000Y-1625000D01*
X88550000Y-5275000D01*
X88536679Y-5341970D01*
X88498744Y-5398744D01*
X88441970Y-5436679D01*
X88375000Y-5450000D01*
X88025000Y-5450000D01*
X87958030Y-5436679D01*
X87901256Y-5398744D01*
X87863321Y-5341970D01*
X87850000Y-5275000D01*
X87850000Y-1625000D01*
X87863321Y-1558030D01*
X87901256Y-1501256D01*
X87958030Y-1463321D01*
X88025000Y-1450000D01*
X88375000Y-1450000D01*
X88441970Y-1463321D01*
G37*
G36*
X89441970Y-1463321D02*
G01*
X89498744Y-1501256D01*
X89536679Y-1558030D01*
X89550000Y-1625000D01*
X89550000Y-5275000D01*
X89536679Y-5341970D01*
X89498744Y-5398744D01*
X89441970Y-5436679D01*
X89375000Y-5450000D01*
X89025000Y-5450000D01*
X88958030Y-5436679D01*
X88901256Y-5398744D01*
X88863321Y-5341970D01*
X88850000Y-5275000D01*
X88850000Y-1625000D01*
X88863321Y-1558030D01*
X88901256Y-1501256D01*
X88958030Y-1463321D01*
X89025000Y-1450000D01*
X89375000Y-1450000D01*
X89441970Y-1463321D01*
G37*
G36*
X90441970Y-1463321D02*
G01*
X90498744Y-1501256D01*
X90536679Y-1558030D01*
X90550000Y-1625000D01*
X90550000Y-5275000D01*
X90536679Y-5341970D01*
X90498744Y-5398744D01*
X90441970Y-5436679D01*
X90375000Y-5450000D01*
X90025000Y-5450000D01*
X89958030Y-5436679D01*
X89901256Y-5398744D01*
X89863321Y-5341970D01*
X89850000Y-5275000D01*
X89850000Y-1625000D01*
X89863321Y-1558030D01*
X89901256Y-1501256D01*
X89958030Y-1463321D01*
X90025000Y-1450000D01*
X90375000Y-1450000D01*
X90441970Y-1463321D01*
G37*
G36*
X91441970Y-1463321D02*
G01*
X91498744Y-1501256D01*
X91536679Y-1558030D01*
X91550000Y-1625000D01*
X91550000Y-5275000D01*
X91536679Y-5341970D01*
X91498744Y-5398744D01*
X91441970Y-5436679D01*
X91375000Y-5450000D01*
X91025000Y-5450000D01*
X90958030Y-5436679D01*
X90901256Y-5398744D01*
X90863321Y-5341970D01*
X90850000Y-5275000D01*
X90850000Y-1625000D01*
X90863321Y-1558030D01*
X90901256Y-1501256D01*
X90958030Y-1463321D01*
X91025000Y-1450000D01*
X91375000Y-1450000D01*
X91441970Y-1463321D01*
G37*
G36*
X92441970Y-1463321D02*
G01*
X92498744Y-1501256D01*
X92536679Y-1558030D01*
X92550000Y-1625000D01*
X92550000Y-5275000D01*
X92536679Y-5341970D01*
X92498744Y-5398744D01*
X92441970Y-5436679D01*
X92375000Y-5450000D01*
X92025000Y-5450000D01*
X91958030Y-5436679D01*
X91901256Y-5398744D01*
X91863321Y-5341970D01*
X91850000Y-5275000D01*
X91850000Y-1625000D01*
X91863321Y-1558030D01*
X91901256Y-1501256D01*
X91958030Y-1463321D01*
X92025000Y-1450000D01*
X92375000Y-1450000D01*
X92441970Y-1463321D01*
G37*
G36*
X93441970Y-1463321D02*
G01*
X93498744Y-1501256D01*
X93536679Y-1558030D01*
X93550000Y-1625000D01*
X93550000Y-5275000D01*
X93536679Y-5341970D01*
X93498744Y-5398744D01*
X93441970Y-5436679D01*
X93375000Y-5450000D01*
X93025000Y-5450000D01*
X92958030Y-5436679D01*
X92901256Y-5398744D01*
X92863321Y-5341970D01*
X92850000Y-5275000D01*
X92850000Y-1625000D01*
X92863321Y-1558030D01*
X92901256Y-1501256D01*
X92958030Y-1463321D01*
X93025000Y-1450000D01*
X93375000Y-1450000D01*
X93441970Y-1463321D01*
G37*
G36*
X94441970Y-1463321D02*
G01*
X94498744Y-1501256D01*
X94536679Y-1558030D01*
X94550000Y-1625000D01*
X94550000Y-5275000D01*
X94536679Y-5341970D01*
X94498744Y-5398744D01*
X94441970Y-5436679D01*
X94375000Y-5450000D01*
X94025000Y-5450000D01*
X93958030Y-5436679D01*
X93901256Y-5398744D01*
X93863321Y-5341970D01*
X93850000Y-5275000D01*
X93850000Y-1625000D01*
X93863321Y-1558030D01*
X93901256Y-1501256D01*
X93958030Y-1463321D01*
X94025000Y-1450000D01*
X94375000Y-1450000D01*
X94441970Y-1463321D01*
G37*
G36*
X95441970Y-1463321D02*
G01*
X95498744Y-1501256D01*
X95536679Y-1558030D01*
X95550000Y-1625000D01*
X95550000Y-5275000D01*
X95536679Y-5341970D01*
X95498744Y-5398744D01*
X95441970Y-5436679D01*
X95375000Y-5450000D01*
X95025000Y-5450000D01*
X94958030Y-5436679D01*
X94901256Y-5398744D01*
X94863321Y-5341970D01*
X94850000Y-5275000D01*
X94850000Y-1625000D01*
X94863321Y-1558030D01*
X94901256Y-1501256D01*
X94958030Y-1463321D01*
X95025000Y-1450000D01*
X95375000Y-1450000D01*
X95441970Y-1463321D01*
G37*
G36*
X96441970Y-1463321D02*
G01*
X96498744Y-1501256D01*
X96536679Y-1558030D01*
X96550000Y-1625000D01*
X96550000Y-5275000D01*
X96536679Y-5341970D01*
X96498744Y-5398744D01*
X96441970Y-5436679D01*
X96375000Y-5450000D01*
X96025000Y-5450000D01*
X95958030Y-5436679D01*
X95901256Y-5398744D01*
X95863321Y-5341970D01*
X95850000Y-5275000D01*
X95850000Y-1625000D01*
X95863321Y-1558030D01*
X95901256Y-1501256D01*
X95958030Y-1463321D01*
X96025000Y-1450000D01*
X96375000Y-1450000D01*
X96441970Y-1463321D01*
G37*
G36*
X97441970Y-1463321D02*
G01*
X97498744Y-1501256D01*
X97536679Y-1558030D01*
X97550000Y-1625000D01*
X97550000Y-5275000D01*
X97536679Y-5341970D01*
X97498744Y-5398744D01*
X97441970Y-5436679D01*
X97375000Y-5450000D01*
X97025000Y-5450000D01*
X96958030Y-5436679D01*
X96901256Y-5398744D01*
X96863321Y-5341970D01*
X96850000Y-5275000D01*
X96850000Y-1625000D01*
X96863321Y-1558030D01*
X96901256Y-1501256D01*
X96958030Y-1463321D01*
X97025000Y-1450000D01*
X97375000Y-1450000D01*
X97441970Y-1463321D01*
G37*
G36*
X98441970Y-1463321D02*
G01*
X98498744Y-1501256D01*
X98536679Y-1558030D01*
X98550000Y-1625000D01*
X98550000Y-5275000D01*
X98536679Y-5341970D01*
X98498744Y-5398744D01*
X98441970Y-5436679D01*
X98375000Y-5450000D01*
X98025000Y-5450000D01*
X97958030Y-5436679D01*
X97901256Y-5398744D01*
X97863321Y-5341970D01*
X97850000Y-5275000D01*
X97850000Y-1625000D01*
X97863321Y-1558030D01*
X97901256Y-1501256D01*
X97958030Y-1463321D01*
X98025000Y-1450000D01*
X98375000Y-1450000D01*
X98441970Y-1463321D01*
G37*
G36*
X99441970Y-1463321D02*
G01*
X99498744Y-1501256D01*
X99536679Y-1558030D01*
X99550000Y-1625000D01*
X99550000Y-5275000D01*
X99536679Y-5341970D01*
X99498744Y-5398744D01*
X99441970Y-5436679D01*
X99375000Y-5450000D01*
X99025000Y-5450000D01*
X98958030Y-5436679D01*
X98901256Y-5398744D01*
X98863321Y-5341970D01*
X98850000Y-5275000D01*
X98850000Y-1625000D01*
X98863321Y-1558030D01*
X98901256Y-1501256D01*
X98958030Y-1463321D01*
X99025000Y-1450000D01*
X99375000Y-1450000D01*
X99441970Y-1463321D01*
G37*
G36*
X100441970Y-1463321D02*
G01*
X100498744Y-1501256D01*
X100536679Y-1558030D01*
X100550000Y-1625000D01*
X100550000Y-5275000D01*
X100536679Y-5341970D01*
X100498744Y-5398744D01*
X100441970Y-5436679D01*
X100375000Y-5450000D01*
X100025000Y-5450000D01*
X99958030Y-5436679D01*
X99901256Y-5398744D01*
X99863321Y-5341970D01*
X99850000Y-5275000D01*
X99850000Y-1625000D01*
X99863321Y-1558030D01*
X99901256Y-1501256D01*
X99958030Y-1463321D01*
X100025000Y-1450000D01*
X100375000Y-1450000D01*
X100441970Y-1463321D01*
G37*
G36*
X101441970Y-1463321D02*
G01*
X101498744Y-1501256D01*
X101536679Y-1558030D01*
X101550000Y-1625000D01*
X101550000Y-5275000D01*
X101536679Y-5341970D01*
X101498744Y-5398744D01*
X101441970Y-5436679D01*
X101375000Y-5450000D01*
X101025000Y-5450000D01*
X100958030Y-5436679D01*
X100901256Y-5398744D01*
X100863321Y-5341970D01*
X100850000Y-5275000D01*
X100850000Y-1625000D01*
X100863321Y-1558030D01*
X100901256Y-1501256D01*
X100958030Y-1463321D01*
X101025000Y-1450000D01*
X101375000Y-1450000D01*
X101441970Y-1463321D01*
G37*
G36*
X102441970Y-1463321D02*
G01*
X102498744Y-1501256D01*
X102536679Y-1558030D01*
X102550000Y-1625000D01*
X102550000Y-5275000D01*
X102536679Y-5341970D01*
X102498744Y-5398744D01*
X102441970Y-5436679D01*
X102375000Y-5450000D01*
X102025000Y-5450000D01*
X101958030Y-5436679D01*
X101901256Y-5398744D01*
X101863321Y-5341970D01*
X101850000Y-5275000D01*
X101850000Y-1625000D01*
X101863321Y-1558030D01*
X101901256Y-1501256D01*
X101958030Y-1463321D01*
X102025000Y-1450000D01*
X102375000Y-1450000D01*
X102441970Y-1463321D01*
G37*
G36*
X103441970Y-1463321D02*
G01*
X103498744Y-1501256D01*
X103536679Y-1558030D01*
X103550000Y-1625000D01*
X103550000Y-5275000D01*
X103536679Y-5341970D01*
X103498744Y-5398744D01*
X103441970Y-5436679D01*
X103375000Y-5450000D01*
X103025000Y-5450000D01*
X102958030Y-5436679D01*
X102901256Y-5398744D01*
X102863321Y-5341970D01*
X102850000Y-5275000D01*
X102850000Y-1625000D01*
X102863321Y-1558030D01*
X102901256Y-1501256D01*
X102958030Y-1463321D01*
X103025000Y-1450000D01*
X103375000Y-1450000D01*
X103441970Y-1463321D01*
G37*
G36*
X104441970Y-1463321D02*
G01*
X104498744Y-1501256D01*
X104536679Y-1558030D01*
X104550000Y-1625000D01*
X104550000Y-5275000D01*
X104536679Y-5341970D01*
X104498744Y-5398744D01*
X104441970Y-5436679D01*
X104375000Y-5450000D01*
X104025000Y-5450000D01*
X103958030Y-5436679D01*
X103901256Y-5398744D01*
X103863321Y-5341970D01*
X103850000Y-5275000D01*
X103850000Y-1625000D01*
X103863321Y-1558030D01*
X103901256Y-1501256D01*
X103958030Y-1463321D01*
X104025000Y-1450000D01*
X104375000Y-1450000D01*
X104441970Y-1463321D01*
G37*
G36*
X105441970Y-1463321D02*
G01*
X105498744Y-1501256D01*
X105536679Y-1558030D01*
X105550000Y-1625000D01*
X105550000Y-5275000D01*
X105536679Y-5341970D01*
X105498744Y-5398744D01*
X105441970Y-5436679D01*
X105375000Y-5450000D01*
X105025000Y-5450000D01*
X104958030Y-5436679D01*
X104901256Y-5398744D01*
X104863321Y-5341970D01*
X104850000Y-5275000D01*
X104850000Y-1625000D01*
X104863321Y-1558030D01*
X104901256Y-1501256D01*
X104958030Y-1463321D01*
X105025000Y-1450000D01*
X105375000Y-1450000D01*
X105441970Y-1463321D01*
G37*
G36*
X106441970Y-1463321D02*
G01*
X106498744Y-1501256D01*
X106536679Y-1558030D01*
X106550000Y-1625000D01*
X106550000Y-5275000D01*
X106536679Y-5341970D01*
X106498744Y-5398744D01*
X106441970Y-5436679D01*
X106375000Y-5450000D01*
X106025000Y-5450000D01*
X105958030Y-5436679D01*
X105901256Y-5398744D01*
X105863321Y-5341970D01*
X105850000Y-5275000D01*
X105850000Y-1625000D01*
X105863321Y-1558030D01*
X105901256Y-1501256D01*
X105958030Y-1463321D01*
X106025000Y-1450000D01*
X106375000Y-1450000D01*
X106441970Y-1463321D01*
G37*
G36*
X107441970Y-1463321D02*
G01*
X107498744Y-1501256D01*
X107536679Y-1558030D01*
X107550000Y-1625000D01*
X107550000Y-5275000D01*
X107536679Y-5341970D01*
X107498744Y-5398744D01*
X107441970Y-5436679D01*
X107375000Y-5450000D01*
X107025000Y-5450000D01*
X106958030Y-5436679D01*
X106901256Y-5398744D01*
X106863321Y-5341970D01*
X106850000Y-5275000D01*
X106850000Y-1625000D01*
X106863321Y-1558030D01*
X106901256Y-1501256D01*
X106958030Y-1463321D01*
X107025000Y-1450000D01*
X107375000Y-1450000D01*
X107441970Y-1463321D01*
G37*
G36*
X108441970Y-1463321D02*
G01*
X108498744Y-1501256D01*
X108536679Y-1558030D01*
X108550000Y-1625000D01*
X108550000Y-5275000D01*
X108536679Y-5341970D01*
X108498744Y-5398744D01*
X108441970Y-5436679D01*
X108375000Y-5450000D01*
X108025000Y-5450000D01*
X107958030Y-5436679D01*
X107901256Y-5398744D01*
X107863321Y-5341970D01*
X107850000Y-5275000D01*
X107850000Y-1625000D01*
X107863321Y-1558030D01*
X107901256Y-1501256D01*
X107958030Y-1463321D01*
X108025000Y-1450000D01*
X108375000Y-1450000D01*
X108441970Y-1463321D01*
G37*
G36*
X109441970Y-1463321D02*
G01*
X109498744Y-1501256D01*
X109536679Y-1558030D01*
X109550000Y-1625000D01*
X109550000Y-5275000D01*
X109536679Y-5341970D01*
X109498744Y-5398744D01*
X109441970Y-5436679D01*
X109375000Y-5450000D01*
X109025000Y-5450000D01*
X108958030Y-5436679D01*
X108901256Y-5398744D01*
X108863321Y-5341970D01*
X108850000Y-5275000D01*
X108850000Y-1625000D01*
X108863321Y-1558030D01*
X108901256Y-1501256D01*
X108958030Y-1463321D01*
X109025000Y-1450000D01*
X109375000Y-1450000D01*
X109441970Y-1463321D01*
G37*
G36*
X110441970Y-1463321D02*
G01*
X110498744Y-1501256D01*
X110536679Y-1558030D01*
X110550000Y-1625000D01*
X110550000Y-5275000D01*
X110536679Y-5341970D01*
X110498744Y-5398744D01*
X110441970Y-5436679D01*
X110375000Y-5450000D01*
X110025000Y-5450000D01*
X109958030Y-5436679D01*
X109901256Y-5398744D01*
X109863321Y-5341970D01*
X109850000Y-5275000D01*
X109850000Y-1625000D01*
X109863321Y-1558030D01*
X109901256Y-1501256D01*
X109958030Y-1463321D01*
X110025000Y-1450000D01*
X110375000Y-1450000D01*
X110441970Y-1463321D01*
G37*
G36*
X111441970Y-1463321D02*
G01*
X111498744Y-1501256D01*
X111536679Y-1558030D01*
X111550000Y-1625000D01*
X111550000Y-5275000D01*
X111536679Y-5341970D01*
X111498744Y-5398744D01*
X111441970Y-5436679D01*
X111375000Y-5450000D01*
X111025000Y-5450000D01*
X110958030Y-5436679D01*
X110901256Y-5398744D01*
X110863321Y-5341970D01*
X110850000Y-5275000D01*
X110850000Y-1625000D01*
X110863321Y-1558030D01*
X110901256Y-1501256D01*
X110958030Y-1463321D01*
X111025000Y-1450000D01*
X111375000Y-1450000D01*
X111441970Y-1463321D01*
G37*
G36*
X112441970Y-1463321D02*
G01*
X112498744Y-1501256D01*
X112536679Y-1558030D01*
X112550000Y-1625000D01*
X112550000Y-5275000D01*
X112536679Y-5341970D01*
X112498744Y-5398744D01*
X112441970Y-5436679D01*
X112375000Y-5450000D01*
X112025000Y-5450000D01*
X111958030Y-5436679D01*
X111901256Y-5398744D01*
X111863321Y-5341970D01*
X111850000Y-5275000D01*
X111850000Y-1625000D01*
X111863321Y-1558030D01*
X111901256Y-1501256D01*
X111958030Y-1463321D01*
X112025000Y-1450000D01*
X112375000Y-1450000D01*
X112441970Y-1463321D01*
G37*
G36*
X113441970Y-1463321D02*
G01*
X113498744Y-1501256D01*
X113536679Y-1558030D01*
X113550000Y-1625000D01*
X113550000Y-5275000D01*
X113536679Y-5341970D01*
X113498744Y-5398744D01*
X113441970Y-5436679D01*
X113375000Y-5450000D01*
X113025000Y-5450000D01*
X112958030Y-5436679D01*
X112901256Y-5398744D01*
X112863321Y-5341970D01*
X112850000Y-5275000D01*
X112850000Y-1625000D01*
X112863321Y-1558030D01*
X112901256Y-1501256D01*
X112958030Y-1463321D01*
X113025000Y-1450000D01*
X113375000Y-1450000D01*
X113441970Y-1463321D01*
G37*
G36*
X114441970Y-1463321D02*
G01*
X114498744Y-1501256D01*
X114536679Y-1558030D01*
X114550000Y-1625000D01*
X114550000Y-5275000D01*
X114536679Y-5341970D01*
X114498744Y-5398744D01*
X114441970Y-5436679D01*
X114375000Y-5450000D01*
X114025000Y-5450000D01*
X113958030Y-5436679D01*
X113901256Y-5398744D01*
X113863321Y-5341970D01*
X113850000Y-5275000D01*
X113850000Y-1625000D01*
X113863321Y-1558030D01*
X113901256Y-1501256D01*
X113958030Y-1463321D01*
X114025000Y-1450000D01*
X114375000Y-1450000D01*
X114441970Y-1463321D01*
G37*
G36*
X115441970Y-1463321D02*
G01*
X115498744Y-1501256D01*
X115536679Y-1558030D01*
X115550000Y-1625000D01*
X115550000Y-5275000D01*
X115536679Y-5341970D01*
X115498744Y-5398744D01*
X115441970Y-5436679D01*
X115375000Y-5450000D01*
X115025000Y-5450000D01*
X114958030Y-5436679D01*
X114901256Y-5398744D01*
X114863321Y-5341970D01*
X114850000Y-5275000D01*
X114850000Y-1625000D01*
X114863321Y-1558030D01*
X114901256Y-1501256D01*
X114958030Y-1463321D01*
X115025000Y-1450000D01*
X115375000Y-1450000D01*
X115441970Y-1463321D01*
G37*
G36*
X116441970Y-1463321D02*
G01*
X116498744Y-1501256D01*
X116536679Y-1558030D01*
X116550000Y-1625000D01*
X116550000Y-5275000D01*
X116536679Y-5341970D01*
X116498744Y-5398744D01*
X116441970Y-5436679D01*
X116375000Y-5450000D01*
X116025000Y-5450000D01*
X115958030Y-5436679D01*
X115901256Y-5398744D01*
X115863321Y-5341970D01*
X115850000Y-5275000D01*
X115850000Y-1625000D01*
X115863321Y-1558030D01*
X115901256Y-1501256D01*
X115958030Y-1463321D01*
X116025000Y-1450000D01*
X116375000Y-1450000D01*
X116441970Y-1463321D01*
G37*
G36*
X117441970Y-1463321D02*
G01*
X117498744Y-1501256D01*
X117536679Y-1558030D01*
X117550000Y-1625000D01*
X117550000Y-5275000D01*
X117536679Y-5341970D01*
X117498744Y-5398744D01*
X117441970Y-5436679D01*
X117375000Y-5450000D01*
X117025000Y-5450000D01*
X116958030Y-5436679D01*
X116901256Y-5398744D01*
X116863321Y-5341970D01*
X116850000Y-5275000D01*
X116850000Y-1625000D01*
X116863321Y-1558030D01*
X116901256Y-1501256D01*
X116958030Y-1463321D01*
X117025000Y-1450000D01*
X117375000Y-1450000D01*
X117441970Y-1463321D01*
G37*
G36*
X118441970Y-1463321D02*
G01*
X118498744Y-1501256D01*
X118536679Y-1558030D01*
X118550000Y-1625000D01*
X118550000Y-5275000D01*
X118536679Y-5341970D01*
X118498744Y-5398744D01*
X118441970Y-5436679D01*
X118375000Y-5450000D01*
X118025000Y-5450000D01*
X117958030Y-5436679D01*
X117901256Y-5398744D01*
X117863321Y-5341970D01*
X117850000Y-5275000D01*
X117850000Y-1625000D01*
X117863321Y-1558030D01*
X117901256Y-1501256D01*
X117958030Y-1463321D01*
X118025000Y-1450000D01*
X118375000Y-1450000D01*
X118441970Y-1463321D01*
G37*
G36*
X119441970Y-1463321D02*
G01*
X119498744Y-1501256D01*
X119536679Y-1558030D01*
X119550000Y-1625000D01*
X119550000Y-5275000D01*
X119536679Y-5341970D01*
X119498744Y-5398744D01*
X119441970Y-5436679D01*
X119375000Y-5450000D01*
X119025000Y-5450000D01*
X118958030Y-5436679D01*
X118901256Y-5398744D01*
X118863321Y-5341970D01*
X118850000Y-5275000D01*
X118850000Y-1625000D01*
X118863321Y-1558030D01*
X118901256Y-1501256D01*
X118958030Y-1463321D01*
X119025000Y-1450000D01*
X119375000Y-1450000D01*
X119441970Y-1463321D01*
G37*
G36*
X120441970Y-1463321D02*
G01*
X120498744Y-1501256D01*
X120536679Y-1558030D01*
X120550000Y-1625000D01*
X120550000Y-5275000D01*
X120536679Y-5341970D01*
X120498744Y-5398744D01*
X120441970Y-5436679D01*
X120375000Y-5450000D01*
X120025000Y-5450000D01*
X119958030Y-5436679D01*
X119901256Y-5398744D01*
X119863321Y-5341970D01*
X119850000Y-5275000D01*
X119850000Y-1625000D01*
X119863321Y-1558030D01*
X119901256Y-1501256D01*
X119958030Y-1463321D01*
X120025000Y-1450000D01*
X120375000Y-1450000D01*
X120441970Y-1463321D01*
G37*
G36*
X121441970Y-1463321D02*
G01*
X121498744Y-1501256D01*
X121536679Y-1558030D01*
X121550000Y-1625000D01*
X121550000Y-5275000D01*
X121536679Y-5341970D01*
X121498744Y-5398744D01*
X121441970Y-5436679D01*
X121375000Y-5450000D01*
X121025000Y-5450000D01*
X120958030Y-5436679D01*
X120901256Y-5398744D01*
X120863321Y-5341970D01*
X120850000Y-5275000D01*
X120850000Y-1625000D01*
X120863321Y-1558030D01*
X120901256Y-1501256D01*
X120958030Y-1463321D01*
X121025000Y-1450000D01*
X121375000Y-1450000D01*
X121441970Y-1463321D01*
G37*
G36*
X122441970Y-1463321D02*
G01*
X122498744Y-1501256D01*
X122536679Y-1558030D01*
X122550000Y-1625000D01*
X122550000Y-5275000D01*
X122536679Y-5341970D01*
X122498744Y-5398744D01*
X122441970Y-5436679D01*
X122375000Y-5450000D01*
X122025000Y-5450000D01*
X121958030Y-5436679D01*
X121901256Y-5398744D01*
X121863321Y-5341970D01*
X121850000Y-5275000D01*
X121850000Y-1625000D01*
X121863321Y-1558030D01*
X121901256Y-1501256D01*
X121958030Y-1463321D01*
X122025000Y-1450000D01*
X122375000Y-1450000D01*
X122441970Y-1463321D01*
G37*
G36*
X123441970Y-1463321D02*
G01*
X123498744Y-1501256D01*
X123536679Y-1558030D01*
X123550000Y-1625000D01*
X123550000Y-5275000D01*
X123536679Y-5341970D01*
X123498744Y-5398744D01*
X123441970Y-5436679D01*
X123375000Y-5450000D01*
X123025000Y-5450000D01*
X122958030Y-5436679D01*
X122901256Y-5398744D01*
X122863321Y-5341970D01*
X122850000Y-5275000D01*
X122850000Y-1625000D01*
X122863321Y-1558030D01*
X122901256Y-1501256D01*
X122958030Y-1463321D01*
X123025000Y-1450000D01*
X123375000Y-1450000D01*
X123441970Y-1463321D01*
G37*
G36*
X124441970Y-1463321D02*
G01*
X124498744Y-1501256D01*
X124536679Y-1558030D01*
X124550000Y-1625000D01*
X124550000Y-5275000D01*
X124536679Y-5341970D01*
X124498744Y-5398744D01*
X124441970Y-5436679D01*
X124375000Y-5450000D01*
X124025000Y-5450000D01*
X123958030Y-5436679D01*
X123901256Y-5398744D01*
X123863321Y-5341970D01*
X123850000Y-5275000D01*
X123850000Y-1625000D01*
X123863321Y-1558030D01*
X123901256Y-1501256D01*
X123958030Y-1463321D01*
X124025000Y-1450000D01*
X124375000Y-1450000D01*
X124441970Y-1463321D01*
G37*
G36*
X125441970Y-1463321D02*
G01*
X125498744Y-1501256D01*
X125536679Y-1558030D01*
X125550000Y-1625000D01*
X125550000Y-5275000D01*
X125536679Y-5341970D01*
X125498744Y-5398744D01*
X125441970Y-5436679D01*
X125375000Y-5450000D01*
X125025000Y-5450000D01*
X124958030Y-5436679D01*
X124901256Y-5398744D01*
X124863321Y-5341970D01*
X124850000Y-5275000D01*
X124850000Y-1625000D01*
X124863321Y-1558030D01*
X124901256Y-1501256D01*
X124958030Y-1463321D01*
X125025000Y-1450000D01*
X125375000Y-1450000D01*
X125441970Y-1463321D01*
G37*
G36*
X126441970Y-1463321D02*
G01*
X126498744Y-1501256D01*
X126536679Y-1558030D01*
X126550000Y-1625000D01*
X126550000Y-5275000D01*
X126536679Y-5341970D01*
X126498744Y-5398744D01*
X126441970Y-5436679D01*
X126375000Y-5450000D01*
X126025000Y-5450000D01*
X125958030Y-5436679D01*
X125901256Y-5398744D01*
X125863321Y-5341970D01*
X125850000Y-5275000D01*
X125850000Y-1625000D01*
X125863321Y-1558030D01*
X125901256Y-1501256D01*
X125958030Y-1463321D01*
X126025000Y-1450000D01*
X126375000Y-1450000D01*
X126441970Y-1463321D01*
G37*
G36*
X127441970Y-1463321D02*
G01*
X127498744Y-1501256D01*
X127536679Y-1558030D01*
X127550000Y-1625000D01*
X127550000Y-5275000D01*
X127536679Y-5341970D01*
X127498744Y-5398744D01*
X127441970Y-5436679D01*
X127375000Y-5450000D01*
X127025000Y-5450000D01*
X126958030Y-5436679D01*
X126901256Y-5398744D01*
X126863321Y-5341970D01*
X126850000Y-5275000D01*
X126850000Y-1625000D01*
X126863321Y-1558030D01*
X126901256Y-1501256D01*
X126958030Y-1463321D01*
X127025000Y-1450000D01*
X127375000Y-1450000D01*
X127441970Y-1463321D01*
G37*
G36*
X128441970Y-1463321D02*
G01*
X128498744Y-1501256D01*
X128536679Y-1558030D01*
X128550000Y-1625000D01*
X128550000Y-5275000D01*
X128536679Y-5341970D01*
X128498744Y-5398744D01*
X128441970Y-5436679D01*
X128375000Y-5450000D01*
X128025000Y-5450000D01*
X127958030Y-5436679D01*
X127901256Y-5398744D01*
X127863321Y-5341970D01*
X127850000Y-5275000D01*
X127850000Y-1625000D01*
X127863321Y-1558030D01*
X127901256Y-1501256D01*
X127958030Y-1463321D01*
X128025000Y-1450000D01*
X128375000Y-1450000D01*
X128441970Y-1463321D01*
G37*
G36*
X129441970Y-1463321D02*
G01*
X129498744Y-1501256D01*
X129536679Y-1558030D01*
X129550000Y-1625000D01*
X129550000Y-5275000D01*
X129536679Y-5341970D01*
X129498744Y-5398744D01*
X129441970Y-5436679D01*
X129375000Y-5450000D01*
X129025000Y-5450000D01*
X128958030Y-5436679D01*
X128901256Y-5398744D01*
X128863321Y-5341970D01*
X128850000Y-5275000D01*
X128850000Y-1625000D01*
X128863321Y-1558030D01*
X128901256Y-1501256D01*
X128958030Y-1463321D01*
X129025000Y-1450000D01*
X129375000Y-1450000D01*
X129441970Y-1463321D01*
G37*
G36*
X130441970Y-1463321D02*
G01*
X130498744Y-1501256D01*
X130536679Y-1558030D01*
X130550000Y-1625000D01*
X130550000Y-5275000D01*
X130536679Y-5341970D01*
X130498744Y-5398744D01*
X130441970Y-5436679D01*
X130375000Y-5450000D01*
X130025000Y-5450000D01*
X129958030Y-5436679D01*
X129901256Y-5398744D01*
X129863321Y-5341970D01*
X129850000Y-5275000D01*
X129850000Y-1625000D01*
X129863321Y-1558030D01*
X129901256Y-1501256D01*
X129958030Y-1463321D01*
X130025000Y-1450000D01*
X130375000Y-1450000D01*
X130441970Y-1463321D01*
G37*
G36*
X131441970Y-1463321D02*
G01*
X131498744Y-1501256D01*
X131536679Y-1558030D01*
X131550000Y-1625000D01*
X131550000Y-5275000D01*
X131536679Y-5341970D01*
X131498744Y-5398744D01*
X131441970Y-5436679D01*
X131375000Y-5450000D01*
X131025000Y-5450000D01*
X130958030Y-5436679D01*
X130901256Y-5398744D01*
X130863321Y-5341970D01*
X130850000Y-5275000D01*
X130850000Y-1625000D01*
X130863321Y-1558030D01*
X130901256Y-1501256D01*
X130958030Y-1463321D01*
X131025000Y-1450000D01*
X131375000Y-1450000D01*
X131441970Y-1463321D01*
G37*
G36*
X132441970Y-1463321D02*
G01*
X132498744Y-1501256D01*
X132536679Y-1558030D01*
X132550000Y-1625000D01*
X132550000Y-5275000D01*
X132536679Y-5341970D01*
X132498744Y-5398744D01*
X132441970Y-5436679D01*
X132375000Y-5450000D01*
X132025000Y-5450000D01*
X131958030Y-5436679D01*
X131901256Y-5398744D01*
X131863321Y-5341970D01*
X131850000Y-5275000D01*
X131850000Y-1625000D01*
X131863321Y-1558030D01*
X131901256Y-1501256D01*
X131958030Y-1463321D01*
X132025000Y-1450000D01*
X132375000Y-1450000D01*
X132441970Y-1463321D01*
G37*
G36*
X133441970Y-1463321D02*
G01*
X133498744Y-1501256D01*
X133536679Y-1558030D01*
X133550000Y-1625000D01*
X133550000Y-5275000D01*
X133536679Y-5341970D01*
X133498744Y-5398744D01*
X133441970Y-5436679D01*
X133375000Y-5450000D01*
X133025000Y-5450000D01*
X132958030Y-5436679D01*
X132901256Y-5398744D01*
X132863321Y-5341970D01*
X132850000Y-5275000D01*
X132850000Y-1625000D01*
X132863321Y-1558030D01*
X132901256Y-1501256D01*
X132958030Y-1463321D01*
X133025000Y-1450000D01*
X133375000Y-1450000D01*
X133441970Y-1463321D01*
G37*
G36*
X134441970Y-1463321D02*
G01*
X134498744Y-1501256D01*
X134536679Y-1558030D01*
X134550000Y-1625000D01*
X134550000Y-5275000D01*
X134536679Y-5341970D01*
X134498744Y-5398744D01*
X134441970Y-5436679D01*
X134375000Y-5450000D01*
X134025000Y-5450000D01*
X133958030Y-5436679D01*
X133901256Y-5398744D01*
X133863321Y-5341970D01*
X133850000Y-5275000D01*
X133850000Y-1625000D01*
X133863321Y-1558030D01*
X133901256Y-1501256D01*
X133958030Y-1463321D01*
X134025000Y-1450000D01*
X134375000Y-1450000D01*
X134441970Y-1463321D01*
G37*
G36*
X135441970Y-1463321D02*
G01*
X135498744Y-1501256D01*
X135536679Y-1558030D01*
X135550000Y-1625000D01*
X135550000Y-5275000D01*
X135536679Y-5341970D01*
X135498744Y-5398744D01*
X135441970Y-5436679D01*
X135375000Y-5450000D01*
X135025000Y-5450000D01*
X134958030Y-5436679D01*
X134901256Y-5398744D01*
X134863321Y-5341970D01*
X134850000Y-5275000D01*
X134850000Y-1625000D01*
X134863321Y-1558030D01*
X134901256Y-1501256D01*
X134958030Y-1463321D01*
X135025000Y-1450000D01*
X135375000Y-1450000D01*
X135441970Y-1463321D01*
G37*
G36*
X136441970Y-1463321D02*
G01*
X136498744Y-1501256D01*
X136536679Y-1558030D01*
X136550000Y-1625000D01*
X136550000Y-5275000D01*
X136536679Y-5341970D01*
X136498744Y-5398744D01*
X136441970Y-5436679D01*
X136375000Y-5450000D01*
X136025000Y-5450000D01*
X135958030Y-5436679D01*
X135901256Y-5398744D01*
X135863321Y-5341970D01*
X135850000Y-5275000D01*
X135850000Y-1625000D01*
X135863321Y-1558030D01*
X135901256Y-1501256D01*
X135958030Y-1463321D01*
X136025000Y-1450000D01*
X136375000Y-1450000D01*
X136441970Y-1463321D01*
G37*
G36*
X137441970Y-1463321D02*
G01*
X137498744Y-1501256D01*
X137536679Y-1558030D01*
X137550000Y-1625000D01*
X137550000Y-5275000D01*
X137536679Y-5341970D01*
X137498744Y-5398744D01*
X137441970Y-5436679D01*
X137375000Y-5450000D01*
X137025000Y-5450000D01*
X136958030Y-5436679D01*
X136901256Y-5398744D01*
X136863321Y-5341970D01*
X136850000Y-5275000D01*
X136850000Y-1625000D01*
X136863321Y-1558030D01*
X136901256Y-1501256D01*
X136958030Y-1463321D01*
X137025000Y-1450000D01*
X137375000Y-1450000D01*
X137441970Y-1463321D01*
G37*
G36*
X138441970Y-1463321D02*
G01*
X138498744Y-1501256D01*
X138536679Y-1558030D01*
X138550000Y-1625000D01*
X138550000Y-5275000D01*
X138536679Y-5341970D01*
X138498744Y-5398744D01*
X138441970Y-5436679D01*
X138375000Y-5450000D01*
X138025000Y-5450000D01*
X137958030Y-5436679D01*
X137901256Y-5398744D01*
X137863321Y-5341970D01*
X137850000Y-5275000D01*
X137850000Y-1625000D01*
X137863321Y-1558030D01*
X137901256Y-1501256D01*
X137958030Y-1463321D01*
X138025000Y-1450000D01*
X138375000Y-1450000D01*
X138441970Y-1463321D01*
G37*
G36*
X139441970Y-1463321D02*
G01*
X139498744Y-1501256D01*
X139536679Y-1558030D01*
X139550000Y-1625000D01*
X139550000Y-5275000D01*
X139536679Y-5341970D01*
X139498744Y-5398744D01*
X139441970Y-5436679D01*
X139375000Y-5450000D01*
X139025000Y-5450000D01*
X138958030Y-5436679D01*
X138901256Y-5398744D01*
X138863321Y-5341970D01*
X138850000Y-5275000D01*
X138850000Y-1625000D01*
X138863321Y-1558030D01*
X138901256Y-1501256D01*
X138958030Y-1463321D01*
X139025000Y-1450000D01*
X139375000Y-1450000D01*
X139441970Y-1463321D01*
G37*
G36*
X140441970Y-1463321D02*
G01*
X140498744Y-1501256D01*
X140536679Y-1558030D01*
X140550000Y-1625000D01*
X140550000Y-5275000D01*
X140536679Y-5341970D01*
X140498744Y-5398744D01*
X140441970Y-5436679D01*
X140375000Y-5450000D01*
X140025000Y-5450000D01*
X139958030Y-5436679D01*
X139901256Y-5398744D01*
X139863321Y-5341970D01*
X139850000Y-5275000D01*
X139850000Y-1625000D01*
X139863321Y-1558030D01*
X139901256Y-1501256D01*
X139958030Y-1463321D01*
X140025000Y-1450000D01*
X140375000Y-1450000D01*
X140441970Y-1463321D01*
G37*
G36*
X141441970Y-1463321D02*
G01*
X141498744Y-1501256D01*
X141536679Y-1558030D01*
X141550000Y-1625000D01*
X141550000Y-5275000D01*
X141536679Y-5341970D01*
X141498744Y-5398744D01*
X141441970Y-5436679D01*
X141375000Y-5450000D01*
X141025000Y-5450000D01*
X140958030Y-5436679D01*
X140901256Y-5398744D01*
X140863321Y-5341970D01*
X140850000Y-5275000D01*
X140850000Y-1625000D01*
X140863321Y-1558030D01*
X140901256Y-1501256D01*
X140958030Y-1463321D01*
X141025000Y-1450000D01*
X141375000Y-1450000D01*
X141441970Y-1463321D01*
G37*
G36*
X142441970Y-1463321D02*
G01*
X142498744Y-1501256D01*
X142536679Y-1558030D01*
X142550000Y-1625000D01*
X142550000Y-5275000D01*
X142536679Y-5341970D01*
X142498744Y-5398744D01*
X142441970Y-5436679D01*
X142375000Y-5450000D01*
X142025000Y-5450000D01*
X141958030Y-5436679D01*
X141901256Y-5398744D01*
X141863321Y-5341970D01*
X141850000Y-5275000D01*
X141850000Y-1625000D01*
X141863321Y-1558030D01*
X141901256Y-1501256D01*
X141958030Y-1463321D01*
X142025000Y-1450000D01*
X142375000Y-1450000D01*
X142441970Y-1463321D01*
G37*
G36*
X143441970Y-1463321D02*
G01*
X143498744Y-1501256D01*
X143536679Y-1558030D01*
X143550000Y-1625000D01*
X143550000Y-5275000D01*
X143536679Y-5341970D01*
X143498744Y-5398744D01*
X143441970Y-5436679D01*
X143375000Y-5450000D01*
X143025000Y-5450000D01*
X142958030Y-5436679D01*
X142901256Y-5398744D01*
X142863321Y-5341970D01*
X142850000Y-5275000D01*
X142850000Y-1625000D01*
X142863321Y-1558030D01*
X142901256Y-1501256D01*
X142958030Y-1463321D01*
X143025000Y-1450000D01*
X143375000Y-1450000D01*
X143441970Y-1463321D01*
G37*
G36*
X144441970Y-1463321D02*
G01*
X144498744Y-1501256D01*
X144536679Y-1558030D01*
X144550000Y-1625000D01*
X144550000Y-5275000D01*
X144536679Y-5341970D01*
X144498744Y-5398744D01*
X144441970Y-5436679D01*
X144375000Y-5450000D01*
X144025000Y-5450000D01*
X143958030Y-5436679D01*
X143901256Y-5398744D01*
X143863321Y-5341970D01*
X143850000Y-5275000D01*
X143850000Y-1625000D01*
X143863321Y-1558030D01*
X143901256Y-1501256D01*
X143958030Y-1463321D01*
X144025000Y-1450000D01*
X144375000Y-1450000D01*
X144441970Y-1463321D01*
G37*
G36*
X145441970Y-1463321D02*
G01*
X145498744Y-1501256D01*
X145536679Y-1558030D01*
X145550000Y-1625000D01*
X145550000Y-5275000D01*
X145536679Y-5341970D01*
X145498744Y-5398744D01*
X145441970Y-5436679D01*
X145375000Y-5450000D01*
X145025000Y-5450000D01*
X144958030Y-5436679D01*
X144901256Y-5398744D01*
X144863321Y-5341970D01*
X144850000Y-5275000D01*
X144850000Y-1625000D01*
X144863321Y-1558030D01*
X144901256Y-1501256D01*
X144958030Y-1463321D01*
X145025000Y-1450000D01*
X145375000Y-1450000D01*
X145441970Y-1463321D01*
G37*
G36*
X146441970Y-1463321D02*
G01*
X146498744Y-1501256D01*
X146536679Y-1558030D01*
X146550000Y-1625000D01*
X146550000Y-5275000D01*
X146536679Y-5341970D01*
X146498744Y-5398744D01*
X146441970Y-5436679D01*
X146375000Y-5450000D01*
X146025000Y-5450000D01*
X145958030Y-5436679D01*
X145901256Y-5398744D01*
X145863321Y-5341970D01*
X145850000Y-5275000D01*
X145850000Y-1625000D01*
X145863321Y-1558030D01*
X145901256Y-1501256D01*
X145958030Y-1463321D01*
X146025000Y-1450000D01*
X146375000Y-1450000D01*
X146441970Y-1463321D01*
G37*
G36*
X147441970Y-1463321D02*
G01*
X147498744Y-1501256D01*
X147536679Y-1558030D01*
X147550000Y-1625000D01*
X147550000Y-5275000D01*
X147536679Y-5341970D01*
X147498744Y-5398744D01*
X147441970Y-5436679D01*
X147375000Y-5450000D01*
X147025000Y-5450000D01*
X146958030Y-5436679D01*
X146901256Y-5398744D01*
X146863321Y-5341970D01*
X146850000Y-5275000D01*
X146850000Y-1625000D01*
X146863321Y-1558030D01*
X146901256Y-1501256D01*
X146958030Y-1463321D01*
X147025000Y-1450000D01*
X147375000Y-1450000D01*
X147441970Y-1463321D01*
G37*
G36*
X148441970Y-1463321D02*
G01*
X148498744Y-1501256D01*
X148536679Y-1558030D01*
X148550000Y-1625000D01*
X148550000Y-5275000D01*
X148536679Y-5341970D01*
X148498744Y-5398744D01*
X148441970Y-5436679D01*
X148375000Y-5450000D01*
X148025000Y-5450000D01*
X147958030Y-5436679D01*
X147901256Y-5398744D01*
X147863321Y-5341970D01*
X147850000Y-5275000D01*
X147850000Y-1625000D01*
X147863321Y-1558030D01*
X147901256Y-1501256D01*
X147958030Y-1463321D01*
X148025000Y-1450000D01*
X148375000Y-1450000D01*
X148441970Y-1463321D01*
G37*
G36*
X149441970Y-1463321D02*
G01*
X149498744Y-1501256D01*
X149536679Y-1558030D01*
X149550000Y-1625000D01*
X149550000Y-5275000D01*
X149536679Y-5341970D01*
X149498744Y-5398744D01*
X149441970Y-5436679D01*
X149375000Y-5450000D01*
X149025000Y-5450000D01*
X148958030Y-5436679D01*
X148901256Y-5398744D01*
X148863321Y-5341970D01*
X148850000Y-5275000D01*
X148850000Y-1625000D01*
X148863321Y-1558030D01*
X148901256Y-1501256D01*
X148958030Y-1463321D01*
X149025000Y-1450000D01*
X149375000Y-1450000D01*
X149441970Y-1463321D01*
G37*
G36*
X150441970Y-1463321D02*
G01*
X150498744Y-1501256D01*
X150536679Y-1558030D01*
X150550000Y-1625000D01*
X150550000Y-5275000D01*
X150536679Y-5341970D01*
X150498744Y-5398744D01*
X150441970Y-5436679D01*
X150375000Y-5450000D01*
X150025000Y-5450000D01*
X149958030Y-5436679D01*
X149901256Y-5398744D01*
X149863321Y-5341970D01*
X149850000Y-5275000D01*
X149850000Y-1625000D01*
X149863321Y-1558030D01*
X149901256Y-1501256D01*
X149958030Y-1463321D01*
X150025000Y-1450000D01*
X150375000Y-1450000D01*
X150441970Y-1463321D01*
G37*
G36*
X151441970Y-1463321D02*
G01*
X151498744Y-1501256D01*
X151536679Y-1558030D01*
X151550000Y-1625000D01*
X151550000Y-5275000D01*
X151536679Y-5341970D01*
X151498744Y-5398744D01*
X151441970Y-5436679D01*
X151375000Y-5450000D01*
X151025000Y-5450000D01*
X150958030Y-5436679D01*
X150901256Y-5398744D01*
X150863321Y-5341970D01*
X150850000Y-5275000D01*
X150850000Y-1625000D01*
X150863321Y-1558030D01*
X150901256Y-1501256D01*
X150958030Y-1463321D01*
X151025000Y-1450000D01*
X151375000Y-1450000D01*
X151441970Y-1463321D01*
G37*
G36*
X152441970Y-1463321D02*
G01*
X152498744Y-1501256D01*
X152536679Y-1558030D01*
X152550000Y-1625000D01*
X152550000Y-5275000D01*
X152536679Y-5341970D01*
X152498744Y-5398744D01*
X152441970Y-5436679D01*
X152375000Y-5450000D01*
X152025000Y-5450000D01*
X151958030Y-5436679D01*
X151901256Y-5398744D01*
X151863321Y-5341970D01*
X151850000Y-5275000D01*
X151850000Y-1625000D01*
X151863321Y-1558030D01*
X151901256Y-1501256D01*
X151958030Y-1463321D01*
X152025000Y-1450000D01*
X152375000Y-1450000D01*
X152441970Y-1463321D01*
G37*
G36*
X32232946Y-45784728D02*
G01*
X32280798Y-45816702D01*
X32312772Y-45864554D01*
X32324000Y-45921000D01*
X32324000Y-46216000D01*
X32312772Y-46272446D01*
X32280798Y-46320298D01*
X32232946Y-46352272D01*
X32176500Y-46363500D01*
X31831500Y-46363500D01*
X31775054Y-46352272D01*
X31727202Y-46320298D01*
X31695228Y-46272446D01*
X31684000Y-46216000D01*
X31684000Y-45921000D01*
X31695228Y-45864554D01*
X31727202Y-45816702D01*
X31775054Y-45784728D01*
X31831500Y-45773500D01*
X32176500Y-45773500D01*
X32232946Y-45784728D01*
G37*
G36*
X32232946Y-46754728D02*
G01*
X32280798Y-46786702D01*
X32312772Y-46834554D01*
X32324000Y-46891000D01*
X32324000Y-47186000D01*
X32312772Y-47242446D01*
X32280798Y-47290298D01*
X32232946Y-47322272D01*
X32176500Y-47333500D01*
X31831500Y-47333500D01*
X31775054Y-47322272D01*
X31727202Y-47290298D01*
X31695228Y-47242446D01*
X31684000Y-47186000D01*
X31684000Y-46891000D01*
X31695228Y-46834554D01*
X31727202Y-46786702D01*
X31775054Y-46754728D01*
X31831500Y-46743500D01*
X32176500Y-46743500D01*
X32232946Y-46754728D01*
G37*
G36*
X56594446Y-56938228D02*
G01*
X56642298Y-56970202D01*
X56674272Y-57018054D01*
X56685500Y-57074500D01*
X56685500Y-57419500D01*
X56674272Y-57475946D01*
X56642298Y-57523798D01*
X56594446Y-57555772D01*
X56538000Y-57567000D01*
X56243000Y-57567000D01*
X56186554Y-57555772D01*
X56138702Y-57523798D01*
X56106728Y-57475946D01*
X56095500Y-57419500D01*
X56095500Y-57074500D01*
X56106728Y-57018054D01*
X56138702Y-56970202D01*
X56186554Y-56938228D01*
X56243000Y-56927000D01*
X56538000Y-56927000D01*
X56594446Y-56938228D01*
G37*
G36*
X55624446Y-56938228D02*
G01*
X55672298Y-56970202D01*
X55704272Y-57018054D01*
X55715500Y-57074500D01*
X55715500Y-57419500D01*
X55704272Y-57475946D01*
X55672298Y-57523798D01*
X55624446Y-57555772D01*
X55568000Y-57567000D01*
X55273000Y-57567000D01*
X55216554Y-57555772D01*
X55168702Y-57523798D01*
X55136728Y-57475946D01*
X55125500Y-57419500D01*
X55125500Y-57074500D01*
X55136728Y-57018054D01*
X55168702Y-56970202D01*
X55216554Y-56938228D01*
X55273000Y-56927000D01*
X55568000Y-56927000D01*
X55624446Y-56938228D01*
G37*
M02*
