M48
; DRILL file {KiCad 5.99.0-unknown-128ec78~100~ubuntu18.04.1} date Wed Jan 29 23:00:11 2020
; FORMAT={-:-/ absolute / metric / decimal}
; #@! TF.CreationDate,2020-01-29T23:00:11+01:00
; #@! TF.GenerationSoftware,Kicad,Pcbnew,5.99.0-unknown-128ec78~100~ubuntu18.04.1
FMAT,2
METRIC
T1C0.200
T2C0.300
T3C0.400
T4C0.600
T5C1.000
T6C3.200
T7C0.800
T8C1.400
T9C2.700
%
G90
G05
T1
X11.176Y-62.584
X11.176Y-75.281
X11.176Y-77.186
X11.176Y-77.694
X11.176Y-78.202
X11.176Y-78.71
X11.176Y-79.218
X11.176Y-79.726
X11.176Y-80.742
X11.176Y-82.266
X11.684Y-53.516
X11.684Y-55.421
X15.24Y-74.265
X15.367Y-53.516
X15.367Y-55.421
X16.0Y-63.635
X17.78Y-89.378
X23.241Y-87.219
X23.622Y-72.995
X23.622Y-81.123
X23.749Y-77.059
X23.749Y-82.774
X24.28Y-72.256
X24.28Y-73.607
X24.303Y-81.712
X24.43Y-77.648
X24.892Y-49.713
X24.892Y-53.65
X24.892Y-87.219
X24.892Y-90.521
X25.273Y-80.525
X25.4Y-77.694
X25.527Y-67.28
X25.527Y-69.693
X25.654Y-40.483
X25.654Y-42.007
X26.543Y-53.65
X26.543Y-72.106
X26.67Y-49.713
X26.797Y-87.219
X27.432Y-71.471
X27.94Y-40.483
X27.94Y-42.007
X28.15Y-71.388
X28.194Y-83.155
X28.702Y-82.647
X28.829Y-71.471
X29.845Y-47.976
X29.972Y-67.915
X30.226Y-40.483
X30.226Y-42.007
X30.226Y-87.092
X30.372Y-51.639
X30.607Y-67.28
X30.734Y-72.233
X31.242Y-44.039
X31.369Y-69.312
X31.496Y-83.155
X31.623Y-82.012
X31.623Y-84.425
X31.623Y-86.076
X31.877Y-52.929
X31.877Y-77.821
X31.981Y-43.474
X32.258Y-68.677
X32.616Y-80.765
X32.616Y-81.989
X32.893Y-77.821
X33.02Y-73.63
X33.147Y-81.377
X33.401Y-51.659
X33.528Y-77.059
X33.782Y-73.249
X34.29Y-53.818
X34.798Y-68.169
X34.925Y-44.547
X34.925Y-45.309
X34.981Y-53.818
X35.631Y-53.818
X35.687Y-44.547
X35.687Y-45.309
X36.322Y-53.818
X36.957Y-63.724
X37.719Y-63.089
X38.227Y-47.849
X38.989Y-42.388
X39.09Y-40.838
X40.894Y-40.483
X41.529Y-77.567
X42.926Y-76.17
X42.926Y-78.964
X44.958Y-66.391
X46.355Y-59.914
X46.482Y-71.217
X47.143Y-59.914
X47.793Y-59.914
X48.514Y-59.914
X49.022Y-73.757
X49.022Y-74.519
X49.022Y-104.745
X49.403Y-57.12
X49.643Y-91.058
X49.784Y-73.757
X49.784Y-74.519
X49.911Y-31.974
X49.911Y-90.521
X50.419Y-78.329
X50.442Y-76.828
X50.67Y-55.599
X50.67Y-58.514
X51.65Y-104.833
X52.07Y-31.974
X52.705Y-71.217
X53.721Y-70.582
X54.864Y-63.47
X55.118Y-90.902
X55.118Y-95.22
X56.388Y-83.79
X57.277Y-60.168
X57.277Y-60.93
X57.277Y-84.298
X57.531Y-101.062
X58.039Y-60.168
X58.039Y-60.93
X58.039Y-64.74
X58.039Y-84.806
X58.42Y-56.485
X58.42Y-58.009
X58.674Y-85.314
X58.928Y-104.364
X60.198Y-64.232
X62.128Y-64.334
X62.15Y-103.985
X63.754Y-78.329
X63.754Y-90.902
X64.389Y-104.491
X64.643Y-78.964
X64.643Y-86.457
X65.278Y-10.384
X65.405Y-79.599
X66.04Y-80.234
X66.291Y-11.651
X66.294Y-9.114
X70.358Y-77.948
X70.866Y-78.456
X71.755Y-8.352
X71.755Y-80.234
X72.136Y-12.924
X72.263Y-78.583
X72.644Y-9.876
X73.025Y-38.959
X73.149Y-11.657
X73.149Y-14.191
X73.533Y-39.467
X74.168Y-9.241
X74.168Y-39.848
X74.93Y-40.483
X75.2Y-6.558
X78.059Y-10.465
X78.059Y-11.862
X81.153Y-8.987
X82.677Y-6.066
X85.725Y-6.066
X88.2Y-6.001
X90.188Y-5.957
X91.2Y-5.925
X91.44Y-83.255
X92.202Y-5.925
X93.218Y-5.939
X94.234Y-5.939
X95.123Y-5.939
X96.139Y-5.939
X97.155Y-5.957
X98.171Y-5.957
X98.755Y-51.962
X99.187Y-5.939
X101.168Y-83.204
X101.219Y-5.957
X101.676Y-52.089
X102.235Y-5.939
X102.946Y-61.106
X104.158Y-5.957
X105.156Y-5.939
X106.172Y-5.939
X106.248Y-63.646
X106.248Y-65.932
X106.248Y-69.107
X106.248Y-74.06
X107.188Y-5.957
X108.204Y-5.957
X108.534Y-51.962
X108.534Y-53.613
X108.534Y-56.661
X108.534Y-60.979
X108.534Y-72.028
X109.22Y-5.939
X109.931Y-74.06
X110.236Y-5.939
X110.312Y-69.488
X110.312Y-70.885
X111.125Y-5.957
X111.201Y-66.186
X111.963Y-67.71
X112.087Y-68.906
X112.108Y-69.506
X112.141Y-5.957
X112.217Y-82.061
X112.3Y-78.295
X112.471Y-70.885
X112.598Y-62.249
X112.598Y-64.789
X112.598Y-74.06
X112.725Y-51.835
X113.157Y-5.939
X113.233Y-78.378
X113.868Y-53.613
X113.868Y-56.661
X113.868Y-58.947
X113.868Y-75.838
X114.173Y-5.939
X114.63Y-51.835
X115.189Y-5.957
X115.519Y-60.979
X115.773Y-81.807
X116.205Y-5.957
X117.221Y-5.939
X117.297Y-81.807
X117.424Y-51.835
X117.678Y-66.44
X117.678Y-71.901
X117.805Y-63.9
X117.805Y-74.441
X117.805Y-75.838
X118.059Y-53.613
X118.059Y-56.661
X118.059Y-58.947
X118.059Y-60.979
X118.44Y-51.835
X118.821Y-81.807
X119.126Y-5.939
X120.345Y-81.934
X120.726Y-58.947
X121.176Y-5.957
X121.615Y-51.708
X121.615Y-75.838
X121.996Y-60.979
X122.123Y-53.613
X122.123Y-56.661
X122.174Y-5.939
X122.504Y-51.708
X122.758Y-67.71
X122.885Y-64.789
X122.885Y-70.885
X122.885Y-74.06
X123.19Y-5.939
X123.393Y-68.345
X123.393Y-69.488
X123.774Y-68.98
X123.901Y-67.456
X124.155Y-58.947
X124.206Y-5.939
X125.171Y-71.901
X125.222Y-5.939
X125.806Y-51.708
X125.806Y-69.107
X125.806Y-74.06
X126.06Y-64.789
X126.111Y-5.939
X126.441Y-53.613
X126.441Y-56.661
X127.127Y-5.939
X127.711Y-51.708
X128.143Y-5.957
X128.219Y-65.551
X128.219Y-69.488
X128.346Y-59.709
X128.361Y-60.279
X128.727Y-51.708
X129.159Y-5.957
X129.362Y-74.06
X129.743Y-67.583
X130.175Y-5.939
X130.759Y-51.708
X131.191Y-5.939
X131.521Y-57.677
X131.521Y-62.249
X131.521Y-67.075
X131.521Y-69.869
X131.648Y-68.091
X131.775Y-51.708
X132.207Y-5.939
X132.537Y-62.249
X132.537Y-71.647
X132.56Y-57.7
X133.223Y-5.939
X133.553Y-68.853
X133.807Y-51.708
X133.807Y-84.728
X133.807Y-89.173
X134.188Y-70.885
X134.239Y-5.939
X134.823Y-84.728
X134.823Y-89.173
X135.077Y-67.075
X135.255Y-5.939
X135.707Y-51.703
X135.966Y-68.726
X136.162Y-5.939
X137.109Y-68.726
X137.178Y-5.939
X137.744Y-51.708
X138.176Y-5.939
X139.192Y-5.939
X139.776Y-51.708
X140.208Y-5.939
X141.224Y-5.939
X141.808Y-51.708
X142.24Y-5.939
X142.951Y-65.932
X142.951Y-67.964
X142.951Y-69.869
X143.256Y-5.939
X143.713Y-51.708
X144.145Y-5.939
X144.729Y-65.17
X144.729Y-68.853
X144.729Y-70.758
X145.161Y-5.939
X145.745Y-51.708
X146.177Y-5.939
X146.374Y-63.271
X147.193Y-5.939
X147.777Y-51.708
X147.904Y-67.456
X147.904Y-68.726
X148.209Y-5.939
X148.666Y-51.708
X149.225Y-5.939
X150.241Y-5.939
X150.825Y-51.708
X151.587Y-71.139
X152.164Y-5.957
X152.349Y-63.265
X152.349Y-71.901
X152.349Y-71.901
X152.689Y-51.702
X153.365Y-71.901
X154.0Y-71.139
X154.879Y-51.708
X156.753Y-51.702
X158.816Y-51.708
X160.69Y-51.702
X162.888Y-51.702
X163.652Y-57.296
X163.652Y-61.868
X163.652Y-67.837
X163.652Y-72.409
X163.652Y-78.424
X163.652Y-83.077
X164.541Y-62.63
X164.643Y-51.702
X164.668Y-57.296
X164.668Y-67.837
X164.697Y-78.424
X164.795Y-73.171
X164.824Y-84.093
X164.922Y-61.741
X165.049Y-72.282
X165.049Y-83.077
X166.825Y-51.702
X168.707Y-51.702
X170.697Y-58.125
X170.697Y-68.689
X170.697Y-79.15
X170.889Y-51.702
X172.034Y-59.011
X172.034Y-69.488
X172.034Y-80.035
X172.644Y-51.702
X174.826Y-51.702
X176.707Y-51.682
X178.765Y-51.708
T2
X115.226Y-69.256
X117.726Y-69.256
X120.226Y-69.256
X28.4Y-74.55
X28.4Y-77.05
X28.4Y-79.55
T3
X46.65Y-104.577
X47.65Y-103.856
X53.086Y-102.205
X53.086Y-103.348
X70.2Y-6.224
X71.2Y-6.113
X72.2Y-6.891
X76.327Y-6.955
T5
X143.029Y-74.568
X143.029Y-77.108
X168.224Y-86.76
X170.764Y-86.76
X168.224Y-75.763
X170.764Y-75.763
X168.224Y-65.274
X170.764Y-65.274
X138.379Y-74.568
X138.379Y-77.108
T6
X7.0Y-13.25
X7.0Y-44.75
X7.0Y-98.65
T7
X87.899Y-44.45
X86.899Y-45.65
X172.4Y-45.65
X151.699Y-45.65
X163.8Y-37.6
X79.699Y-89.05
X80.899Y-89.05
X191.4Y-44.45
X165.0Y-7.2
X169.4Y-45.65
X172.4Y-44.45
X165.0Y-35.6
X190.4Y-45.65
X192.4Y-44.45
X153.699Y-44.45
X165.0Y-4.2
X80.899Y-90.05
X86.899Y-44.45
X165.0Y-36.6
X87.899Y-45.65
X169.4Y-44.45
X153.699Y-45.65
X79.699Y-88.05
X85.899Y-45.65
X165.0Y-6.2
X170.4Y-45.65
X151.699Y-44.45
X165.0Y-37.6
X189.4Y-45.65
X80.899Y-88.05
X190.4Y-44.45
X165.0Y-5.2
X79.699Y-90.05
X163.8Y-5.2
X85.899Y-44.45
X163.8Y-38.6
X171.4Y-44.45
X154.699Y-44.45
X154.699Y-45.65
X88.899Y-44.45
X88.899Y-45.65
X163.8Y-6.2
X171.4Y-45.65
X165.0Y-38.6
X191.4Y-45.65
X80.899Y-87.05
X189.4Y-44.45
X163.8Y-7.2
X192.4Y-45.65
X170.4Y-44.45
X79.699Y-87.05
X163.8Y-35.6
X163.8Y-36.6
X152.699Y-44.45
X163.8Y-4.2
X152.699Y-45.65
T8
X3.0Y-77.25
X115.268Y-90.468
T9
X191.299Y-90.05
X85.299Y-90.05
X191.299Y-55.05
X85.299Y-55.05
T4
G00X4.45Y-69.0
M15
G01X3.35Y-69.0
M16
G05
G00X4.45Y-85.5
M15
G01X3.35Y-85.5
M16
G05
G00X11.48Y-69.0
M15
G01X9.88Y-69.0
M16
G05
G00X11.48Y-85.5
M15
G01X9.88Y-85.5
M16
G05
G00X107.018Y-81.988
M15
G01X107.018Y-83.588
M16
G05
G00X107.018Y-89.018
M15
G01X107.018Y-90.118
M16
G05
G00X123.518Y-81.988
M15
G01X123.518Y-83.588
M16
G05
G00X123.518Y-89.018
M15
G01X123.518Y-90.118
M16
G05
T0
M30
